<svg xmlns="http://www.w3.org/2000/svg" width="180" height="59"><path d="M11.068 9.218c-1.96 5.149-3.576 9.338-3.587 9.316-.01-.022-1.422-4.02-3.136-8.872L1.225.833.61.817C.275.81 0 .817 0 .827c0 .04 7.42 21.058 7.437 21.074.006.011 1.615-4.184 3.576-9.322 1.956-5.133 3.576-9.36 3.592-9.399.017-.033 1.643 4.162 3.604 9.328 1.966 5.17 3.587 9.371 3.608 9.333.023-.044 3.708-10.287 7.493-20.832l.071-.203h-1.23l-3.186 8.856c-1.752 4.87-3.197 8.856-3.213 8.856-.017 0-1.599-4.13-3.51-9.174-1.917-5.04-3.51-9.24-3.543-9.328-.06-.148-.33.538-3.631 9.202ZM148.444.674c-3.785.527-6.855 2.84-8.234 6.197-.511 1.25-.747 2.484-.747 3.942 0 1.442.236 2.693.747 3.938 1.313 3.224 4.114 5.461 7.684 6.13.758.148 2.659.203 3.472.11a11.546 11.546 0 0 0 5.553-2.177c.544-.4 1.274-1.015 1.274-1.07 0-.021-.192-.202-.423-.4l-.417-.35-.45.372c-2.005 1.689-4.296 2.523-6.927 2.523-4.965 0-8.81-3.35-9.305-8.116-.395-3.817 1.511-7.343 4.861-8.993.89-.439 1.407-.62 2.258-.8a10.98 10.98 0 0 1 4.273-.023c1.643.318 3.318 1.13 4.675 2.27.274.225.505.412.522.412.016 0 .214-.165.439-.373.478-.439.5-.362-.247-.987-1.593-1.327-3.516-2.199-5.63-2.56-.758-.127-2.604-.154-3.378-.045ZM32.463 10.84v10.036h1.153V.806h-1.153v10.035ZM39.164 10.84v10.036l7.157-.011 7.152-.017V19.697l-6.548-.017-6.552-.01V.805h-1.209v10.035ZM57.016 10.84v10.036l7.157-.011 7.151-.017V19.697l-6.575-.017-6.58-.01V.805h-1.153v10.035ZM83.337 10.825l.017 10.023H97.635l.016-.592.017-.587H84.535V.806h-1.209l.011 10.018ZM94.9.927c.066.07 2.191 2.445 4.735 5.275l4.619 5.149.011 4.748.017 4.75.593.016.588.016v-4.76l.005-4.76 4.504-5.017c2.477-2.758 4.603-5.132 4.73-5.28l.219-.258h-1.576l-4.219 4.721c-3.63 4.053-4.235 4.705-4.306 4.645-.05-.039-1.966-2.16-4.262-4.716L96.383.806H94.79l.11.12ZM117.118 10.824l.017 10.024h1.153l.028-9.015.027-9.015 7.58 8.769c4.169 4.825 7.69 8.883 7.822 9.026l.242.263H135.014V.806h-1.153v18.118l-.121-.121c-.072-.066-3.598-4.14-7.844-9.048L118.179.833l-.539-.016-.533-.016.011 10.023ZM161.873 10.84v10.036h1.154V10.512h14.83l.011 5.165.017 5.171h1.153l.017-10.024.011-10.018h-1.209v8.5h-14.83v-8.5h-1.154v10.035ZM148.773 32.506c-2.351.242-4.554 1.24-6.213 2.808-1.466 1.387-2.472 3.202-2.911 5.275-.192.9-.247 2.594-.11 3.537.5 3.433 2.516 6.235 5.553 7.704 1.566.763 3.038 1.086 4.889 1.086 2.477 0 4.51-.609 6.509-1.941.648-.433 1.703-1.278 1.703-1.36 0-.05-.736-.675-.83-.713-.033-.01-.137.055-.23.148-.297.28-1.187.932-1.665 1.218-1.691 1.025-3.4 1.48-5.503 1.48-2.681-.005-4.988-.916-6.74-2.66-2.164-2.166-3.054-5.33-2.379-8.466.649-3.022 2.928-5.517 5.938-6.504 2.412-.784 5.29-.608 7.608.467.829.389 1.834 1.047 2.526 1.661.16.143.308.258.33.258.022 0 .225-.17.45-.384l.412-.384-.302-.274c-2.362-2.172-5.795-3.29-9.035-2.956ZM120.266 32.561c-1.852.148-3.532.675-4.614 1.448-.445.312-1.055.965-1.308 1.398-.351.609-.489 1.124-.522 1.958-.027.893.061 1.354.407 2.045.741 1.48 2.505 2.5 5.679 3.28.5.125 1.709.421 2.692.663 1.84.45 2.812.74 3.521 1.047 1.324.576 2.065 1.322 2.307 2.303.115.488.093 1.382-.044 1.837-.478 1.524-2.016 2.56-4.438 2.994-.637.115-.879.132-2.225.126-1.263 0-1.631-.016-2.252-.115-2.334-.367-4.164-1.009-5.938-2.09l-.192-.12-.319.46c-.175.258-.302.489-.285.522.022.027.242.175.489.323 2.136 1.283 4.8 2.046 7.695 2.2 4.131.224 7.256-1.026 8.349-3.34.324-.691.39-1.015.39-1.974 0-.74-.016-.905-.126-1.262a3.83 3.83 0 0 0-.945-1.606c-.978-1.031-2.433-1.673-5.41-2.391-.753-.187-1.928-.472-2.609-.636-2.566-.62-3.955-1.229-4.807-2.095-1.071-1.08-1.038-2.983.061-4.102.994-1.009 2.658-1.584 4.96-1.721 2.724-.16 5.317.526 7.536 1.985l.137.093.346-.466c.187-.258.33-.488.313-.516-.06-.093-.983-.625-1.631-.932a13.879 13.879 0 0 0-7.217-1.316ZM171.239 32.578c-.347.11-.539.224-.874.526-.538.494-1.186 1.629-1.186 2.09 0 .262.203.454.478.449.307-.011.401-.148.488-.735.165-1.113.561-1.864 1.176-2.248.269-.17.253-.186-.082-.082ZM.11 33.186v.521h62.453v3.729H.104l.017.504.016.51 31.216.017 31.21.01v3.73H.11v.987h62.453v3.728l-31.21.011-31.216.017-.016.504-.017.51h62.459v3.729H.104l.017.505.016.51 33.084.016 33.078.011V35.434l4.657 8.922c2.56 4.908 4.68 8.922 4.708 8.922.033.005 2.158-4.009 4.724-8.91l4.668-8.912.017 8.637.01 8.642h1.154V32.66l-.527.016-.522.017-4.74 9.064c-2.604 4.979-4.751 9.07-4.768 9.086-.016.017-2.164-4.069-4.773-9.075l-4.74-9.103H.11v.521Zm64.54 2.386v1.864h-.879v-3.729h.88v1.864Zm0 4.77v1.865h-.879v-3.729h.88v1.864Zm0 4.716v1.864h-.879v-3.728h.88v1.864Zm0 4.77v1.865h-.879v-3.729h.88v1.865ZM91.422 32.742c-.016.044-.016 2.764-.005 6.043.016 5.27.033 6.043.115 6.602.209 1.426.462 2.287.967 3.318 1.335 2.752 4.01 4.194 7.772 4.194 4.57 0 7.514-2.133 8.487-6.158.351-1.458.346-1.332.368-8.006l.022-6.07h-1.209l-.022 6.043c-.022 6.273-.022 6.279-.263 7.474-.302 1.492-.923 2.725-1.829 3.625-.533.532-.956.822-1.703 1.179-1.225.58-2.999.85-4.73.713-4.02-.324-6.113-2.391-6.679-6.586-.044-.313-.071-2.407-.088-6.46l-.022-5.988h-.576c-.44 0-.583.017-.605.077ZM133.86 42.7v10.035h1.154v-20.07h-1.154V42.7ZM169.075 32.808c-.357.126-.599.296-.945.658-.593.63-1.022 1.415-.961 1.75.044.23.214.355.472.355.308 0 .418-.158.516-.756.165-.965.555-1.645 1.165-2.024.143-.087.038-.082-.247.017ZM173.299 32.83c-.462.099-.835.362-1.192.839-.324.438-.698 1.212-.698 1.442 0 .247.203.46.44.46.379 0 .483-.142.538-.756.093-.943.445-1.607 1.016-1.903.258-.137.231-.154-.104-.082ZM175.918 33.636c-.022.016-.038.093-.038.159 0 .099.06.159.236.246.994.5 1.785 1.141 2.395 1.942.461.608.945 1.645 1.077 2.314.06.312.411.285.411-.033 0-.241-.406-1.338-.653-1.771-.654-1.146-1.703-2.15-2.845-2.726-.335-.164-.511-.208-.583-.131ZM167.47 36.142c-.373.131-.884.439-1.065.636-.104.115-.104.115.143.071.384-.071.988-.044 1.274.055.231.082.286.082.45.011.33-.132.396-.488.143-.746-.203-.197-.439-.208-.945-.027ZM169.519 36.098a.59.59 0 0 0-.154.302c-.027.153-.005.224.105.35.131.16.137.16.977.203 1.753.088 2.818.373 4.06 1.086.23.137.417.104.593-.088.329-.373 0-.74-1.071-1.2-.984-.423-2.214-.675-3.532-.724-.78-.028-.863-.022-.978.071ZM167.119 37.897c-.407.131-1.225.625-1.236.75 0 .023.104.017.236-.01.324-.06.796-.055 1.055.01.12.034.318.072.445.089.197.022.241.005.368-.148.203-.242.181-.51-.066-.697-.116-.088-.522-.082-.802.006ZM169.124 37.984a.448.448 0 0 0-.099.527c.11.235.286.296.879.296 1.45 0 3.059.39 4.01.965.401.241.62.258.802.05a.464.464 0 0 0 .038-.566c-.121-.164-.725-.504-1.324-.74-.966-.39-2.389-.641-3.57-.641-.549 0-.637.01-.736.11ZM176.989 38.461c-.087.033-.23.307-.23.45 0 .192.236.378.741.581.692.28 1.214.565 1.549.834.506.411.138-.192-.554-.91-.687-.708-1.05-.993-1.258-.988a.84.84 0 0 0-.248.033ZM166.707 39.733c-.39.127-.802.34-1.038.538l-.187.159.533-.022c.44-.022.593-.005.885.093.401.137.582.115.741-.088.159-.202.143-.433-.049-.625-.193-.192-.423-.203-.885-.054ZM168.591 39.914c-.164.187-.186.302-.104.505.104.247.269.29 1.214.329 1.505.055 2.944.444 3.79 1.015.368.252.796.07.796-.335 0-.164-.038-.23-.203-.367-.857-.702-2.96-1.267-4.735-1.267-.598 0-.653.01-.758.12ZM176.348 40.518c-.116.137-.138.208-.116.34.05.236.165.329.61.499.626.246 1.428.674 1.697.91.138.126.253.197.253.17 0-.126-.489-.768-.901-1.184-.934-.944-1.247-1.092-1.543-.735ZM166.333 41.466a3.3 3.3 0 0 0-1.087.538l-.225.175h.637c.489 0 .692.022.879.099.422.175.747 0 .747-.406 0-.411-.368-.565-.951-.406ZM168.195 41.702c-.214.214-.22.406-.016.609.137.142.192.153.769.192 1.593.093 3.043.493 3.949 1.08.401.263.615.29.818.099.204-.192.182-.455-.06-.686-.752-.707-2.73-1.31-4.68-1.425l-.615-.039-.165.17ZM175.891 42.168c-.137.143-.165.455-.049.603.033.05.335.203.664.34.687.286 1.181.549 1.544.823.137.104.247.17.247.148 0-.082-.39-.614-.698-.949-.175-.186-.51-.51-.747-.718-.368-.324-.45-.373-.631-.373-.149 0-.247.038-.33.126ZM165.928 43.281c-.379.088-.879.335-1.143.56l-.192.164.467-.027c.445-.028.587-.006 1.142.159.203.055.258.055.385-.017.357-.197.346-.696-.022-.85-.215-.087-.231-.087-.637.011ZM167.86 43.342c-.329.115-.444.548-.203.773.099.093.236.131.676.175 1.637.165 2.944.565 3.878 1.19.307.203.511.307.631.307.325.011.528-.318.396-.63-.061-.148-.687-.609-1.137-.84-.385-.191-1.187-.47-1.785-.624-.802-.209-2.263-.417-2.456-.351ZM175.391 43.994c-.198.165-.231.433-.071.62.049.06.34.214.642.34.698.285 1.308.62 1.577.86.291.264.269.105-.05-.323-.499-.68-1.554-1.64-1.801-1.64-.072 0-.203.066-.297.143ZM165.06 45.14a2.482 2.482 0 0 0-.797.346l-.258.159.527.033c.401.022.599.06.835.17.17.076.39.142.483.142.242 0 .44-.214.44-.466a.464.464 0 0 0-.132-.329c-.115-.12-.17-.137-.489-.132-.198 0-.472.039-.609.077ZM167.174 45.36c-.252.246-.126.696.209.762.066.011.418.05.78.088 1.549.142 2.829.543 3.774 1.179.318.208.5.241.692.104.335-.23.253-.587-.203-.894-.951-.647-2.252-1.08-3.867-1.294-.956-.12-1.22-.115-1.385.055ZM174.941 45.787a.605.605 0 0 0-.214.417c0 .197.241.379.851.63.703.291 1.296.626 1.554.873l.182.175-.061-.164c-.088-.23-.28-.478-.791-1.01-.675-.701-1.049-.992-1.258-.992a.5.5 0 0 0-.263.071ZM164.543 46.495c-.335.301-.522 1.574-.34 2.292.049.197.142.466.208.603.171.351.676.834 1.093 1.042l.352.175-.368-.334c-.264-.241-.423-.444-.549-.708-.165-.328-.182-.41-.182-.86 0-.565.149-1.08.418-1.448.203-.285.214-.56.022-.746a.477.477 0 0 0-.654-.016ZM166.394 46.785c-.143.099-.259.39-.368.922-.303 1.458.263 2.763 1.455 3.339.593.285.731.307.335.05-.774-.505-1.159-1.103-1.203-1.881a2.827 2.827 0 0 1 .341-1.569c.214-.384.23-.493.11-.718-.121-.236-.44-.307-.67-.143ZM168.427 47.306c-.28.11-.566 1.026-.571 1.794-.006.811.192 1.349.681 1.87.45.471 1.274.888 2.016 1.02.159.027.137.01-.116-.1-1.263-.559-1.856-1.244-1.906-2.204-.027-.537.066-.921.379-1.491.253-.455.253-.642.011-.834-.148-.115-.296-.131-.494-.055ZM174.584 47.58a.519.519 0 0 0-.297.45c0 .209.198.395.577.538.577.219 1.488.707 1.752.937.264.23.28.181.055-.17-.401-.641-1.681-1.831-1.933-1.804a.578.578 0 0 0-.154.05ZM176.512 50.586c-.033.021-.143.175-.247.34-.33.515-.692.91-1.082 1.162-.511.334-.797.439-1.28.46l-.406.017-.121.565c-.302 1.447-.918 2.956-1.615 3.959-.423.609-.764.822-1.319.822-.433 0-.906-.197-1.373-.575a6.143 6.143 0 0 0-.368-.285c-.088-.055-.291.054-.291.153 0 .23.786.817 1.357 1.01.412.136.939.147 1.302.026.895-.307 1.977-2.166 2.581-4.463.105-.4.204-.735.209-.746.011-.005.203-.055.428-.099.775-.164 1.423-.586 2-1.316.412-.52.571-.828.494-.948-.071-.11-.187-.148-.269-.082ZM170.563 52.362c-.055.132-.198.483-.319.784l-.214.549-.028-.357c-.027-.35-.027-.356-.192-.356h-.165l-.011 1.398c-.005.768.006 1.371.017 1.333.016-.033.335-.812.708-1.722.709-1.744.736-1.86.44-1.86-.105 0-.154.05-.236.231Z"/><path d="M170.904 55.532c-.198.082-.445.416-.516.707-.187.784.313 1.382.856 1.02l.16-.104-.214-.039c-.308-.049-.38-.17-.336-.57.05-.466.171-.69.462-.833l.242-.121-.149-.06a.67.67 0 0 0-.505 0Z"/></svg>