<svg width="180" height="59" viewBox="0 0 180 59" fill="none" xmlns="http://www.w3.org/2000/svg">
<path d="M11.068 9.21768C9.1071 14.3667 7.49221 18.5561 7.48122 18.5342C7.47024 18.5123 6.05858 14.5148 4.34482 9.66185L1.2249 0.833351L0.609703 0.8169C0.274641 0.811417 0 0.8169 0 0.827867C0 0.866252 7.4208 21.8847 7.43728 21.9011C7.44277 21.9121 9.05217 17.7172 11.0131 12.5791C12.9686 7.4465 14.5889 3.21869 14.6054 3.1803C14.6219 3.1474 16.2478 7.34231 18.2087 12.5078C20.1751 17.6788 21.7955 21.8792 21.8175 21.8408C21.8395 21.7969 25.5251 11.5537 29.3097 1.00882L29.3811 0.805933H28.7659H28.1507L24.9649 9.66185C23.2127 14.5312 21.768 18.5178 21.7516 18.5178C21.7351 18.5178 20.1532 14.3887 18.2417 9.3438C16.3247 4.30443 14.7317 0.10404 14.6988 0.0163037C14.6384 -0.131752 14.3692 0.55369 11.068 9.21768Z" fill="#027223"/>
<path d="M148.444 0.674216C144.659 1.20064 141.589 3.51469 140.21 6.87061C139.699 8.12086 139.463 9.35466 139.463 10.8133C139.463 12.2554 139.699 13.5057 140.21 14.7505C141.523 17.9748 144.324 20.2121 147.894 20.881C148.652 21.0291 150.553 21.0839 151.366 20.9907C153.415 20.7494 155.271 20.0201 156.919 18.8138C157.463 18.4135 158.193 17.7993 158.193 17.7445C158.193 17.7225 158.001 17.5416 157.77 17.3442L157.353 16.9932L156.903 17.3661C154.898 19.055 152.607 19.8885 149.976 19.8885C145.011 19.8885 141.166 16.5381 140.671 11.7729C140.276 7.95635 142.182 4.43044 145.532 2.77989C146.422 2.34121 146.939 2.16025 147.79 1.9793C149.152 1.69415 150.646 1.68319 152.063 1.95736C153.706 2.27541 155.381 3.08697 156.738 4.22755C157.012 4.45237 157.243 4.63881 157.26 4.63881C157.276 4.63881 157.474 4.47431 157.699 4.26593C158.177 3.82725 158.199 3.90402 157.452 3.2789C155.859 1.95188 153.936 1.08 151.822 0.718085C151.064 0.591963 149.218 0.564546 148.444 0.674216Z" fill="#027223"/>
<path d="M32.4629 10.8409V20.8757H33.0396H33.6164V10.8409V0.805987H33.0396H32.4629V10.8409Z" fill="#027223"/>
<path d="M39.1641 10.8409V20.8757L46.3212 20.8648L53.4729 20.8483V20.2725V19.6968L46.9254 19.6803L40.3725 19.6694V10.2377V0.805987H39.7683H39.1641V10.8409Z" fill="#027223"/>
<path d="M57.0156 10.8409V20.8757L64.1728 20.8648L71.3244 20.8483V20.2725V19.6968L64.7495 19.6803L58.1691 19.6694V10.2377V0.805987H57.5924H57.0156V10.8409Z" fill="#027223"/>
<path d="M83.3372 10.8245L83.3536 20.8484H90.4943H97.635L97.6514 20.2562L97.6679 19.6694H91.0985H84.5346V10.2377V0.806061H83.9304H83.3262L83.3372 10.8245Z" fill="#027223"/>
<path d="M94.8999 0.926514C94.9658 0.9978 97.0915 3.37217 99.6347 6.20168L104.254 11.3507L104.265 16.0995L104.282 20.8482L104.875 20.8647L105.463 20.8811V16.1214L105.468 11.3617L109.972 6.34425C112.449 3.58603 114.575 1.21166 114.702 1.0636L114.921 0.805876H114.13H113.345L109.126 5.5272C105.496 9.57953 104.891 10.2321 104.82 10.1718C104.77 10.1334 102.854 8.01124 100.558 5.45592L96.383 0.805876H95.5865H94.79L94.8999 0.926514Z" fill="#027223"/>
<path d="M117.118 10.8244L117.135 20.8483H117.712H118.288L118.316 11.8334L118.343 2.81845L125.923 11.5866C130.092 16.4121 133.613 20.47 133.745 20.6125L133.987 20.8757H134.498H135.014V10.8409V0.805989H134.437H133.861V9.86479V18.9236L133.74 18.803C133.668 18.7372 130.142 14.6629 125.896 9.75512L118.179 0.833406L117.64 0.816956L117.107 0.800505L117.118 10.8244Z" fill="#027223"/>
<path d="M161.873 10.8409V20.8757H162.45H163.027V15.6938V10.5118H170.442H177.857L177.868 15.6773L177.885 20.8483H178.461H179.038L179.055 10.8244L179.066 0.805987H178.461H177.857V5.05573V9.30547H170.442H163.027V5.05573V0.805987H162.45H161.873V10.8409Z" fill="#027223"/>
<path d="M148.773 32.5063C146.422 32.7476 144.219 33.7456 142.56 35.3139C141.094 36.7012 140.088 38.5162 139.649 40.589C139.457 41.4883 139.402 43.1827 139.539 44.1259C140.039 47.5586 142.055 50.3607 145.092 51.8303C146.658 52.5925 148.13 52.916 149.981 52.916C152.458 52.916 154.491 52.3073 156.49 50.9748C157.138 50.5416 158.193 49.6972 158.193 49.6149C158.193 49.5656 157.457 48.9405 157.363 48.9021C157.33 48.8911 157.226 48.9569 157.133 49.0501C156.836 49.3298 155.946 49.9823 155.468 50.2675C153.777 51.2929 152.068 51.748 149.965 51.748C147.284 51.7425 144.977 50.8323 143.225 49.0885C141.061 46.9225 140.171 43.7585 140.846 40.6219C141.495 37.6005 143.774 35.1055 146.784 34.1185C149.196 33.3343 152.074 33.5098 154.392 34.5846C155.221 34.9739 156.226 35.6319 156.918 36.2461C157.078 36.3886 157.226 36.5038 157.248 36.5038C157.27 36.5038 157.473 36.3338 157.698 36.1199L158.11 35.7361L157.808 35.4619C155.446 33.2904 152.013 32.1718 148.773 32.5063Z" fill="#027223"/>
<path d="M120.266 32.561C118.414 32.709 116.734 33.2355 115.652 34.0086C115.207 34.3212 114.597 34.9737 114.344 35.4069C113.993 36.0156 113.855 36.5311 113.822 37.3646C113.795 38.2584 113.883 38.719 114.229 39.4099C114.97 40.8905 116.734 41.9104 119.908 42.6891C120.408 42.8152 121.617 43.1113 122.6 43.3526C124.44 43.8022 125.412 44.0929 126.121 44.3999C127.445 44.9757 128.186 45.7215 128.428 46.703C128.543 47.1911 128.521 48.0849 128.384 48.54C127.906 50.0644 126.368 51.1008 123.946 51.534C123.309 51.6492 123.067 51.6656 121.721 51.6601C120.458 51.6601 120.09 51.6437 119.469 51.545C117.135 51.1776 115.305 50.536 113.531 49.4558L113.339 49.3351L113.02 49.7957C112.845 50.0535 112.718 50.2838 112.735 50.3167C112.757 50.3441 112.977 50.4922 113.224 50.6402C115.36 51.9234 118.024 52.6856 120.919 52.8391C125.05 53.0639 128.175 51.8137 129.268 49.4996C129.592 48.8087 129.658 48.4852 129.658 47.5256C129.658 46.7853 129.642 46.6208 129.532 46.2643C129.329 45.6173 129.043 45.1293 128.587 44.6577C127.609 43.6268 126.154 42.9852 123.177 42.2668C122.424 42.0804 121.249 41.7953 120.568 41.6308C118.002 41.0111 116.613 40.4024 115.761 39.536C114.69 38.4558 114.723 36.553 115.822 35.4344C116.816 34.4254 118.48 33.8496 120.782 33.7125C123.506 33.5535 126.099 34.2389 128.318 35.6976L128.455 35.7908L128.801 35.3247C128.988 35.067 129.131 34.8367 129.114 34.8092C129.054 34.716 128.131 34.1841 127.483 33.877C125.226 32.7968 122.792 32.3526 120.266 32.561Z" fill="#027223"/>
<path d="M171.239 32.5777C170.892 32.6873 170.7 32.8025 170.365 33.1041C169.827 33.5976 169.179 34.7327 169.179 35.1933C169.179 35.4565 169.382 35.6484 169.657 35.643C169.964 35.632 170.058 35.4949 170.145 34.9082C170.31 33.795 170.706 33.0438 171.321 32.6599C171.59 32.4899 171.574 32.4735 171.239 32.5777Z" fill="#027223"/>
<path d="M0.109985 33.1861V33.7071H31.3367H62.5634V35.5715V37.4359H31.3367H0.104492L0.120971 37.9404L0.137449 38.4503L31.3532 38.4668L62.5634 38.4778V40.3422V42.2066H31.3367H0.109985V42.7001V43.1936H31.3367H62.5634V45.058V46.9224L31.3532 46.9334L0.137449 46.9498L0.120971 47.4543L0.104492 47.9643H31.3367H62.5634V49.8287V51.6931H31.3367H0.104492L0.120971 52.1976L0.137449 52.7075L33.2207 52.724L66.2985 52.735V44.0874V35.4344L70.9564 44.3561C73.516 49.2639 75.6363 53.2778 75.6637 53.2778C75.6967 53.2833 77.8224 49.2694 80.3876 44.3671L85.0565 35.4563L85.0729 44.0929L85.0839 52.735H85.6607H86.2374V42.7001V32.6597L85.7101 32.6762L85.1883 32.6926L80.448 41.7569C77.8444 46.736 75.6967 50.8267 75.6802 50.8431C75.6637 50.8596 73.516 46.7744 70.907 41.7679L66.1667 32.6652H33.1383H0.109985V33.1861ZM64.6506 35.5715V37.4359H64.2112H63.7718V35.5715V33.7071H64.2112H64.6506V35.5715ZM64.6506 40.3422V42.2066H64.2112H63.7718V40.3422V38.4778H64.2112H64.6506V40.3422ZM64.6506 45.058V46.9224H64.2112H63.7718V45.058V43.1936H64.2112H64.6506V45.058ZM64.6506 49.8287V51.6931H64.2112H63.7718V49.8287V47.9643H64.2112H64.6506V49.8287Z" fill="#027223"/>
<path d="M91.4223 32.7419C91.4059 32.7858 91.4059 35.5056 91.4168 38.7848C91.4333 44.0545 91.4498 44.8276 91.5322 45.387C91.7409 46.8127 91.9936 47.6736 92.4989 48.7045C93.8337 51.4572 96.5087 52.8994 100.271 52.8994C104.841 52.8994 107.785 50.7663 108.758 46.7414C109.109 45.2828 109.104 45.4089 109.126 38.7354L109.148 32.6652H108.543H107.939L107.917 38.708C107.895 44.9812 107.895 44.9867 107.654 46.1821C107.352 47.6736 106.731 48.9074 105.825 49.8067C105.292 50.3386 104.869 50.6292 104.122 50.9857C102.897 51.5669 101.123 51.8356 99.3924 51.6985C95.3717 51.375 93.2789 49.3077 92.7131 45.1128C92.6692 44.8002 92.6417 42.7055 92.6253 38.6532L92.6033 32.6652H92.0265C91.5871 32.6652 91.4443 32.6816 91.4223 32.7419Z" fill="#027223"/>
<path d="M133.86 42.7V52.7349H134.437H135.014V42.7V32.6651H134.437H133.86V42.7Z" fill="#027223"/>
<path d="M169.075 32.8078C168.718 32.934 168.476 33.1039 168.13 33.4659C167.537 34.0965 167.108 34.8806 167.169 35.2151C167.213 35.4454 167.383 35.5715 167.641 35.5715C167.949 35.5715 168.059 35.4125 168.157 34.8148C168.322 33.8497 168.712 33.1697 169.322 32.7914C169.465 32.7036 169.36 32.7091 169.075 32.8078Z" fill="#027223"/>
<path d="M173.299 32.8298C172.837 32.9285 172.464 33.1917 172.107 33.6687C171.783 34.1074 171.409 34.8806 171.409 35.1109C171.409 35.3577 171.612 35.5715 171.849 35.5715C172.228 35.5715 172.332 35.429 172.387 34.8148C172.48 33.8716 172.832 33.2081 173.403 32.912C173.661 32.7749 173.634 32.7585 173.299 32.8298Z" fill="#027223"/>
<path d="M175.918 33.6358C175.896 33.6522 175.88 33.729 175.88 33.7948C175.88 33.8935 175.94 33.9538 176.116 34.0415C177.11 34.5405 177.901 35.1821 178.511 35.9827C178.972 36.5914 179.456 37.6278 179.588 38.2968C179.648 38.6093 179.999 38.5819 179.999 38.2639C179.999 38.0226 179.593 36.9259 179.346 36.4927C178.692 35.3466 177.643 34.3431 176.501 33.7674C176.166 33.6029 175.99 33.559 175.918 33.6358Z" fill="#027223"/>
<path d="M167.47 36.1419C167.097 36.2735 166.586 36.5806 166.405 36.778C166.301 36.8932 166.301 36.8932 166.548 36.8493C166.932 36.778 167.536 36.8054 167.822 36.9042C168.053 36.9864 168.108 36.9864 168.272 36.9151C168.602 36.7835 168.668 36.4271 168.415 36.1694C168.212 35.9719 167.976 35.961 167.47 36.1419Z" fill="#027223"/>
<path d="M169.519 36.098C169.453 36.1583 169.382 36.2899 169.365 36.3996C169.338 36.5531 169.36 36.6244 169.47 36.7505C169.601 36.9095 169.607 36.9095 170.447 36.9534C172.2 37.0411 173.265 37.3263 174.507 38.0392C174.737 38.1762 174.924 38.1433 175.1 37.9514C175.429 37.5785 175.1 37.2111 174.029 36.7505C173.045 36.3283 171.815 36.076 170.497 36.0267C169.717 35.9993 169.634 36.0048 169.519 36.098Z" fill="#027223"/>
<path d="M167.119 37.8966C166.712 38.0282 165.894 38.5217 165.883 38.6478C165.883 38.6698 165.987 38.6643 166.119 38.6369C166.443 38.5765 166.915 38.582 167.174 38.6478C167.294 38.6807 167.492 38.7191 167.619 38.7356C167.816 38.7575 167.86 38.741 167.987 38.5875C168.19 38.3462 168.168 38.0775 167.921 37.8911C167.805 37.8034 167.399 37.8088 167.119 37.8966Z" fill="#027223"/>
<path d="M169.124 37.9842C168.976 38.1323 168.937 38.3352 169.025 38.5107C169.135 38.7464 169.311 38.8068 169.904 38.8068C171.354 38.8068 172.963 39.1961 173.914 39.7719C174.315 40.0131 174.534 40.0296 174.716 39.8212C174.858 39.6567 174.869 39.4319 174.754 39.2564C174.633 39.0919 174.029 38.7519 173.43 38.5161C172.464 38.1268 171.041 37.8746 169.86 37.8746C169.311 37.8746 169.223 37.8855 169.124 37.9842Z" fill="#027223"/>
<path d="M176.989 38.4613C176.902 38.4942 176.759 38.7684 176.759 38.9109C176.759 39.1029 176.995 39.2893 177.5 39.4922C178.192 39.7719 178.714 40.057 179.049 40.3257C179.555 40.737 179.187 40.1338 178.495 39.4154C177.808 38.7081 177.445 38.4229 177.237 38.4284C177.138 38.4284 177.028 38.4448 176.989 38.4613Z" fill="#027223"/>
<path d="M166.707 39.7335C166.317 39.8596 165.905 40.0735 165.669 40.2709L165.482 40.4299L166.015 40.408C166.455 40.386 166.608 40.4025 166.9 40.5012C167.301 40.6383 167.482 40.6163 167.641 40.4134C167.8 40.2106 167.784 39.9802 167.592 39.7883C167.399 39.5964 167.169 39.5854 166.707 39.7335Z" fill="#027223"/>
<path d="M168.591 39.9145C168.427 40.101 168.405 40.2161 168.487 40.419C168.591 40.6658 168.756 40.7096 169.701 40.748C171.206 40.8029 172.645 41.1922 173.491 41.7625C173.859 42.0147 174.287 41.8338 174.287 41.428C174.287 41.2635 174.249 41.1977 174.084 41.0606C173.227 40.3587 171.124 39.7939 169.349 39.7939C168.751 39.7939 168.696 39.8049 168.591 39.9145Z" fill="#027223"/>
<path d="M176.348 40.5178C176.232 40.6549 176.21 40.7262 176.232 40.8578C176.282 41.0936 176.397 41.1868 176.842 41.3568C177.468 41.6035 178.27 42.0313 178.539 42.267C178.677 42.3932 178.792 42.4645 178.792 42.437C178.792 42.3109 178.303 41.6693 177.891 41.2526C176.957 40.3094 176.644 40.1614 176.348 40.5178Z" fill="#027223"/>
<path d="M166.333 41.4663C165.954 41.5705 165.52 41.7844 165.246 42.0037L165.021 42.1792H165.658C166.147 42.1792 166.35 42.2011 166.537 42.2779C166.959 42.4534 167.284 42.2779 167.284 41.8721C167.284 41.4608 166.916 41.3073 166.333 41.4663Z" fill="#027223"/>
<path d="M168.195 41.7022C167.981 41.9161 167.975 42.108 168.179 42.3109C168.316 42.4535 168.371 42.4644 168.948 42.5028C170.541 42.5961 171.991 42.9963 172.897 43.5831C173.298 43.8463 173.512 43.8737 173.715 43.6818C173.919 43.4899 173.897 43.2267 173.655 42.9963C172.903 42.289 170.925 41.6858 168.975 41.5706L168.36 41.5322L168.195 41.7022Z" fill="#027223"/>
<path d="M175.891 42.1682C175.754 42.3108 175.726 42.6233 175.842 42.7714C175.875 42.8208 176.177 42.9743 176.506 43.1114C177.193 43.3965 177.687 43.6597 178.05 43.9339C178.187 44.0381 178.297 44.1039 178.297 44.082C178.297 43.9997 177.907 43.4678 177.599 43.1333C177.424 42.9469 177.089 42.6233 176.852 42.415C176.484 42.0914 176.402 42.0421 176.221 42.0421C176.072 42.0421 175.974 42.0805 175.891 42.1682Z" fill="#027223"/>
<path d="M165.928 43.2813C165.549 43.3691 165.049 43.6158 164.785 43.8406L164.593 44.0051L165.06 43.9777C165.505 43.9503 165.647 43.9722 166.202 44.1368C166.405 44.1916 166.46 44.1916 166.587 44.1203C166.944 43.9229 166.933 43.4239 166.565 43.2704C166.35 43.1826 166.334 43.1826 165.928 43.2813Z" fill="#027223"/>
<path d="M167.86 43.3417C167.531 43.4568 167.416 43.89 167.657 44.1149C167.756 44.2081 167.893 44.2465 168.333 44.2903C169.97 44.4548 171.277 44.8551 172.211 45.4803C172.518 45.6831 172.722 45.7873 172.842 45.7873C173.167 45.7983 173.37 45.4693 173.238 45.1567C173.177 45.0087 172.551 44.5481 172.101 44.3177C171.716 44.1258 170.914 43.8462 170.316 43.6926C169.514 43.4842 168.053 43.2759 167.86 43.3417Z" fill="#027223"/>
<path d="M175.391 43.9942C175.193 44.1587 175.16 44.4274 175.32 44.6138C175.369 44.6741 175.66 44.8277 175.962 44.9538C176.66 45.2389 177.27 45.5734 177.539 45.8147C177.83 46.0779 177.808 45.9189 177.489 45.4912C176.99 44.8112 175.935 43.8516 175.688 43.8516C175.616 43.8516 175.485 43.9174 175.391 43.9942Z" fill="#027223"/>
<path d="M165.06 45.1403C164.702 45.239 164.554 45.3048 164.263 45.4857L164.005 45.6448L164.532 45.6777C164.933 45.6996 165.131 45.738 165.367 45.8477C165.537 45.9244 165.757 45.9902 165.85 45.9902C166.092 45.9902 166.29 45.7764 166.29 45.5241C166.29 45.398 166.246 45.2883 166.158 45.1951C166.043 45.0745 165.988 45.058 165.669 45.0635C165.471 45.0635 165.197 45.1019 165.06 45.1403Z" fill="#027223"/>
<path d="M167.174 45.3598C166.922 45.6065 167.048 46.0562 167.383 46.122C167.449 46.133 167.801 46.1713 168.163 46.2097C169.712 46.3523 170.992 46.7526 171.937 47.3887C172.255 47.5971 172.437 47.63 172.629 47.4929C172.964 47.2626 172.882 46.9061 172.426 46.5991C171.475 45.952 170.174 45.5188 168.559 45.3049C167.603 45.1843 167.339 45.1898 167.174 45.3598Z" fill="#027223"/>
<path d="M174.941 45.7874C174.825 45.8751 174.727 46.067 174.727 46.2041C174.727 46.4015 174.968 46.5825 175.578 46.8347C176.281 47.1254 176.874 47.4598 177.132 47.7066L177.314 47.8821L177.253 47.7176C177.165 47.4873 176.973 47.2405 176.462 46.7086C175.787 46.0067 175.413 45.7161 175.204 45.7161C175.106 45.7161 174.99 45.749 174.941 45.7874Z" fill="#027223"/>
<path d="M164.543 46.4948C164.208 46.7964 164.021 48.0685 164.203 48.7869C164.252 48.9843 164.345 49.253 164.411 49.3901C164.582 49.741 165.087 50.2236 165.504 50.4319L165.856 50.6074L165.488 50.2729C165.224 50.0317 165.065 49.8288 164.939 49.5655C164.774 49.2365 164.757 49.1543 164.757 48.7046C164.757 48.1398 164.906 47.6244 165.175 47.257C165.378 46.9718 165.389 46.6977 165.197 46.5112C165.021 46.3303 164.735 46.3303 164.543 46.4948Z" fill="#027223"/>
<path d="M166.394 46.7853C166.251 46.884 166.135 47.1746 166.026 47.7065C165.723 49.1652 166.289 50.4702 167.481 51.046C168.074 51.3312 168.212 51.3531 167.816 51.0954C167.042 50.5909 166.657 49.9932 166.613 49.2145C166.58 48.6442 166.69 48.1233 166.954 47.6462C167.168 47.2624 167.184 47.1527 167.064 46.9279C166.943 46.6921 166.624 46.6208 166.394 46.7853Z" fill="#027223"/>
<path d="M168.427 47.3064C168.147 47.4161 167.861 48.3318 167.856 49.0995C167.85 49.9111 168.048 50.4485 168.537 50.9694C168.987 51.441 169.811 51.8577 170.553 51.9893C170.712 52.0168 170.69 52.0003 170.437 51.8906C169.174 51.3313 168.581 50.6459 168.531 49.6862C168.504 49.1489 168.597 48.765 168.91 48.1947C169.163 47.7396 169.163 47.5532 168.921 47.3612C168.773 47.2461 168.625 47.2296 168.427 47.3064Z" fill="#027223"/>
<path d="M174.584 47.5805C174.419 47.6463 174.287 47.8492 174.287 48.0302C174.287 48.2385 174.485 48.425 174.864 48.5676C175.441 48.7869 176.352 49.2749 176.616 49.5052C176.88 49.7356 176.896 49.6862 176.671 49.3353C176.27 48.6937 174.99 47.5038 174.738 47.5312C174.716 47.5312 174.644 47.5531 174.584 47.5805Z" fill="#027223"/>
<path d="M176.512 50.5855C176.479 50.6074 176.369 50.761 176.265 50.9255C175.935 51.4409 175.573 51.8357 175.183 52.088C174.672 52.4225 174.386 52.5267 173.903 52.5486L173.497 52.565L173.376 53.1298C173.074 54.5775 172.458 56.0855 171.761 57.089C171.338 57.6976 170.997 57.9115 170.442 57.9115C170.009 57.9115 169.536 57.7141 169.069 57.3357C168.905 57.1986 168.734 57.0725 168.701 57.0506C168.613 56.9957 168.41 57.1054 168.41 57.2041C168.41 57.4344 169.196 58.0212 169.767 58.2131C170.179 58.3502 170.706 58.3611 171.069 58.2405C171.964 57.9334 173.046 56.0745 173.65 53.7769C173.755 53.3766 173.854 53.0421 173.859 53.0311C173.87 53.0257 174.062 52.9763 174.287 52.9324C175.062 52.7679 175.71 52.3457 176.287 51.6164C176.699 51.0955 176.858 50.7884 176.781 50.6677C176.71 50.5581 176.594 50.5197 176.512 50.5855Z" fill="#027223"/>
<path d="M170.563 52.3622C170.508 52.4938 170.365 52.8447 170.244 53.1463L170.03 53.6947L170.002 53.3382C169.975 52.9873 169.975 52.9818 169.81 52.9818H169.645L169.634 54.3801C169.629 55.1478 169.64 55.751 169.651 55.7126C169.667 55.6797 169.986 54.9011 170.359 53.9908C171.068 52.247 171.095 52.1319 170.799 52.1319C170.694 52.1319 170.645 52.1812 170.563 52.3622Z" fill="#027223"/>
<path d="M170.904 55.5316C170.706 55.6139 170.459 55.9484 170.388 56.239C170.201 57.0231 170.701 57.6208 171.244 57.2589L171.404 57.1547L171.19 57.1164C170.882 57.067 170.81 56.9464 170.854 56.5461C170.904 56.08 171.025 55.8551 171.316 55.7126L171.558 55.5919L171.409 55.5316C171.233 55.4658 171.063 55.4658 170.904 55.5316Z" fill="#027223"/>
</svg>
