<svg fill="none" xmlns="http://www.w3.org/2000/svg">
<path d="M114.626 1.03073C109.143 2.76854 106.097 4.59323 100.787 9.3722C92.2577 17.1923 81.9873 35.1786 81.9873 42.4774C81.9873 46.6482 85.2077 49.6893 89.5596 49.6024C94.4337 49.4287 95.9133 47.2564 97.3059 37.9591C99.917 20.3204 106.184 8.41641 115.932 2.33409C120.197 -0.359515 119.936 -0.620186 114.626 1.03073Z" fill="#BDE9C9"/>
<path d="M80.333 4.68016C74.6756 6.67864 70.8459 9.37224 65.3626 15.107C55.9625 25.0994 49.1736 37.5247 50.131 42.825C50.8273 46.4744 53.5255 48.4729 57.6162 48.4729C62.4903 48.4729 64.2311 45.9531 65.7978 36.482C68.4089 21.1893 74.5885 10.4149 84.2497 4.41949C86.5127 3.02924 84.859 3.11613 80.333 4.68016Z" fill="#BDE9C9"/>
<path d="M147.271 5.02772C139.96 6.59175 134.041 10.7625 128.384 18.3219C123.249 25.2732 117.33 37.5247 117.33 41.1741C117.33 45.0842 120.55 48.4729 124.293 48.4729C130.299 48.4729 131.952 46.2138 132.823 36.482C134.302 21.5369 139.873 11.0232 148.925 6.33108C153.015 4.15882 152.58 3.89815 147.271 5.02772Z" fill="#BDE9C9"/>
<path d="M188.791 17.8C188.443 18.0607 188.182 19.2772 188.182 20.3198C188.182 21.8839 189.139 22.8397 191.924 24.2299C207.678 32.1369 220.211 42.3031 229.873 54.9891C237.184 64.6339 244.843 81.0562 246.932 91.6568C247.889 96.6096 253.46 96.1751 253.46 91.1355C253.46 87.3123 247.019 69.9342 243.102 63.0699C232.745 44.9098 216.121 29.0089 198.017 19.8854C192.708 17.2787 189.922 16.5836 188.791 17.8Z" fill="#BDE9C9"/>
<path d="M54.9255 57.5088C49.007 59.5941 40.9125 64.46 38.0403 67.588C36.3866 69.4127 36.3866 69.4127 40.3032 68.7176C46.3959 67.588 55.97 68.0225 60.4959 69.5865C64.1515 70.8899 65.0219 70.8899 67.633 69.7603C72.8553 67.6749 73.8997 62.0271 69.896 57.9432C66.6756 54.8152 62.933 54.6414 54.9255 57.5088Z" fill="#BDE9C9"/>
<path d="M87.3854 56.8143C86.3409 57.77 85.2095 59.8554 84.9483 61.5932C84.5132 64.0262 84.8613 65.1557 86.6021 67.1542C88.691 69.674 88.778 69.674 102.095 70.3691C129.86 71.7594 146.745 76.2777 166.415 87.5734C170.071 89.7457 173.03 89.2244 175.815 86.1832C181.038 80.2746 175.815 74.453 158.843 67.1542C143.263 60.4636 123.767 56.4667 102.878 55.6847C90.5187 55.2502 89.2132 55.3371 87.3854 56.8143Z" fill="#BDE9C9"/>
<path d="M49.3491 85.3143C42.9083 87.3996 29.9397 95.2198 29.7656 97.2182C29.7656 97.5658 31.4193 97.4789 33.5082 97.0444C38.6434 96.0887 46.1287 96.1755 50.2194 97.2182C52.1343 97.7396 55.2676 98.3478 57.2695 98.6085C60.4028 98.956 61.0991 98.6954 63.101 96.2624C66.3214 92.4393 65.9732 88.1816 62.0565 85.2274C60.2287 83.8371 53.788 83.924 49.3491 85.3143Z" fill="#BDE9C9"/>
<path d="M81.1171 86.7037C78.7671 89.0498 78.1579 92.2647 79.5505 95.0452C81.2912 98.7815 84.0764 99.7373 93.4764 99.7373C116.454 99.7373 141.956 105.907 157.014 115.03C163.368 118.853 166.849 119.114 169.721 115.812C171.984 113.205 172.158 109.643 170.331 106.862C168.416 104.256 158.842 98.8684 149.354 95.1321C134.036 88.9629 111.493 84.9659 92.7801 84.9659C84.0764 84.9659 82.6838 85.1397 81.1171 86.7037Z" fill="#BDE9C9"/>
<path d="M205.757 94.2638C204.365 94.7851 202.102 99.1296 202.102 101.389C202.102 104.43 205.844 107.384 213.852 110.599C224.818 115.031 233.087 119.549 238.396 123.806C246.404 130.323 240.572 120.765 229.605 109.383C218.726 98.1738 212.981 93.6555 209.674 93.7424C208.107 93.7424 206.366 94.0031 205.757 94.2638Z" fill="#BDE9C9"/>
<path d="M42.8205 114.423C36.6408 116.421 30.113 119.81 26.3704 122.938L23.4111 125.458L31.8538 125.11C38.8168 124.763 41.2538 125.023 45.8668 126.587C52.2205 128.76 55.0928 128.412 57.6169 125.197C60.1409 121.982 59.8798 118.333 56.8335 115.292C53.7872 112.25 50.1316 112.077 42.8205 114.423Z" fill="#BDE9C9"/>
<path d="M72.678 117.29C70.0669 120.244 69.7187 122.069 71.0243 125.284C72.678 129.194 75.2891 129.889 90.2596 130.497C114.108 131.366 136.912 137.536 150.315 146.572C156.147 150.569 162.936 147.702 162.936 141.272C162.936 138.665 162.327 137.622 159.715 135.45C146.138 124.328 112.802 115.379 84.6892 115.379C75.2021 115.379 74.3317 115.552 72.678 117.29Z" fill="#BDE9C9"/>
<path d="M195.573 126.848C193.745 129.02 193.397 130.15 193.745 132.235C194.529 135.971 196.356 137.448 203.407 140.142C213.329 144.052 226.036 150.829 230.301 154.566C232.477 156.564 234.305 157.694 234.305 157.259C234.305 155.261 226.558 145.095 220.031 138.491C205.234 123.546 200.273 121.2 195.573 126.848Z" fill="#BDE9C9"/>
<path d="M36.9084 141.879C30.9028 143.53 24.0269 146.918 19.675 150.394L16.1064 153.175H26.2028C33.9491 153.175 37.1695 153.522 40.1288 154.739C46.8307 157.519 51.9659 154.739 51.9659 148.309C51.9659 141.792 46.1344 139.359 36.9084 141.879Z" fill="#BDE9C9"/>
<path d="M66.4087 145.616C63.0143 149.005 62.9272 152.046 66.1476 155.261C68.3236 157.52 69.1939 157.694 78.3329 158.302C103.574 159.78 126.552 166.123 140.913 175.42C147.267 179.591 150.661 180.025 153.881 176.984C157.102 173.943 156.754 169.772 152.924 166.123C141 154.914 109.666 145.356 78.7681 143.531L69.0199 142.923L66.4087 145.616Z" fill="#BDE9C9"/>
<path d="M188.344 153.002C186.168 155.261 185.732 160.213 187.56 162.559C188.083 163.342 192.87 165.774 198.092 167.947C208.972 172.465 216.805 176.636 222.549 180.98C224.725 182.631 226.466 183.674 226.466 183.326C226.466 182.023 220.286 173.595 215.412 168.294C212.627 165.34 207.318 160.213 203.575 156.912C197.744 151.785 196.438 151.003 193.566 151.003C191.216 151.003 189.649 151.611 188.344 153.002Z" fill="#BDE9C9"/>
<path d="M30.4626 170.64C24.457 172.03 16.5366 175.941 12.3588 179.503L9.3125 182.11L16.7107 181.675C23.7607 181.241 26.0237 181.588 34.8145 184.195C38.0349 185.064 38.9052 185.064 40.9071 183.934C46.5645 180.806 46.3905 172.899 40.559 170.466C37.1645 169.076 36.9034 169.076 30.4626 170.64Z" fill="#BDE9C9"/>
<path d="M61.1036 171.596C55.8813 173.421 54.0535 180.285 57.8832 183.848C59.4499 185.325 61.6258 185.933 68.5888 186.628C94.526 189.235 115.241 195.578 130.037 205.483C134.911 208.698 138.132 210.349 140.047 210.349C145.182 210.523 148.402 205.31 146.313 200.357C145.356 198.011 135.434 190.712 128.296 187.063C122.204 184.022 109.496 179.59 100.009 177.157C87.3019 173.855 64.1499 170.554 61.1036 171.596Z" fill="#BDE9C9"/>
<path d="M180.429 181.936C177.295 184.543 176.773 188.8 179.297 191.755C180.081 192.711 184.694 195.143 189.481 197.142C200.534 201.66 210.196 206.961 214.46 210.784C219.073 214.954 218.725 212.435 213.677 205.657C205.757 194.883 189.045 179.677 185.129 179.677C183.997 179.677 181.908 180.72 180.429 181.936Z" fill="#BDE9C9"/>
<path d="M16.7112 200.096C11.0538 201.66 8.70375 202.703 4.09076 205.57L0 208.09L8.3556 208.611C14.7093 208.959 17.8427 209.567 21.5853 211.305C24.2834 212.522 27.7649 213.564 29.2446 213.564C33.0742 213.564 36.2076 210.175 36.2076 206.179C36.2076 204.18 35.5113 202.442 34.1187 200.965C32.2909 199.054 31.4205 198.793 26.3723 198.88C23.239 198.88 18.8871 199.488 16.7112 200.096Z" fill="#BDE9C9"/>
<path d="M50.2244 203.572C46.2207 207.482 48.2226 214.607 53.5319 215.65C54.5763 215.823 60.1467 216.432 65.8912 217.04C90.4357 219.299 110.715 225.642 125.686 235.721C130.734 239.023 133.606 239.544 136.653 237.372C141.962 233.723 140.656 228.075 133.432 223.209C118.375 212.956 97.7469 206.092 72.1579 202.703C57.0134 200.791 52.8356 200.878 50.2244 203.572Z" fill="#BDE9C9"/>
<path d="M173.289 210.349C171.461 211.739 169.895 214.781 169.895 216.953C169.895 220.081 173.724 222.948 183.385 226.945C194.526 231.55 203.926 236.851 208.017 240.761L210.889 243.541L209.932 240.935C208.539 237.285 205.493 233.375 197.398 224.947C186.693 213.825 180.774 209.22 177.467 209.22C175.9 209.22 174.072 209.741 173.289 210.349Z" fill="#BDE9C9"/>
<path d="M8.52976 221.558C3.22048 226.337 0.261203 246.495 3.13344 257.878C3.91678 261.006 5.39641 265.264 6.44086 267.436C9.13902 272.997 17.1465 280.643 23.7613 283.945L29.3317 286.726L23.5002 281.425C19.3224 277.602 16.7983 274.387 14.7965 270.216C12.1853 265.003 11.9242 263.7 11.9242 256.575C11.9242 247.625 14.2742 239.457 18.5391 233.636C21.7595 229.117 21.9335 224.773 18.8872 221.818C16.102 218.951 11.5761 218.951 8.52976 221.558Z" fill="#BDE9C9"/>
<path d="M37.8562 226.163C35.5932 227.727 33.7654 232.333 32.0247 240.761C27.2376 263.874 36.2025 284.554 55.0896 293.677C64.4896 298.195 66.6656 298.543 60.3989 294.459C48.1266 286.465 42.034 276.994 41.3377 264.656C40.8154 255.619 42.5562 247.365 46.734 239.805C50.1284 233.723 50.3896 231.985 48.4747 228.423C46.5599 224.686 41.5117 223.557 37.8562 226.163Z" fill="#BDE9C9"/>
<path d="M70.0703 234.417C65.6313 236.155 61.1054 250.666 61.0184 262.83C60.9313 275.69 64.0647 284.205 71.811 292.46C78.9481 299.933 92.0037 306.536 103.754 308.622C106.278 309.056 105.93 308.795 101.926 307.058C81.9074 298.195 72.5073 287.334 71.724 272.128C71.2888 263.612 72.7684 257.53 77.7296 248.494C81.7333 241.282 81.7333 238.327 77.9036 235.286C75.5536 233.462 73.2036 233.201 70.0703 234.417Z" fill="#BDE9C9"/>
<path d="M167.635 238.762C165.023 239.805 162.935 243.019 162.935 245.887C162.935 249.189 166.068 252.143 172.074 254.402C181.212 257.878 195.661 265.611 199.838 269.26C204.016 272.91 204.277 272.128 200.709 266.567C194.355 256.401 174.075 237.545 170.072 237.98C169.723 237.98 168.592 238.327 167.635 238.762Z" fill="#BDE9C9"/>
<path d="M198.18 286.378C197.658 286.726 195.917 289.159 194.263 291.766C189.041 299.933 183.297 306.189 177.117 310.186C169.023 315.487 164.497 317.138 156.837 317.485L150.396 317.746L148.482 326.695C143.695 349.635 133.946 373.529 122.893 389.43C116.191 399.075 110.794 402.464 102.004 402.464C95.1277 402.464 87.6425 399.336 80.2443 393.34C77.6332 391.168 74.935 389.17 74.4128 388.822C73.0202 387.953 69.7998 389.691 69.7998 391.255C69.7998 394.904 82.2462 404.202 91.2981 407.243C97.8259 409.415 106.181 409.589 111.926 407.677C126.113 402.811 143.259 373.356 152.834 336.949C154.487 330.606 156.054 325.305 156.141 325.131C156.315 325.045 159.361 324.263 162.93 323.567C175.202 320.961 185.473 314.27 194.612 302.714C201.139 294.459 203.663 289.593 202.445 287.682C201.313 285.944 199.486 285.336 198.18 286.378Z" fill="#BDE9C9"/>
<path d="M103.922 314.531C103.052 316.616 100.789 322.177 98.8738 326.956L95.4793 335.645L95.0441 329.997C94.6089 324.436 94.6089 324.349 91.9978 324.349H89.3867L89.2126 346.506C89.1256 358.671 89.2996 368.229 89.4737 367.621C89.7348 367.099 94.783 354.761 100.702 340.337C111.929 312.706 112.365 310.881 107.665 310.881C106.011 310.881 105.227 311.663 103.922 314.531Z" fill="#BDE9C9"/>
<path d="M109.317 364.753C106.183 366.056 102.267 371.357 101.135 375.962C98.1758 388.387 106.096 397.858 114.713 392.123L117.237 390.473L113.843 389.864C108.968 389.082 107.837 387.171 108.533 380.828C109.317 373.442 111.231 369.88 115.844 367.62L119.674 365.709L117.324 364.753C114.539 363.71 111.841 363.71 109.317 364.753Z" fill="#BDE9C9"/>
</svg>
