<svg width="1491" height="905" viewBox="0 0 1491 905" fill="none" xmlns="http://www.w3.org/2000/svg">
<path d="M809.256 36.7655C795.133 40.8057 786.457 50.5022 783.229 65.6528C782.018 72.3191 780.606 73.7332 773.746 76.1573C769.509 77.5714 764.263 80.3995 762.246 82.2176C758.614 85.4497 757.404 93.7321 759.825 99.9944C762.448 106.863 782.825 112.721 782.825 106.459C783.229 91.106 784.238 79.1874 785.448 77.3694C788.474 72.5211 847.59 70.7031 864.336 74.9453L873.617 77.1674L873.415 86.6618C873.213 91.712 872.608 98.1763 871.801 101.004C870.389 105.853 870.187 105.853 868.169 102.014C866.959 99.7924 865.345 94.1361 864.538 89.4899C862.722 78.3794 856.871 75.9553 831.449 76.1573C799.773 76.5613 791.299 81.6115 786.457 102.62C784.641 110.095 783.027 112.923 781.009 112.115C776.772 110.499 772.737 114.943 772.737 121.609C772.737 130.094 778.185 141.608 782.825 142.82C785.045 143.426 786.86 145.244 786.86 147.062C786.86 148.679 788.474 154.941 790.29 161.001C793.518 171.506 793.518 171.708 789.282 176.354C786.86 178.98 784.843 181.808 784.843 183.02C784.843 184.03 779.597 186.454 773.343 188.474C766.886 190.494 756.395 195.343 749.938 199.383C735.815 207.867 732.385 206.453 732.385 192.514C732.385 180.192 727.341 161.405 720.28 147.668C709.788 126.66 691.428 113.933 668.63 111.711C659.349 110.701 658.138 110.095 661.164 108.075C664.191 105.853 664.191 104.439 662.173 97.3682C651.884 63.2287 635.339 47.674 609.111 47.472C598.014 47.472 594.584 48.2801 587.724 52.9263C570.575 64.2388 563.311 94.1361 566.136 141.608L567.548 164.839L557.057 172.314C547.574 179.182 544.951 183.222 547.978 186.454C548.785 187.06 553.223 184.838 558.066 181.404C562.908 177.97 567.548 175.748 568.355 176.556C569.162 177.364 570.373 192.716 570.978 210.695C571.987 242.411 572.189 243.623 577.434 250.693C580.461 254.531 586.715 260.793 591.154 264.43C595.795 268.066 599.023 271.5 598.417 272.106C597.812 272.712 586.11 267.056 572.189 259.783C553.425 249.683 546.565 245.037 545.758 241.805C545.355 239.381 544.548 222.816 544.144 205.039C543.135 167.667 539.504 150.093 529.618 135.548C510.652 107.873 459.809 105.449 426.519 130.498L420.062 135.144L421.071 118.377C421.878 108.277 421.273 98.7823 419.861 94.9441C418.045 89.2879 418.045 88.6819 420.668 90.904C423.694 93.3281 428.334 112.115 427.729 119.791C427.124 126.862 427.729 128.478 429.747 125.245C436.203 115.145 428.133 82.4196 415.624 68.279C404.325 55.3504 395.851 51.7142 380.316 53.1283C363.771 54.7444 352.473 59.3906 344.806 68.0769C339.157 74.5412 338.753 76.1573 339.964 84.6417C340.569 89.6919 341.174 99.5903 340.973 106.459C340.771 113.529 342.789 127.266 345.21 137.366C347.833 148.274 349.043 156.355 347.833 157.365C346.824 158.375 335.525 163.829 322.613 169.485C309.7 175.344 296.989 182.212 294.568 184.838C289.524 190.292 285.892 205.847 287.708 213.523L289.121 218.574L282.261 214.937C277.62 212.513 270.962 211.301 261.681 211.099C248.971 211.099 247.558 210.695 245.137 206.049C241.304 199.383 241.304 192.918 244.935 190.09C253.006 183.424 249.778 167.465 238.277 155.345C234.847 151.911 232.023 147.466 232.023 145.648C232.023 143.83 229.803 137.77 227.181 132.114C210.233 95.7522 162.012 93.9341 144.258 129.084C141.433 134.74 141.029 138.78 142.038 149.285C142.845 156.759 143.652 166.859 144.056 171.91C144.459 183.828 152.933 200.797 158.784 201.605C162.214 202.211 164.232 205.241 167.662 215.543C170.083 222.816 174.521 231.502 177.548 234.936C182.39 240.391 184.609 241.199 195.908 242.007C213.461 243.017 228.189 237.36 239.891 225.24C247.155 217.564 249.172 216.554 252.4 218.17C257.444 220.998 257.243 228.27 251.997 238.977C245.339 252.309 227.584 282.812 226.575 282.812C225.97 282.812 220.926 278.57 215.277 273.52C209.628 268.47 197.724 260.591 188.645 256.147C172.907 248.067 172.302 248.067 164.433 250.693C129.327 263.016 112.178 379.777 136.187 443.814C143.451 462.802 149.302 471.287 167.46 488.862C175.934 497.144 185.013 507.85 187.434 512.497L191.671 520.981L185.82 532.697C177.144 549.464 174.925 561.383 175.127 589.866C175.127 617.743 177.346 636.934 184.609 674.71C191.267 708.849 194.092 717.94 198.329 718.748C207.206 720.566 213.864 682.992 213.864 632.288C213.864 591.684 210.636 566.231 202.162 539.768L196.11 521.183L203.171 514.921C213.259 506.234 223.347 501.588 226.374 504.618C227.584 505.83 238.277 520.375 249.979 536.738C266.927 560.171 272.375 566.635 276.006 566.433C278.427 566.433 280.445 567.443 280.445 569.059C280.445 579.362 302.033 606.027 310.305 606.027C312.726 606.027 316.156 611.683 322.411 626.43C332.095 649.661 332.701 653.903 326.446 656.327C310.911 662.185 270.761 699.961 261.278 717.536C251.392 735.918 254.015 763.796 270.761 817.732C276.612 836.519 278.427 845.205 277.015 846.619C273.182 850.458 247.76 852.276 214.873 851.064C172.706 849.65 144.258 852.478 129.126 860.154C123.073 863.184 117.827 866.82 117.424 868.436C116.818 870.456 118.432 869.85 122.669 866.82C136.994 856.72 142.24 855.912 208.82 854.7C271.971 853.488 278.427 852.68 281.05 845.609C281.656 843.993 279.033 833.287 275.401 821.974C264.102 787.027 260.067 769.452 258.857 750.261C257.444 726.626 260.673 719.152 281.857 696.931C295.375 682.588 320.797 660.569 320.797 663.195C320.797 663.599 319.384 667.033 317.569 670.468C314.542 676.326 314.341 684.81 315.349 743.191C316.56 814.5 319.183 837.529 326.648 845.003L330.683 849.043L350.455 839.953C383.342 824.6 394.439 822.378 413.808 827.429C432.168 832.277 434.589 830.459 433.177 812.682C432.37 802.985 429.747 795.107 421.071 776.926C410.378 754.503 409.974 753.493 414.413 753.493C430.957 753.493 452.949 695.315 456.984 640.772C458.598 618.147 460.414 614.511 471.511 612.895C480.388 611.683 498.95 612.895 505.205 615.319C508.029 616.329 508.029 616.935 505.406 619.561C501.573 623.197 501.573 635.318 505.406 680.366C508.635 719.556 511.863 734.504 520.942 752.887C531.232 774.098 548.179 789.855 560.487 789.855C566.136 789.855 574.812 780.36 576.224 772.28C578.04 762.584 576.022 745.009 572.189 737.939C569.162 732.484 569.162 732.686 568.961 747.635C568.961 764.604 566.136 769.654 556.451 769.654C539.504 769.654 526.793 740.565 519.731 685.82C516.301 659.963 513.679 622.187 515.091 622.187C516.705 622.187 555.241 638.348 572.996 646.631L590.145 654.711V707.637C590.347 761.978 593.373 797.733 600.435 821.57C604.067 834.499 608.304 835.509 609.918 823.994C612.137 807.43 604.47 704.405 598.216 668.245C595.996 655.115 595.996 650.469 598.216 639.56C604.672 608.855 623.839 574.715 646.234 554.514C658.542 543.202 681.139 530.677 693.042 528.253C698.893 527.243 699.499 527.849 710.797 546.232C733.596 583.604 748.123 597.34 771.325 603.401C782.623 606.431 786.255 606.633 796.141 604.411C812.686 600.977 823.581 595.118 835.686 582.796C853.239 565.221 869.38 533.304 869.582 515.931C869.582 510.477 868.775 509.466 863.327 508.254C852.836 506.234 847.186 510.477 841.739 524.617C830.44 554.11 803.405 563.201 777.983 545.626C767.895 538.556 752.763 522.597 746.105 511.891C734.201 492.902 712.21 432.905 712.21 419.572V412.906L722.903 414.32C738.438 416.542 773.343 416.34 776.772 414.118C779.395 412.3 779.395 411.896 776.772 410.078C768.904 405.23 767.895 404.22 768.904 403.21C769.509 402.604 778.387 403.412 788.474 405.23C812.282 409.27 820.151 408.664 819.949 402.402C819.747 398.16 819.949 397.958 824.993 401.19C827.818 403.008 837.3 410.078 845.774 416.946C857.476 426.037 861.915 431.087 863.529 436.339C866.959 448.056 865.748 463.61 860.503 480.175C852.836 504.416 852.634 503.81 872.205 506.436C901.46 510.477 922.846 521.789 931.723 538.152C937.575 548.858 935.759 584.816 927.083 636.328C917.399 694.103 916.188 722.384 921.837 753.493C930.916 800.965 940.601 832.277 946.25 832.277C949.68 832.277 948.469 821.368 941.408 787.431C931.925 741.979 929.504 725.01 932.127 722.384C935.153 719.354 978.128 741.777 989.225 752.079C997.699 760.16 998.304 761.372 1002.54 782.785C1008.59 812.076 1012.43 823.792 1016.87 826.216C1028.97 832.681 1024.13 794.703 1009.2 764.604C996.286 738.545 983.979 728.04 953.514 717.334C943.426 713.697 934.145 709.859 932.531 708.445C930.311 706.627 929.908 702.789 930.715 692.285C932.531 664.205 956.742 628.248 973.689 628.248C983.374 628.248 990.234 635.116 1011.01 666.225C1033.81 699.961 1047.74 715.112 1061.86 721.374C1070.74 725.414 1075.78 726.02 1094.54 726.222C1113.11 726.222 1118.35 725.414 1126.02 721.98C1137.92 716.526 1150.03 704.405 1155.68 692.487C1161.33 680.972 1166.17 655.923 1166.77 635.924C1167.18 621.177 1167.38 620.167 1171.62 620.167C1174.44 620.167 1178.68 616.733 1183.52 611.077C1187.55 606.027 1192.19 601.987 1193.61 601.987C1202.28 601.987 1204.91 628.854 1200.26 670.67C1198.25 688.648 1198.45 691.679 1201.48 696.123C1204.7 700.971 1204.5 702.587 1198.65 728.848C1186.14 786.017 1180.9 829.853 1186.34 833.287C1187.76 834.095 1195.02 835.307 1202.48 835.913C1215.2 836.721 1216.41 836.519 1222.26 831.065C1227.91 826.014 1229.12 822.984 1231.74 807.026C1240.01 756.927 1247.88 666.629 1243.84 666.629C1243.04 666.629 1239.2 670.064 1235.57 674.306C1228.51 682.588 1213.18 694.103 1211.36 692.487C1210.76 691.881 1215.8 687.032 1222.66 681.578C1252.32 658.145 1252.52 634.914 1223.47 607.845C1217.82 602.795 1209.34 595.926 1204.3 592.694C1199.46 589.462 1194.82 586.028 1194.21 585.018C1193.41 584.008 1192.19 567.645 1191.59 548.656C1189.77 502.396 1186.95 473.711 1182.91 461.792C1180.9 455.126 1176.26 448.258 1168.99 440.783L1158.3 429.673L1162.94 426.037C1175.65 415.936 1174.24 369.676 1160.11 337.759C1150.23 315.74 1134.49 303.417 1100.8 291.701C1085.26 286.449 1079.41 283.418 1079.41 280.994C1079.41 279.176 1082.03 273.116 1085.06 267.662C1089.1 260.389 1091.72 257.763 1094.54 257.965C1096.76 258.369 1104.43 259.379 1111.69 260.591C1129.04 263.218 1166.57 263.218 1181.5 260.389C1187.96 259.177 1197.44 255.945 1202.48 253.319L1211.36 248.269L1214.99 252.915C1220.04 259.379 1222.46 269.076 1223.87 287.863C1225.08 303.417 1224.68 305.235 1215.2 335.335C1209.55 352.506 1203.49 373.312 1201.48 381.595C1198.05 395.735 1196.84 397.554 1183.12 412.098C1174.84 420.785 1168.19 428.259 1168.19 429.067C1168.19 434.521 1185.13 421.795 1209.95 397.554C1226.9 381.191 1226.09 383.615 1228.31 333.315L1229.92 299.983L1239.2 280.792C1249.9 258.369 1259.58 244.229 1269.27 237.158C1277.14 231.502 1298.72 224.23 1308.21 224.23C1328.38 224.23 1349.36 237.764 1359.05 256.955C1369.14 276.954 1369.74 322.002 1360.46 358.97L1357.44 371.696H1349.36C1341.9 371.696 1341.29 371.292 1342.51 367.05C1345.94 354.122 1349.97 314.73 1348.96 304.427C1346.54 281.196 1333.83 262.208 1316.48 256.551C1310.43 254.531 1306.59 254.531 1297.71 256.551C1278.95 260.793 1264.22 278.974 1253.93 310.69C1246.27 334.123 1255.75 369.272 1274.51 385.635L1283.19 393.311L1278.75 397.149C1267.05 407.654 1260.19 441.389 1261.4 484.215C1262 512.093 1262 513.103 1257.97 513.103C1250.5 513.103 1212.57 523.203 1204.5 527.243C1195.62 531.687 1190.38 538.96 1194.41 541.384C1200.06 545.02 1242.43 532.091 1257.36 522.193C1261.6 519.365 1265.63 517.143 1266.64 517.143C1270.07 517.143 1274.51 524.617 1281.17 541.384C1289.44 562.797 1297.11 574.311 1306.19 578.554C1324.75 587.442 1340.89 576.735 1359.65 543.202L1366.11 531.687L1377.61 537.344C1417.36 556.535 1429.87 605.219 1424.62 719.758C1423.21 749.655 1422.6 774.502 1423.01 775.108C1425.63 777.532 1427.45 738.545 1427.45 680.77C1427.45 620.369 1427.24 616.127 1422.81 598.956C1413.73 564.211 1400.41 544.212 1379.83 535.122L1370.15 530.677L1376.2 523.203C1383.87 513.911 1390.12 497.144 1390.12 486.841C1390.12 480.781 1390.73 479.165 1392.94 479.973C1394.96 480.781 1396.37 478.357 1397.99 471.085C1406.66 430.077 1399.4 399.978 1378.01 387.857C1370.15 383.413 1366.51 382.807 1350.78 382.807C1328.79 383.009 1314.66 386.847 1298.12 397.554C1285.61 405.634 1271.89 420.785 1273.91 424.017C1274.71 425.027 1283.59 421.997 1294.08 416.946C1317.49 405.836 1329.39 403.816 1335.24 409.674C1339.88 414.32 1343.72 426.037 1343.72 435.733C1343.72 445.43 1346.74 451.692 1357.03 462.6L1366.11 472.297L1362.88 478.761C1358.04 488.256 1356.83 510.275 1360.46 521.183L1363.69 530.071L1355.42 544.818C1343.92 564.817 1332.62 575.725 1321.52 577.139C1304.78 579.362 1294.69 569.261 1282.78 537.95C1279.35 528.657 1274.51 519.365 1272.09 517.547C1260.79 508.456 1260.19 454.318 1271.08 417.754C1277.34 397.149 1287.02 390.887 1331.21 379.777C1335.85 378.565 1339.68 376.747 1339.68 375.535C1339.68 374.322 1342.91 373.918 1348.56 374.727C1356.22 375.939 1357.84 375.535 1359.65 372.1C1367.52 357.354 1372.57 297.963 1367.93 273.722C1364.09 253.319 1352.79 237.36 1335.65 228.674C1323.34 222.412 1321.52 221.806 1306.39 222.614C1273.91 223.826 1255.55 238.572 1237.79 277.156C1233.35 286.853 1229.12 294.731 1228.51 294.933C1227.91 294.933 1226.7 288.065 1226.09 279.782C1225.28 268.268 1223.67 262.41 1219.84 255.945C1213.58 245.845 1212.17 243.219 1208.34 235.34C1205.91 230.29 1179.08 211.099 1156.08 197.969C1153.66 196.555 1154.87 192.716 1162.13 175.344C1167.18 164.031 1173.03 152.719 1175.45 150.497C1191.39 135.346 1192.19 98.9843 1176.66 84.2377C1163.95 71.9151 1132.27 64.8448 1115.12 70.5011C1105.84 73.5312 1095.35 85.6517 1086.47 103.631C1077.8 121.205 1075.58 131.104 1080.02 134.336C1082.64 136.154 1083.04 138.982 1082.03 148.072L1080.82 159.385L1075.38 151.709C1058.23 128.074 1027.96 114.943 1004.96 121.205C993.462 124.235 975.909 141.608 966.426 159.587C959.768 171.91 959.365 173.93 959.365 191.302C959.365 205.039 958.759 210.089 956.943 210.089C955.329 210.089 954.321 212.917 954.321 217.564L954.119 225.24L951.496 219.18C948.268 211.705 937.776 205.847 904.89 192.918C878.661 182.616 865.546 176.354 865.546 174.334C865.546 173.728 866.555 167.061 867.766 159.789C869.783 148.477 871.196 145.446 877.45 140.194C883.907 134.336 884.714 132.922 884.714 123.427C884.714 113.933 885.117 112.923 889.758 111.711C897.424 109.893 899.846 107.065 899.846 99.9944C899.846 91.914 892.582 82.4196 883.705 78.7834C878.661 76.7633 877.652 75.1473 877.652 69.289C877.652 54.5423 868.775 42.8258 853.643 37.3715C843.958 33.9374 819.949 33.5334 809.256 36.7655ZM856.467 41.8157C868.169 47.876 872.003 53.1283 873.213 64.4408L874.02 74.3392L862.318 71.5111C848.397 68.279 826.809 67.8749 803.203 70.7031C793.72 71.7131 785.65 72.3191 785.246 71.7131C783.834 70.299 790.694 53.1283 794.527 48.2801C804.01 36.7656 839.318 33.1294 856.467 41.8157ZM628.681 54.7444C640.585 60.4006 648.05 69.693 654.708 86.4598C660.963 102.62 660.357 107.065 652.287 107.065C643.611 107.065 637.962 101.812 634.734 91.106C628.681 70.299 623.436 64.6428 610.725 64.6428C602.049 64.6428 594.382 70.5011 588.531 81.4095C584.9 88.6819 584.092 93.1261 584.092 112.115C584.092 129.084 584.9 135.952 587.522 141.002C590.751 147.264 590.751 148.072 587.119 156.153C576.022 181.202 582.478 222.412 602.856 256.551C603.865 258.167 606.69 267.662 609.111 277.762C613.953 297.559 625.251 323.618 631.909 330.689C635.743 334.931 642.199 337.355 664.796 343.213L672.867 345.233L673.27 376.747C673.472 394.119 674.279 409.876 674.884 412.098C676.7 417.552 673.875 417.148 660.156 410.482C633.322 397.352 609.716 364.424 607.698 337.355C606.891 326.648 607.497 324.628 612.137 319.174C622.023 307.256 617.181 305.639 600.838 315.336C553.627 343.213 529.618 363.818 522.556 382.807C512.872 409.068 510.047 424.421 509.643 450.076L509.442 474.923L515.898 480.781C523.766 487.852 546.364 493.306 569.162 493.71C578.04 493.71 585.101 494.316 585.101 494.922C585.101 499.972 598.014 577.341 600.233 586.432C604.268 602.391 604.268 603.199 596.4 619.157C585.505 641.176 586.715 640.772 576.224 622.995C560.487 595.926 555.846 581.988 549.995 544.414C543.741 505.022 541.521 494.922 538.293 494.922C535.872 494.922 536.276 497.144 545.153 552.09C548.583 572.897 550.802 590.472 550.197 591.28C549.592 591.886 545.758 591.684 541.925 591.078C537.083 590.068 534.46 588.25 533.451 585.22C529.012 570.675 515.898 539.364 514.284 539.364C513.275 539.364 512.468 541.788 512.468 544.616C512.468 553.1 504.196 585.826 502.178 585.826C501.169 585.826 494.713 584.21 488.055 582.392C474.336 578.554 474.941 580.776 481.397 557.545C483.616 549.464 485.029 537.142 485.029 525.223C485.231 507.244 484.625 504.82 478.572 492.296C473.932 483.003 468.686 476.135 461.019 469.469C450.528 460.58 449.923 459.57 449.923 450.48C449.923 441.591 442.659 400.988 437.615 380.787C431.966 358.364 426.922 345.435 424.097 345.435C419.861 345.435 421.676 356.546 433.984 405.634C439.633 428.259 443.87 447.046 443.265 447.652C441.852 449.268 403.316 434.723 399.281 431.087C394.641 427.047 390.605 413.714 386.57 389.877C382.737 367.656 380.316 329.881 382.132 320.184C383.544 313.114 383.947 312.71 389.798 313.922C400.29 315.942 412.597 311.296 424.905 300.589C432.168 294.125 437.817 290.893 440.44 291.297C442.861 291.701 447.703 295.943 451.335 300.993C471.914 329.274 483.616 337.557 498.95 334.325C510.047 331.901 522.152 323.618 527.398 314.528C533.653 304.023 538.697 283.62 538.697 268.672C538.697 262.612 539.504 256.551 540.311 255.339C543.337 250.895 554.636 253.925 576.426 265.238C588.935 271.5 600.031 276.752 601.242 276.752C606.084 276.752 602.453 270.692 590.952 259.985C574.206 244.027 572.996 240.391 572.996 205.645C572.996 189.686 572.189 175.546 571.18 173.93C570.171 172.314 567.952 171.708 565.732 172.516C562.302 173.526 562.302 173.324 565.934 170.697C569.768 167.667 569.969 165.445 569.364 133.73C568.759 97.7723 570.575 83.2276 577.233 69.289C585.707 51.9162 609.111 45.2499 628.681 54.7444ZM394.035 56.7644C403.518 59.3906 414.615 68.885 419.861 78.9854C424.905 88.8839 424.703 89.8939 419.255 84.8437C412.597 78.5814 400.492 76.1573 382.333 77.3694C363.57 78.7834 356.105 81.0055 348.64 88.2778L343.394 93.3281L342.183 87.4698C338.552 71.1071 353.684 59.5926 385.36 54.7444C385.965 54.5423 389.798 55.5524 394.035 56.7644ZM622.225 71.3091C624.848 73.9352 628.479 81.4095 630.295 87.6718C634.129 100.6 640.989 108.883 648.05 109.287C650.673 109.489 648.857 110.297 644.015 111.307C629.287 114.135 612.944 122.821 602.049 133.73L591.558 143.83L589.338 137.164C583.285 118.175 585.505 90.904 593.979 78.3794C602.049 66.2589 614.155 63.2287 622.225 71.3091ZM1149.02 73.7332C1173.43 80.1975 1184.33 92.722 1184.33 114.539C1184.33 126.256 1181.5 140.396 1178.68 142.214C1177.87 142.618 1177.06 137.366 1177.06 130.498C1176.66 111.913 1173.03 106.661 1155.07 97.7723C1146.19 93.3281 1135.9 89.8939 1129.85 89.2879C1119.76 88.2778 1119.36 88.4799 1110.08 98.1763C1104.83 103.631 1097.37 113.529 1093.53 119.993C1085.46 133.932 1081.43 136.356 1081.43 127.872C1081.43 121.407 1093.33 95.1461 1100.8 85.4497C1111.09 71.7131 1126.82 68.0769 1149.02 73.7332ZM779.194 105.449C776.369 108.277 763.255 102.014 761.641 97.1662C759.421 90.0959 762.649 84.6417 771.325 80.8035L779.799 76.9653L780.404 90.2979C780.808 97.5703 780.202 104.439 779.194 105.449ZM855.257 81.4095C858.888 83.2276 860.906 86.8638 862.924 94.9441C864.538 101.004 866.959 107.065 868.573 108.277C871.801 110.701 870.389 129.69 864.941 159.991C862.318 174.334 862.318 175.95 865.546 178.778C867.362 180.394 883.907 187.868 902.065 195.141C948.873 213.927 946.452 211.907 953.917 237.966C963.4 271.298 963.4 270.49 954.724 279.984C949.882 285.439 935.153 295.337 913.767 307.66C872.406 331.497 861.108 337.153 860.099 334.123C857.274 326.042 840.932 305.437 832.66 299.781C798.361 276.146 743.079 282.408 708.78 313.922L697.683 323.82L699.297 315.942C699.902 311.7 702.323 303.215 704.543 297.559C706.762 291.701 709.587 280.388 710.797 272.308C713.017 259.379 713.824 257.561 718.262 256.551C725.324 254.935 730.368 243.623 731.578 226.856C733.192 204.029 724.92 201.403 720.078 223.22C717.657 234.532 714.227 236.35 714.227 226.452C714.227 223.422 713.218 218.17 712.21 214.735L709.99 208.675L660.963 208.877C633.725 209.079 611.128 208.473 610.321 207.867C609.716 207.059 610.119 202.615 611.33 198.171C614.76 185.444 618.997 184.434 645.427 188.676C665.603 192.11 670.849 192.11 693.042 188.878C700.508 187.666 701.92 188.272 712.008 196.959C719.069 203.019 724.315 206.049 727.14 205.645C729.561 205.241 732.385 206.453 733.798 208.069C735.815 210.695 736.824 210.695 741.868 207.463C751.553 201.201 775.562 190.09 781.816 188.676C787.667 187.666 788.071 188.07 791.299 197.565C795.94 210.695 801.185 216.958 811.677 222.008C828.221 230.088 848.8 225.24 857.274 211.301C863.125 201.807 865.143 183.626 860.906 180.192C858.283 177.97 855.459 178.778 844.16 184.636C835.283 189.484 828.019 191.908 822.774 191.908C814.703 191.908 813.493 191.1 799.168 174.334C793.72 168.071 788.676 145.042 788.273 123.225C787.869 106.257 788.474 102.822 792.913 93.9341C797.352 85.0457 798.966 83.6316 807.036 81.4095C819.344 78.3794 849.204 78.1774 855.257 81.4095ZM893.995 90.7019C901.661 100.398 896.819 109.085 883.503 109.085H875.634V100.196C875.634 95.3482 876.24 88.6819 876.845 85.0457L878.056 78.7834L884.108 82.4196C887.538 84.2377 891.977 88.0758 893.995 90.7019ZM410.58 82.8236C414.211 84.4397 414.211 84.6417 409.369 84.6417C406.544 84.8437 399.886 86.2578 394.641 88.0758C387.781 90.4999 382.333 90.904 375.675 89.8939C370.43 89.0859 362.964 88.4799 359.131 88.2778H352.069L360.14 84.6417C368.815 80.6015 402.711 79.3894 410.58 82.8236ZM414.615 90.2979C419.861 95.3482 418.246 134.538 412.194 149.487C409.773 155.547 407.15 163.223 406.544 166.253C405.737 170.495 403.316 172.92 397.869 175.142C385.965 179.99 371.237 177.364 356.508 167.061C351.262 163.627 348.034 168.677 343.797 187.06C340.771 199.585 340.569 203.827 342.587 214.331C346.824 237.36 365.184 269.48 377.693 275.944C382.132 278.166 386.369 278.772 393.027 277.762L402.307 276.348L395.851 281.802C392.421 284.631 387.377 291.701 384.553 297.559L379.71 308.064L375.272 297.963C355.903 252.713 342.385 237.764 310.709 227.26C291.743 220.998 289.524 218.17 291.138 202.211C292.551 187.666 297.191 183.828 327.455 170.697C339.762 165.243 350.859 160.193 351.868 159.385C353.078 158.375 352.069 151.305 349.447 141.81C344.201 122.417 343.596 100.802 348.236 96.1562C353.078 91.308 360.14 90.2979 370.833 92.924C379.509 95.1461 382.132 94.9441 393.632 91.308C409.974 86.2578 410.58 86.2578 414.615 90.2979ZM1150.23 98.1763C1156.68 101.004 1164.35 106.257 1167.58 109.691C1170.61 113.327 1171.21 114.539 1168.99 112.519C1162.94 107.469 1137.92 97.1662 1131.67 96.9642C1125.61 96.9642 1109.88 106.863 1102.61 115.549C1099.79 118.781 1097.57 121.003 1097.57 120.195C1097.57 117.367 1109.88 101.206 1116.13 95.9542C1121.58 91.308 1123.8 90.7019 1130.66 91.914C1135.3 92.52 1143.97 95.3482 1150.23 98.1763ZM1149.02 105.449C1164.55 111.307 1173.03 119.387 1171.21 126.66C1170.61 129.488 1169.6 137.164 1169.19 143.224C1168.59 150.699 1165.56 160.799 1160.11 172.718C1155.68 182.616 1152.04 191.908 1152.04 193.322C1152.04 196.151 1128.04 204.029 1119.56 204.029C1098.98 204.029 1085.46 183.828 1085.46 153.325V139.588L1097.57 125.852C1120.37 99.9944 1127.63 97.1662 1149.02 105.449ZM203.373 110.903C207.408 112.923 213.057 117.165 215.882 120.195L220.926 125.649L212.856 121.003C206.399 117.165 201.759 116.155 190.662 116.155C165.846 116.155 151.521 127.67 149.705 148.679C149.302 154.739 148.091 159.587 147.284 159.587C144.863 159.587 143.652 141.406 145.468 134.134C151.521 112.317 182.188 99.9944 203.373 110.903ZM881.687 111.711C881.687 111.913 879.871 113.731 877.652 115.751C873.819 118.983 873.617 118.983 873.617 115.145C873.617 112.519 875.029 111.105 877.652 111.105C879.871 111.105 881.687 111.307 881.687 111.711ZM684.165 118.175C702.727 124.639 716.85 141.406 724.517 165.849C730.771 186.05 728.754 188.07 720.28 169.889C696.069 118.983 672.059 111.913 613.751 138.578C605.479 142.416 598.216 145.042 597.61 144.436C595.593 142.618 611.935 127.064 620.409 122.619C638.971 112.923 664.191 111.105 684.165 118.175ZM504.398 120.195C521.547 125.852 534.056 143.224 538.697 167.667C541.723 183.626 541.118 185.848 536.477 175.748C525.784 152.113 498.748 137.366 466.669 137.366C446.493 137.366 437.212 139.992 428.133 148.477C420.869 155.143 420.668 155.547 420.869 170.091C421.071 181.808 422.483 188.676 428.133 203.625C434.791 220.998 434.992 222.21 430.756 218.17C423.896 211.907 413.808 191.706 411.588 180.394C409.974 172.112 410.58 168.273 414.817 155.143C419.054 142.416 421.475 138.376 427.729 133.326C448.51 116.761 478.371 111.711 504.398 120.195ZM782.422 118.579C784.238 122.619 782.422 141.406 780.606 138.376C777.983 134.336 774.957 120.801 776.167 117.973C777.58 114.135 780.404 114.337 782.422 118.579ZM881.889 127.872C878.863 136.962 873.617 141.81 873.617 135.548C873.617 133.124 875.029 127.872 876.643 123.831C878.863 118.579 880.477 117.165 881.889 118.579C883.503 120.195 883.503 122.821 881.889 127.872ZM209.628 122.821C213.461 124.639 217.093 127.468 217.496 129.084C218.101 130.7 215.882 129.892 212.25 127.266C207.005 123.225 204.382 122.821 194.899 123.831C179.162 125.447 162.416 133.528 157.372 141.81C154.144 147.062 153.337 147.668 153.337 144.436C153.337 137.164 161.205 127.064 170.083 123.225C181.179 118.175 200.347 117.973 209.628 122.821ZM1043.09 128.68C1064.28 138.982 1086.88 168.273 1085.06 183.222C1084.46 188.474 1084.05 188.272 1079.01 178.576C1068.31 158.173 1052.98 150.497 1026.55 151.911C998.102 153.527 980.146 164.435 972.479 185.242C968.04 197.363 967.435 212.917 971.268 225.24C975.707 240.391 983.172 232.512 980.953 214.735C980.146 206.857 980.549 205.847 990.839 195.545C996.892 189.484 1003.35 182.212 1005.16 179.384C1009.6 172.718 1026.35 166.859 1041.48 166.859C1051.57 166.657 1054.19 167.667 1064.68 174.738C1078.81 184.434 1082.64 191.504 1085.26 213.523C1088.69 240.593 1082.84 263.622 1069.32 275.742C1066.9 277.964 1063.07 283.418 1060.85 287.863C1053.18 303.013 1044.91 309.478 1029.78 312.104C1012.02 314.932 993.462 304.023 984.584 285.641C982.163 280.792 979.339 276.752 978.128 276.752C976.918 276.752 976.514 273.924 977.321 269.48C979.339 258.975 977.119 251.097 971.672 249.683C966.426 248.471 959.163 233.522 956.943 219.584C955.733 211.907 955.935 211.503 960.172 212.715C964.61 213.725 964.812 213.523 963.198 206.453C958.154 184.838 963.601 164.839 980.347 144.032C998.506 121.003 1017.47 116.357 1043.09 128.68ZM686.183 130.498C698.692 136.76 716.446 163.627 725.526 189.484C730.771 204.635 727.543 206.251 714.429 194.939C701.516 183.828 695.867 182.212 686.788 186.656C678.112 190.696 670.042 190.696 651.278 186.656C628.681 182.01 617.585 182.212 613.146 187.464C608.102 193.727 605.277 209.079 605.075 231.3C605.075 241.805 604.268 250.491 603.26 250.491C601.04 250.491 591.759 228.27 588.128 214.331C584.092 198.575 584.294 173.324 588.733 161.001C591.961 151.709 592.768 151.103 608.304 144.234C650.673 125.447 670.042 122.013 686.183 130.498ZM213.057 131.508C217.9 135.952 222.944 134.942 221.128 129.892C220.523 128.276 220.724 127.67 221.935 128.276C222.944 128.882 225.365 134.538 227.382 141.002C229.198 147.668 233.233 154.739 236.461 157.971C246.751 167.869 248.971 179.788 241.707 188.878L237.47 194.333L241.707 204.231L245.742 214.129L237.47 223.018C219.514 242.209 187.03 245.845 176.943 229.886C173.916 225.442 163.425 194.131 156.363 169.485C153.337 158.981 153.538 157.365 156.565 149.689C162.012 136.154 177.548 127.67 197.522 127.468C205.996 127.266 209.628 128.276 213.057 131.508ZM1173.63 139.79C1173.03 141.406 1172.42 140.8 1172.42 138.578C1172.22 136.356 1172.83 135.144 1173.43 135.952C1174.04 136.558 1174.24 138.376 1173.63 139.79ZM487.248 142.416C503.187 146.658 517.512 154.739 525.784 164.233C532.442 172.314 538.697 186.858 538.697 194.939C538.697 198.575 537.688 199.181 532.644 198.373C528.003 197.767 526.591 196.555 526.591 192.918C526.591 185.444 523.161 178.172 517.915 174.94C515.494 173.122 502.784 169.485 490.073 166.657C477.564 163.829 461.826 158.779 455.168 155.547C445.887 150.699 442.659 150.093 439.431 151.709C433.782 154.739 427.931 168.879 427.729 179.788C427.527 186.656 427.124 187.868 425.712 184.838C422.685 177.97 423.492 158.779 426.922 153.931C436.001 141.002 462.23 135.952 487.248 142.416ZM449.923 156.557C452.949 160.193 470.502 165.647 495.318 170.899C515.494 174.94 522.556 179.788 522.556 189.484C522.556 196.151 526.188 201.403 531.433 202.413C537.486 203.423 537.486 207.463 531.433 213.523C524.574 220.392 522.152 231.906 524.574 248.673C528.609 276.55 515.898 300.185 495.924 302.407C481.397 304.023 471.713 293.519 463.037 266.652C458.598 252.713 456.379 249.885 450.528 251.097C447.098 251.703 446.291 251.299 447.905 249.481C449.317 247.865 449.116 244.835 447.098 240.189C445.686 236.35 444.677 232.31 445.282 231.098C445.686 229.886 442.861 222.21 439.028 214.129C435.194 206.049 431.361 195.545 430.554 190.696C427.527 169.485 440.843 145.648 449.923 156.557ZM1058.02 160.395C1062.87 163.223 1069.12 168.677 1071.74 172.314L1076.38 178.778L1071.34 175.142C1060.85 167.667 1049.95 163.627 1040.07 163.829C1025.54 163.829 1008.8 170.091 1002.74 177.768C999.918 181.404 993.462 188.474 988.216 193.524L978.532 203.019V217.16C978.532 236.552 973.891 231.704 972.882 211.301C971.672 188.07 978.33 173.122 993.865 163.425C1011.82 152.315 1041.88 150.901 1058.02 160.395ZM152.328 165.647C152.933 166.657 152.53 167.667 151.521 167.667C150.31 167.667 149.302 166.657 149.302 165.647C149.302 164.435 149.705 163.627 150.109 163.627C150.714 163.627 151.723 164.435 152.328 165.647ZM369.421 177.768C378.903 180.596 395.448 180.192 401.5 177.162C406.544 174.738 406.544 174.738 410.781 188.272C415.018 201.403 431.764 228.27 436.001 228.27C437.01 228.27 439.835 232.512 442.256 237.562L446.896 246.653L441.852 250.491C426.519 262.208 399.281 274.53 387.983 274.53C380.719 274.732 378.5 273.52 372.044 267.056C350.254 244.633 340.367 210.291 347.833 182.414C351.868 167.667 352.675 166.657 357.92 171.506C360.543 173.93 365.587 176.758 369.421 177.768ZM157.372 183.626C159.995 193.322 159.995 198.575 157.17 196.757C153.942 194.737 147.284 179.586 147.284 173.93C147.284 169.283 147.486 169.081 151.319 172.718C153.538 174.738 156.161 179.586 157.372 183.626ZM558.873 176.96C557.259 178.576 554.232 181 552.013 182.01C548.986 183.424 549.39 182.616 553.425 178.98C559.68 173.122 562.908 171.91 558.873 176.96ZM801.387 181.808C803.203 185.04 807.843 189.686 811.475 191.908C819.949 197.161 828.019 196.151 844.16 187.868C850.616 184.636 856.871 181.808 857.678 181.808C858.687 181.808 859.494 185.848 859.494 190.898C859.494 204.029 853.037 215.745 843.757 219.584C833.467 223.826 815.914 222.412 807.843 216.352C796.747 208.271 788.474 187.868 792.913 179.586C795.738 174.334 797.352 174.738 801.387 181.808ZM1096.16 197.363C1102.41 204.029 1104.23 204.837 1115.12 205.645C1122.79 206.251 1131.47 205.241 1138.12 203.423C1148.01 200.393 1149.02 200.393 1151.24 203.827C1152.65 205.645 1159.51 210.695 1166.57 215.139C1184.73 226.048 1206.52 242.815 1206.52 245.643C1206.52 250.289 1189.37 256.349 1169.6 258.773C1148.21 261.399 1105.44 258.773 1096.96 254.329C1093.33 252.309 1092.12 252.713 1088.09 257.359C1085.46 260.389 1083.45 262.612 1083.45 262.208C1083.45 261.804 1084.86 257.157 1086.47 251.703C1090.1 239.987 1090.31 221.604 1087.28 205.443C1085.46 195.141 1085.87 189.888 1088.49 189.888C1089.1 189.888 1092.53 193.322 1096.16 197.363ZM1182.31 218.372C1194.41 226.048 1204.7 233.926 1205.31 235.744C1206.52 238.572 1206.12 238.572 1202.08 235.542C1199.46 233.724 1188.36 226.25 1177.26 218.776C1166.17 211.503 1156.28 204.635 1155.07 203.423C1150.43 198.575 1161.73 204.837 1182.31 218.372ZM707.771 212.513C708.78 213.927 710.394 219.786 711.201 225.644C712.411 235.34 716.648 242.613 718.868 238.977C719.473 238.168 720.885 232.108 722.499 225.644C725.929 209.887 728.35 209.281 728.35 224.028C728.35 236.754 723.508 252.309 719.473 252.713C718.262 252.915 715.841 253.117 714.227 253.319C710.999 253.521 708.78 260.389 708.376 270.692C708.174 274.53 705.35 285.439 702.122 294.933C698.692 304.225 696.069 315.336 696.069 319.578C696.069 323.82 693.849 331.699 691.227 336.951C675.288 368.666 675.086 411.088 690.823 445.43C699.297 464.014 721.894 484.821 724.719 476.741C725.122 475.529 728.754 482.397 732.789 491.892L740.052 509.062H735.21C728.754 509.062 708.578 516.133 702.122 520.779C699.297 522.799 691.63 526.031 684.972 528.051C660.156 535.526 631.102 560.373 614.962 587.846L607.497 600.37L604.47 589.664C600.838 577.543 594.786 542.394 590.952 512.497C588.531 494.114 588.733 492.7 592.163 490.074C595.593 487.65 595.593 486.235 593.373 472.499C588.935 444.824 582.882 422.199 580.057 422.199C577.031 422.199 577.233 426.643 582.075 466.641C583.487 478.357 584.092 488.458 583.689 489.266C582.277 491.892 556.653 491.084 541.925 487.852C514.889 482.195 509.643 475.125 511.661 447.45C512.872 428.461 516.503 411.29 523.968 388.867C528.407 375.535 531.03 371.09 539.504 362.606C554.232 348.061 611.33 309.882 611.33 314.73C611.33 315.74 609.918 317.76 608.304 319.174C600.838 325.436 603.058 344.829 613.751 367.656C624.646 390.281 657.331 418.158 673.068 418.158C677.507 418.158 677.507 418.158 676.7 383.211C676.095 364.222 675.893 347.455 675.893 346.041C675.893 344.627 669.235 341.597 661.366 339.375C637.76 332.507 634.331 330.487 627.672 318.972C620.611 306.447 609.716 274.53 609.312 264.632C609.111 260.793 608.909 247.259 609.111 234.734L609.312 212.109L632.111 213.119C649.866 214.129 684.972 212.715 703.332 210.291C704.543 210.291 706.56 211.301 707.771 212.513ZM537.688 221.604C536.881 227.058 535.872 243.623 535.67 258.571C535.267 279.378 534.056 288.873 530.828 298.973C524.372 319.578 510.45 331.295 492.696 331.295C481.801 331.295 473.327 325.032 459.002 306.043C443.466 285.641 438.624 284.429 425.106 296.751C415.018 306.245 404.527 311.094 395.044 311.094C385.561 311.094 383.746 309.276 385.763 301.801C388.79 289.883 417.439 266.45 439.431 257.965C453.353 252.511 455.168 253.117 459.204 265.036C469.493 296.549 482.809 309.68 500.161 305.033C508.231 302.811 518.117 293.721 523.766 282.812C526.995 276.752 527.6 271.904 526.995 249.077L526.591 222.412L532.039 217.362C535.065 214.533 537.89 212.109 538.495 212.109C538.898 212.109 538.495 216.352 537.688 221.604ZM291.743 223.422C324.63 240.391 335.929 251.097 349.043 276.348C357.92 293.519 363.368 300.589 371.842 306.043C376.684 309.074 377.491 310.892 376.886 316.952C376.281 323.618 375.272 324.628 364.579 330.083C357.517 333.517 349.245 336.143 344.403 336.143C336.332 336.345 335.727 335.941 331.49 327.254C328.867 322.002 327.051 314.124 326.85 308.67C326.85 297.155 325.235 292.913 321.402 292.913C318.981 292.913 318.577 294.327 319.788 299.377C320.595 303.013 321.806 313.316 322.613 322.406C323.621 335.537 324.832 340.183 329.271 346.647C340.166 362.404 352.877 402.604 353.684 423.007C354.087 434.319 353.885 434.723 347.429 437.349C341.174 440.177 340.771 439.975 339.157 435.733C335.929 427.249 334.718 418.966 336.938 422.199C338.753 424.825 339.157 424.825 340.973 422.199C343.999 417.956 341.376 396.139 335.727 376.141C323.42 333.719 302.437 309.478 272.576 303.013C238.681 295.943 201.154 314.528 185.416 346.647C179.767 358.162 179.162 360.788 179.767 375.131C180.776 397.554 190.662 417.148 211.04 437.955C233.839 460.984 249.778 481.185 246.348 482.397C244.734 483.003 241.102 485.629 238.479 488.256C234.242 492.498 233.637 494.518 234.646 502.598L235.654 512.093L231.619 506.436C229.4 503.406 225.768 500.982 223.145 500.982C218.303 500.982 202.566 510.275 197.925 515.729C195.504 518.759 194.496 517.951 187.838 507.446C183.601 501.184 175.127 491.488 168.872 486.235C143.652 464.822 131.95 435.531 128.117 384.827C123.476 324.224 146.073 252.511 169.881 252.511C178.355 252.511 200.952 265.036 214.47 276.954C220.724 282.61 226.777 286.651 227.786 286.045C231.216 283.822 255.83 239.583 258.453 230.896C260.673 223.22 260.471 221.806 257.243 218.17C253.611 214.129 253.813 214.129 263.699 214.129C271.971 214.129 277.419 215.947 291.743 223.422ZM542.732 235.34C542.732 241.401 541.925 246.451 540.714 246.451C538.495 246.451 537.89 232.512 539.907 227.462C542.127 222.008 542.732 223.826 542.732 235.34ZM334.92 241.603C345.815 248.875 367 281.196 372.245 298.973C375.272 309.276 359.333 290.691 351.666 274.732C346.42 264.026 340.166 255.541 330.683 246.047C316.762 232.108 318.174 230.492 334.92 241.603ZM969.452 252.511C973.891 254.127 974.496 255.541 974.496 263.622C974.496 272.308 969.654 280.792 964.61 280.792C963.601 280.792 960.979 281.398 958.961 282.004C956.136 282.812 956.54 282.004 960.172 278.772C965.014 274.53 965.216 274.126 962.794 260.995C961.584 253.521 959.97 245.239 959.365 242.411C958.356 238.572 958.961 238.977 961.18 244.027C962.794 247.461 966.628 251.501 969.452 252.511ZM1322.73 262.41C1331.21 267.662 1339.08 278.166 1343.11 289.883C1345.73 297.761 1346.14 304.023 1344.93 323.012C1344.32 335.941 1342.51 351.899 1341.09 358.566L1338.67 370.686L1322.33 372.908C1307.4 375.131 1293.28 379.979 1284.8 386.241C1281.98 388.261 1280.57 387.857 1275.92 383.817C1260.99 369.878 1250.7 338.163 1254.94 318.568C1257.56 305.235 1268.46 282.206 1276.33 272.914C1287.63 259.379 1309.82 254.531 1322.73 262.41ZM1078.2 275.54C1075.98 280.186 1073.16 282.812 1070.74 282.812C1067.31 282.812 1067.71 281.802 1073.56 275.136C1077.39 270.894 1080.62 267.46 1081.03 267.662C1081.43 268.066 1080.02 271.5 1078.2 275.54ZM982.365 288.267C997.901 318.366 1036.64 324.426 1056.81 299.781C1062.87 292.509 1063.27 292.307 1063.27 296.953C1063.07 314.326 1054.8 330.487 1042.89 337.153C1028.37 345.435 996.69 340.991 978.532 328.264C968.242 320.992 961.987 310.488 960.979 299.377C960.172 290.489 960.575 289.681 966.83 285.439C976.111 279.378 977.926 279.782 982.365 288.267ZM1072.15 286.045C1074.57 287.055 1075.38 290.085 1075.38 298.771C1075.38 333.921 1055.81 352.506 1018.88 352.304C989.427 352.102 965.821 336.951 956.54 312.508C951.698 299.377 951.092 289.883 954.926 288.267C956.54 287.661 957.347 290.085 957.549 296.953C957.75 320.79 982.163 340.789 1015.86 344.627C1045.31 348.061 1065.29 329.274 1065.29 297.963C1065.29 285.439 1066.3 283.822 1072.15 286.045ZM819.344 296.145C826.607 299.579 835.888 306.043 840.125 310.286C847.388 317.76 856.669 332.911 855.055 334.527C854.45 334.931 849.608 330.689 844.16 324.83C830.037 310.084 820.352 303.619 805.422 298.973C774.957 289.479 737.631 298.771 710.394 322.608C704.543 327.658 699.297 331.295 698.692 330.689C696.472 328.466 719.675 307.458 730.57 301.801C751.351 291.297 761.842 288.873 784.843 289.479C803.606 289.883 807.44 290.691 819.344 296.145ZM1100.19 294.731C1123.6 302.811 1133.08 308.064 1143.17 318.366C1154.06 329.679 1160.92 343.819 1164.96 364.02C1169.19 384.221 1169.19 410.28 1165.16 418.158C1160.11 428.057 1156.08 428.865 1142.56 422.805C1127.03 415.734 1101.81 414.118 1084.25 419.168C1028.77 435.329 997.094 488.862 978.33 597.946C974.093 622.187 973.488 624.006 968.847 625.218C961.382 627.036 943.627 646.025 937.373 658.751C926.276 681.78 923.048 703.597 929.908 709.859C932.127 711.879 942.215 716.526 952.303 720.162C974.093 728.04 987.006 736.322 996.286 748.443C1007.99 763.796 1020.9 799.551 1020.9 816.52C1020.9 835.711 1011.42 815.106 1005.77 783.593C1001.73 760.766 998.304 754.099 985.19 744.605C972.277 735.11 934.346 716.526 930.916 717.94C925.671 719.96 927.89 737.737 941.004 801.369C947.259 830.459 947.259 831.469 942.215 822.176C938.583 815.308 926.881 765.614 921.837 736.524C918.811 718.142 920.425 696.123 929.302 643.398C937.171 595.522 939.996 557.141 936.364 543.808C933.338 532.9 922.039 520.375 909.53 513.911C899.24 508.658 878.257 503.002 868.573 503.002C857.678 502.8 857.073 501.386 862.924 483.811C866.152 473.307 868.169 462.6 868.371 453.106C868.573 441.389 868.976 439.167 871.196 440.985C881.485 449.47 878.661 396.543 866.959 355.94L862.117 339.173L866.354 337.355C868.573 336.547 888.345 325.638 909.934 313.316L949.277 290.691L950.487 300.791C952.101 313.114 960.979 329.477 970.26 337.759C974.093 341.193 982.365 346.445 988.62 349.273C998.304 353.92 1002.34 354.526 1020.09 354.526C1038.66 354.526 1041.28 353.92 1052.17 348.465C1067.1 340.789 1074.97 329.274 1076.59 312.912C1078.4 294.529 1079.41 288.873 1081.43 288.873C1082.64 288.873 1090.91 291.499 1100.19 294.731ZM807.036 302.407C819.142 306.447 826.203 311.7 845.371 329.881C856.871 341.193 861.915 347.455 863.327 352.91C870.187 378.363 872.003 389.675 873.012 413.108L874.222 439.369L867.766 431.491C864.336 427.249 861.511 422.603 861.511 421.391C861.511 417.148 841.537 375.333 836.291 368.464C830.44 360.99 825.195 359.374 825.195 365.434C825.195 367.454 823.782 370.282 822.168 371.696C817.73 375.333 805.624 370.484 776.772 353.718C750.544 338.365 742.675 335.133 742.272 339.577C742.07 341.193 742.272 348.465 742.473 355.738C742.675 367.858 742.272 369.474 737.631 373.11C734.807 375.333 728.149 377.757 722.499 378.565C690.823 382.807 687.393 418.764 714.429 462.802C717.859 468.257 720.078 473.509 719.473 474.115C716.85 476.943 701.516 458.964 695.06 445.43C685.779 426.441 681.946 410.482 681.946 390.887C682.147 373.11 683.761 363.414 690.218 346.647C693.042 338.769 695.464 335.335 697.885 335.335C699.902 335.335 705.35 331.497 710.394 326.648C724.719 312.912 750.947 300.791 771.728 298.367C780.808 297.155 796.747 299.175 807.036 302.407ZM285.489 310.892C299.41 317.356 313.937 331.901 321.402 346.647C329.069 361.596 336.736 388.059 337.946 403.412L339.157 417.148L334.113 398.564C324.832 364.222 316.56 350.687 299.41 342.203C289.524 337.355 286.901 336.951 269.752 337.759C255.225 338.365 248.769 339.779 239.69 343.819C215.68 354.93 199.338 376.747 198.934 397.958C198.733 407.25 200.145 411.492 206.601 423.007C210.838 430.885 212.856 435.935 211.04 434.521C204.18 428.865 187.434 401.19 184.408 390.483C172.1 348.061 208.619 305.235 257.243 305.033C270.962 305.033 275.199 305.841 285.489 310.892ZM1223.67 365.434C1222.05 382.201 1219.63 385.635 1193.61 408.664L1179.28 421.189L1189.77 409.472C1196.63 401.998 1201.07 394.725 1202.48 389.271C1203.69 384.625 1208.94 366.242 1214.19 348.465L1223.67 316.144L1224.27 333.315C1224.68 342.809 1224.27 357.152 1223.67 365.434ZM335.727 339.981C339.157 342.405 350.859 339.577 364.982 333.113C372.044 329.881 377.895 327.254 378.298 327.254C378.5 327.254 379.307 338.365 379.912 351.899C381.123 378.161 385.158 404.22 390.605 421.795C393.228 429.673 395.649 433.309 399.886 435.531C409.167 440.379 438.422 450.884 443.466 451.288C446.695 451.49 447.905 452.702 447.905 456.54C447.905 459.974 451.537 465.025 459.607 472.701C476.151 488.458 480.994 499.366 481.801 522.597C482.406 538.152 481.599 544.414 477.362 559.565C474.537 569.665 472.116 578.756 472.116 579.564C472.116 581.18 479.379 583.402 497.941 587.846C504.196 589.462 505.003 589.058 507.424 583.2C508.836 579.564 511.257 570.069 512.67 561.989C515.696 544.616 516.1 545.222 525.582 572.695C528.81 581.584 532.644 590.068 534.258 591.28C536.074 592.694 540.916 593.906 545.153 593.906C552.013 593.906 552.82 593.502 552.82 588.654C552.82 584.816 557.057 591.482 565.934 609.461C573.197 623.804 580.864 637.338 582.882 639.156C586.715 642.792 587.119 642.59 590.952 636.126C593.373 632.288 595.189 628.45 595.189 627.44C595.189 626.43 595.795 626.026 596.4 626.632C597.61 627.844 593.172 652.489 591.759 652.489C591.356 652.489 585.908 649.863 579.452 646.631C573.197 643.398 557.864 636.53 545.758 631.278C533.451 626.228 517.915 619.157 510.854 615.723C499.152 610.067 496.933 609.663 479.581 610.471L460.818 611.077L461.625 606.027C462.028 603.199 460.414 591.886 458.195 580.978C455.774 569.867 454.361 560.575 454.765 560.171C455.168 559.565 456.177 561.989 456.984 565.423C457.589 568.655 459.607 572.493 461.423 573.907C464.046 576.129 465.055 575.927 467.476 572.695C472.923 565.221 465.256 543 456.782 541.788C454.16 541.384 451.335 538.152 449.116 533.102C433.984 498.962 394.641 490.074 346.017 509.466C333.911 514.315 327.253 518.557 319.384 526.435C305.463 540.172 303.042 549.06 308.691 564.009C312.525 573.907 316.762 600.168 314.139 597.946C311.516 595.522 298.2 561.989 296.384 553.1C289.726 522.597 319.183 492.094 364.579 481.993C411.185 471.691 437.615 484.821 459.809 529.061C471.511 552.09 476.151 555.322 476.151 539.768C475.95 506.234 454.16 466.035 428.334 452.096C412.395 443.41 390.202 437.551 372.245 437.551L356.105 437.349L356.912 428.865C358.122 412.3 341.982 356.142 333.104 346.647C328.464 341.597 324.832 332.709 324.832 326.648C325.034 323.214 326.043 324.022 329.271 330.285C331.49 334.729 334.516 338.971 335.727 339.981ZM291.945 342.405C310.104 347.859 323.42 366.444 330.078 395.735C333.911 412.098 332.701 413.512 328.06 398.362C322.613 381.191 310.911 359.98 303.647 354.324C291.743 345.233 265.111 348.667 236.663 362.606C228.795 366.444 219.312 373.11 215.882 377.151C209.628 384.221 209.426 385.231 210.435 396.745C211.04 403.614 213.864 415.936 216.689 424.017C219.514 432.299 221.531 439.571 221.128 439.975C220.724 440.379 216.487 434.117 211.645 426.239C200.347 406.846 198.934 394.725 206.601 378.969C221.128 349.273 259.462 332.709 291.945 342.405ZM777.58 357.556C793.115 366.444 808.65 374.12 812.282 374.929C821.159 376.545 827.212 374.322 827.212 369.272C827.212 362.606 831.853 366.242 838.914 378.969C846.178 391.493 857.476 417.148 857.476 420.583C857.476 421.593 853.239 418.966 847.993 414.724C820.151 391.695 795.94 378.969 812.887 396.341C822.168 405.836 818.738 407.25 795.133 403.412C784.036 401.392 772.536 399.978 769.711 399.978C763.456 399.978 763.053 404.624 769.307 409.068C773.544 412.098 771.728 412.3 741.465 411.694L709.183 411.088L709.587 420.179C709.788 427.855 713.824 442.602 721.289 463.61L722.701 467.651L719.271 463.61C717.254 461.388 712.613 452.904 708.578 444.824C703.13 433.107 701.315 426.643 700.508 415.532C700.104 407.452 700.709 398.564 701.92 395.533C704.744 388.261 714.025 382.605 726.333 380.989C734 379.979 737.228 378.363 741.465 373.312C746.509 367.252 746.912 365.838 745.702 354.122C744.693 344.425 745.096 341.395 746.912 341.395C748.324 341.395 762.246 348.667 777.58 357.556ZM299.007 355.132C311.112 363.01 321.2 383.009 329.876 415.128C332.701 426.239 335.929 437.349 336.938 439.571C338.35 443.41 337.543 444.42 330.481 447.652C301.226 460.782 273.989 513.305 277.015 550.676L278.024 563.605L272.173 555.929C268.945 551.888 260.673 540.778 253.409 531.485C238.681 512.295 234.646 501.386 239.084 492.7C240.698 489.872 244.33 486.639 247.356 486.033C251.795 484.821 254.216 486.235 262.488 493.912C272.173 502.8 274.594 504.214 277.015 501.79C281.05 497.548 264.708 480.781 256.637 480.781C254.418 480.781 247.962 475.125 240.698 466.237C229.602 453.106 227.786 449.47 221.128 428.461C217.093 415.532 213.259 400.786 212.654 395.331C211.242 386.039 211.645 385.433 219.514 377.757C239.69 358.768 284.884 345.839 299.007 355.132ZM438.826 400.584C441.651 413.512 443.87 425.431 443.668 426.845C443.466 431.087 427.931 371.09 426.72 361.596C425.712 352.506 425.712 352.506 429.747 364.626C431.966 371.292 436.001 387.453 438.826 400.584ZM1314.86 380.989C1305.18 383.615 1295.29 386.645 1293.28 387.857C1287.63 390.887 1288.23 387.453 1293.88 384.019C1300.34 379.979 1315.07 376.141 1324.55 376.141C1331.21 375.939 1329.59 376.949 1314.86 380.989ZM1379.43 392.301C1384.47 395.735 1389.31 401.392 1392.34 407.452C1396.58 415.936 1397.18 419.977 1397.18 440.379C1397.18 453.106 1396.37 466.237 1395.57 469.469L1393.95 475.327L1389.31 470.883C1384.47 466.439 1373.17 465.025 1370.75 468.863C1369.14 471.489 1354.81 458.156 1350.58 450.076C1348.96 447.046 1346.94 437.955 1345.73 429.875C1343.51 413.916 1339.08 406.038 1331.41 403.816C1324.75 402.2 1308.21 406.644 1293.07 414.118C1286.42 417.552 1280.36 419.977 1279.76 419.37C1278.14 417.754 1294.49 402.604 1303.77 397.149C1317.49 389.069 1332.42 385.837 1353 386.443C1368.94 386.847 1372.37 387.453 1379.43 392.301ZM1128.64 421.189C1135.1 422.805 1142.16 425.431 1144.58 426.643C1148.61 428.865 1147.81 429.269 1136.91 430.683C1090.91 436.541 1074.37 440.783 1056.61 451.288C1044.31 458.56 1034.62 472.095 1029.37 488.66C1024.13 505.83 1024.73 547.242 1030.59 569.463C1035.43 587.644 1041.88 601.987 1045.31 601.987C1049.55 601.987 1049.75 594.31 1046.32 566.433C1044.31 550.676 1043.3 534.718 1044.1 530.879C1046.12 521.789 1053.99 508.254 1059.84 504.416C1062.67 502.598 1071.74 494.922 1080.02 487.043C1092.73 475.327 1096.56 472.701 1104.43 471.691C1131.06 467.651 1160.32 483.407 1168.39 506.234C1170.4 511.487 1171.21 523.001 1171.01 541.384C1170.81 563.605 1170 571.281 1166.37 582.796C1163.95 590.472 1161.33 598.956 1160.72 601.583C1160.11 604.007 1156.89 609.057 1153.26 612.693C1149.83 616.531 1144.38 623.197 1141.35 628.046C1131.06 643.196 1117.34 648.247 1097.77 644.206C1080.42 640.57 1072.35 635.52 1061.86 621.177C1056.41 614.107 1049.75 607.239 1046.52 605.825C1038.86 602.593 1026.35 604.613 1001.13 613.299C989.628 617.137 979.742 619.965 979.137 619.359C977.523 617.945 981.76 592.29 988.014 564.615C994.874 533.708 1005.16 503.81 1016.26 481.993C1040.88 434.521 1085.87 410.078 1128.64 421.189ZM1164.96 440.379C1180.69 454.924 1185.13 471.691 1187.35 525.223C1187.96 541.384 1188.97 561.989 1189.57 570.877L1190.78 587.442L1204.7 596.936C1222.05 608.855 1237.99 626.026 1241.02 636.328C1245.66 651.479 1239.81 663.801 1220.84 678.952C1215.2 683.396 1209.55 689.052 1208.34 691.072C1207.33 693.093 1205.31 694.911 1204.1 694.911C1202.48 694.911 1202.48 688.042 1203.69 670.266C1207.33 620.571 1205.51 605.017 1195.83 599.158C1192.6 597.34 1190.58 598.552 1182.51 607.845C1174.04 617.339 1172.42 618.349 1168.59 616.329C1161.93 612.693 1161.53 607.037 1166.97 591.28C1177.26 561.181 1178.27 519.365 1168.99 499.77C1164.15 489.468 1148.01 475.933 1135.9 472.095C1124 468.257 1104.63 467.651 1096.16 470.883C1093.13 471.893 1086.07 477.347 1080.42 482.599C1074.97 487.852 1065.89 495.73 1060.65 499.972C1041.48 515.325 1037.45 532.495 1044.1 572.695C1047.94 596.33 1047.94 599.158 1044.31 595.926C1036.84 589.866 1028.37 551.888 1028.37 524.213C1028.37 494.114 1035.43 473.509 1050.96 458.964C1062.26 448.258 1088.69 439.571 1123.8 435.329C1155.88 431.491 1155.07 431.289 1164.96 440.379ZM587.119 455.732C591.356 474.923 592.365 488.862 589.338 488.862C588.329 488.862 586.514 479.569 585.303 468.055C583.891 456.742 582.277 444.622 581.671 441.389C579.25 427.855 583.487 438.965 587.119 455.732ZM397.062 443.41C433.984 452.096 458.397 475.933 468.686 513.305C472.721 527.445 474.941 545.424 472.721 545.424C471.914 545.424 467.274 537.142 462.432 527.243C451.133 504.012 439.431 490.882 422.08 482.397C409.974 476.337 406.948 475.731 391.412 475.933C361.754 476.135 328.262 488.256 310.709 505.224C290.129 525.223 287.91 545.626 302.437 580.17C307.077 591.078 310.709 600.37 310.709 600.977C310.709 604.411 304.051 600.775 297.594 593.704C285.892 580.776 281.857 569.463 280.848 548.05C280.041 531.889 280.647 526.839 285.085 512.497C296.182 477.549 320.595 450.682 348.841 443.208C361.552 439.773 381.93 439.773 397.062 443.41ZM1385.48 472.095C1387.5 474.115 1388.1 474.923 1386.69 473.913C1385.28 472.903 1380.64 472.701 1376.4 473.307C1369.54 474.519 1369.34 474.317 1372.77 471.691C1378.01 467.853 1380.84 467.853 1385.48 472.095ZM1386.29 478.963C1390.52 487.043 1382.66 512.497 1372.57 523.607C1368.13 528.657 1366.11 528.051 1363.69 521.587C1359.25 510.275 1362.48 479.165 1367.73 480.377C1369.14 480.579 1372.16 479.569 1374.58 477.751C1380.44 473.711 1383.46 473.913 1386.29 478.963ZM268.743 490.882C272.173 494.316 274.19 497.75 273.585 498.356C272.778 499.164 268.945 496.336 264.708 492.296C260.673 488.256 258.453 484.821 259.866 484.821C261.48 484.821 265.313 487.65 268.743 490.882ZM417.439 506.234C435.194 513.709 449.923 532.9 449.923 548.656C449.923 553.1 451.738 564.817 453.958 574.917C458.8 596.936 459.002 608.047 454.765 622.389C446.493 650.469 422.282 684.608 408.36 687.638C400.492 689.456 385.763 686.022 373.658 679.962C360.543 673.094 334.92 654.913 334.92 652.085C334.92 650.873 331.087 640.772 326.648 629.46C319.788 612.693 318.174 606.229 317.77 593.906C317.367 584.21 315.551 574.513 312.726 566.837C303.446 542.394 314.341 526.031 350.052 511.285C374.868 500.78 400.088 498.962 417.439 506.234ZM738.842 515.527C736.622 517.749 715.438 523.203 709.183 523.001C705.955 523.001 706.359 522.395 711.201 519.769C723.508 512.901 744.491 509.87 738.842 515.527ZM866.354 512.901C868.371 516.133 861.511 537.95 853.441 553.504C844.16 571.281 829.633 586.836 814.501 594.916C799.168 603.401 777.378 604.411 762.044 597.34C747.316 590.674 732.184 574.715 716.648 549.464C709.587 538.152 704.139 528.657 704.543 528.253C704.946 527.849 712.008 526.031 720.078 524.415C728.35 522.597 736.824 519.971 739.245 518.355C743.28 515.729 744.289 516.537 758.211 531.283C775.36 549.868 788.676 557.545 803.405 557.545C822.37 557.545 834.072 548.656 843.958 527.243C847.186 519.971 850.818 513.507 852.23 512.699C855.257 510.477 865.143 510.679 866.354 512.901ZM1249.9 522.597C1229.32 533.304 1195.02 542.596 1196.84 537.142C1197.44 535.526 1200.47 532.697 1203.69 530.879C1211.56 526.233 1243.84 517.547 1252.92 517.345H1259.99L1249.9 522.597ZM199.54 540.778C208.417 570.473 210.636 589.26 210.838 631.278C210.838 671.68 208.417 694.507 202.566 708.647C201.154 712.283 198.934 714.91 197.925 714.304C196.917 713.495 194.092 705.011 191.873 695.315C179.364 641.984 174.32 582.19 180.372 556.939C183.802 542.394 190.46 527.243 193.689 527.243C194.697 527.243 197.32 533.304 199.54 540.778ZM462.432 551.686C466.265 558.959 467.274 571.685 464.046 571.685C462.633 571.685 453.958 548.252 453.958 544.01C453.958 540.778 459.607 545.828 462.432 551.686ZM1053.59 616.531C1067.91 634.914 1076.18 641.58 1088.69 645.014C1113.11 651.883 1131.06 647.237 1142.97 631.076C1158.7 609.663 1157.69 610.673 1161.12 614.915C1167.38 622.995 1162.74 669.256 1153.46 689.254C1143.17 712.081 1123.6 724 1096.56 724C1060.65 724 1046.73 714.304 1015.45 667.235C997.497 640.166 985.593 626.228 979.944 626.228C968.444 625.824 1023.93 608.047 1036.44 608.047C1046.32 608.047 1047.33 608.451 1053.59 616.531ZM513.275 648.853C517.512 727.03 533.249 771.674 556.451 771.674C565.732 771.674 568.154 770.058 570.978 762.786C574.005 754.907 575.619 757.533 574.005 767.432C567.548 806.218 528.003 778.946 514.486 726.424C509.038 704.809 503.591 628.248 507.222 622.389C510.45 617.339 511.863 624.006 513.275 648.853ZM453.353 651.277C451.537 671.276 439.633 714.506 431.764 730.06C423.896 745.615 415.422 753.695 410.378 750.463C408.562 749.251 402.106 739.353 396.053 728.242C390 717.132 380.518 701.577 375.272 693.497L365.587 679.154L376.886 684.406C390.404 690.466 405.132 692.285 413.606 688.85C422.08 685.416 435.194 670.266 444.879 652.893C449.317 644.812 453.353 638.348 453.756 638.348C454.16 638.348 453.958 644.206 453.353 651.277ZM344.604 665.013C350.859 669.66 356.508 673.7 356.912 674.104C357.315 674.306 356.508 675.922 355.298 677.538C351.464 681.982 357.113 696.931 369.219 715.516C378.5 729.656 399.483 751.473 403.72 751.473C406.343 751.473 424.703 788.643 428.536 801.773C434.992 823.792 431.966 830.257 417.641 825.206C399.079 818.742 378.903 822.176 348.64 837.529L330.885 846.417L328.06 841.771C326.446 839.347 324.227 832.479 323.016 826.418C317.77 800.965 314.744 691.274 318.779 676.326C320.595 669.66 329.472 656.529 332.095 656.529C332.701 656.529 338.35 660.367 344.604 665.013ZM601.242 718.142C603.461 741.575 605.882 775.916 606.286 794.905C607.295 825.812 607.093 828.641 604.47 822.984C598.417 810.056 594.786 775.916 593.979 721.172C593.373 686.224 593.777 669.054 595.189 671.68C596.198 673.902 598.821 694.709 601.242 718.142ZM1240.82 702.385C1237.79 738.545 1229.12 809.046 1226.7 818.338C1223.47 829.853 1218.22 833.287 1204.3 832.883C1187.35 832.479 1185.54 830.661 1187.15 813.086C1189.77 786.421 1202.69 717.536 1207.93 703.597C1208.74 701.173 1214.99 695.315 1221.65 690.264C1228.31 685.416 1235.57 679.356 1237.59 676.932C1239.81 674.71 1241.83 673.094 1242.43 673.498C1242.84 674.104 1242.23 687.032 1240.82 702.385ZM372.447 695.113C385.158 713.495 402.509 745.413 399.886 745.413C397.264 745.413 381.526 728.242 373.859 717.132C360.543 697.537 352.877 677.134 359.736 679.154C360.947 679.76 366.798 686.83 372.447 695.113Z" fill="#3E464F"/>
</svg>
