<svg width="2558" height="620" viewBox="0 0 2558 620" fill="none" xmlns="http://www.w3.org/2000/svg">
<path d="M1558.28 0.179162C1557.21 0.214928 1552.78 0.429406 1548.45 0.643945C1504.04 2.82485 1464.25 10.4045 1437.61 21.7382C1432.93 23.7403 1424.63 27.8877 1423.49 28.8173C1422.06 29.9972 1423.42 30.1759 1425.49 29.1391C1428.64 27.5659 1438.93 23.6331 1444.23 21.9885C1469.29 14.1944 1499.86 9.58224 1540.41 7.43704C1552.1 6.79348 1583.42 6.57894 1597.61 7.04372C1665.62 9.18893 1728.98 18.8422 1775.5 34.1445C1782.4 36.4327 1791.69 39.7934 1792.05 40.151C1792.16 40.2582 1735.74 40.3297 1666.69 40.3297H1541.12L1541.05 28.7815L1540.94 17.2691L1539.8 17.1618L1538.62 17.0546V40.3297H1415.98V17.0903H1413.48V40.3297H1212.17V17.0903H1209.67V40.3297H1087.39L1087.32 28.7815L1087.21 17.2691L1086.07 17.1618L1084.89 17.0546V40.3297H962.245V29.6038H959.742V40.3297H837.459V29.6038H834.956V40.3297H697.513C569.939 40.3297 560.034 40.294 559.605 39.7219C557.675 37.4337 548.879 31.2843 542.657 27.8877C509.119 9.68948 451.017 2.75338 389.625 9.61794C348.971 14.1228 309.319 25.099 285.077 38.4706L281.716 40.3297H98.8281V35.0383C98.8281 28.8173 98.0414 24.1336 95.8961 18.1272C93.8223 12.1922 90.2826 6.86495 88.1015 6.29293C86.8143 5.93539 84.4187 7.43697 81.6656 10.2257C79.5917 12.3352 78.7336 13.5865 77.3034 16.4825C74.5145 22.2387 72.6552 30.4977 72.6552 37.1835V40.3297H23.1343V579.842H243.494L246.318 581.594C284.255 605.083 354.12 620.171 419.838 619.063C433.318 618.812 438.896 618.526 450.409 617.382C483.59 614.057 511.193 605.941 528.534 594.393C534.934 590.103 541.013 584.74 539.904 584.311C539.511 584.168 538.581 584.668 537.223 585.777C533.576 588.744 528.892 591.64 522.992 594.5C503.648 603.975 476.046 609.731 440.576 611.662C432.102 612.127 404.571 612.127 395.525 611.662C357.195 609.695 322.227 604.261 290.941 595.394C277.819 591.676 262.551 586.098 253.755 581.808L249.822 579.913L480.265 579.842V585.348C480.265 589.888 480.372 590.961 480.837 591.426C481.981 592.605 482.481 591.998 483.661 587.85C484.198 586.098 485.092 583.596 485.699 582.237L486.808 579.842H547.127V590.568H549.63V579.842H805.279V590.568H807.782V579.842H930.423V590.568H932.926V579.842L1421.16 580.02L1426.35 581.915C1450.02 590.567 1484.2 597.432 1520.38 600.721C1542.02 602.723 1554.85 603.26 1581.7 603.26C1604.87 603.26 1612.13 603.045 1629.97 601.794C1673.77 598.791 1714.82 591.569 1745.14 581.629L1750.54 579.842H2558V478.303H2406.93L2409.22 476.837C2413.73 473.977 2417.16 469.401 2417.73 465.396C2417.88 464.324 2417.98 450.559 2417.91 434.756L2417.84 406.082H2415.34V457.173L2413.16 456.029C2411.22 455.028 2410.55 454.885 2407.43 454.778C2404.36 454.635 2403.5 454.742 2400.93 455.564C2399.32 456.065 2396.96 457.066 2395.67 457.817C2392.52 459.676 2388.59 463.645 2387.3 466.326C2385.45 470.152 2385.66 474.549 2387.84 477.052L2388.95 478.303H2371.79L2373.22 476.766C2377.19 472.511 2379.22 468.257 2379.51 463.609C2379.9 456.387 2377.04 452.418 2371.36 452.418C2369.03 452.382 2366.49 453.312 2364.28 454.957L2363.42 455.564L2363.53 439.547C2363.67 422.171 2363.74 422.886 2361.7 422.886C2359.67 422.886 2359.77 421.206 2360.02 450.916L2360.24 478.303H2281.79L2284.08 476.945C2286.94 475.264 2290.52 471.51 2291.84 468.793L2292.88 466.684L2292.98 436.365L2293.05 406.082H2290.55V431.646C2290.55 445.697 2290.44 457.209 2290.34 457.209C2290.23 457.209 2289.73 456.887 2289.23 456.494C2286.83 454.635 2280.72 454.134 2276.39 455.457C2272.28 456.708 2269.17 458.568 2266.2 461.499C2264.66 463.037 2263.02 465.039 2262.45 466.147C2261.55 467.899 2261.41 468.507 2261.41 471.367C2261.41 474.406 2261.48 474.728 2262.55 476.444L2263.7 478.303H2157.01L2158.97 477.159C2161.9 475.479 2165.41 471.796 2166.87 468.829L2168.09 466.326L2168.3 406.082H2165.77V431.646C2165.77 447.377 2165.62 457.209 2165.44 457.209C2165.23 457.209 2165.01 457.066 2164.91 456.887C2164.8 456.708 2163.94 456.208 2163.01 455.779C2160.87 454.742 2155.68 454.385 2152.86 455.064C2142.81 457.424 2134.84 466.362 2136.41 473.477C2136.66 474.513 2137.3 476.051 2137.91 476.837L2138.95 478.303H2032.22L2034.01 477.159C2038.12 474.585 2041.41 470.938 2042.59 467.577C2043.3 465.539 2043.3 466.254 2043.2 434.22L2043.12 406.082H2040.62V457.102L2038.41 455.993C2036.47 455.028 2035.76 454.885 2032.58 454.778C2029.29 454.635 2028.64 454.742 2025.86 455.707C2021.74 457.102 2019.17 458.675 2016.27 461.535C2011.12 466.648 2009.87 472.762 2013.16 476.945L2014.2 478.303H2002.72V464.252C2002.72 449.737 2002.69 449.343 2001.26 449.343C2000.93 449.343 1998.11 450.058 1995 450.952C1991.89 451.846 1989.1 452.561 1988.88 452.561C1988.53 452.561 1988.42 450.595 1988.42 443.98V435.4H1985.92V478.303H1830.92V475.872C1830.88 473.012 1830.02 471.081 1827.99 469.401C1825.88 467.649 1823.59 467.041 1819.48 467.077C1816.37 467.077 1815.51 467.22 1812.93 468.221C1808.03 470.044 1803.24 473.691 1801.24 477.123L1800.56 478.303H1705.88L1706.1 477.088C1706.42 475.336 1705.7 472.511 1704.49 470.867C1702.09 467.613 1696.19 466.111 1690.76 467.363C1685.43 468.614 1679.49 472.547 1676.6 476.73L1675.53 478.303H1639.45V476.158C1639.45 465.897 1625.68 463.645 1614.46 472.082C1613.17 473.048 1611.42 474.835 1610.52 476.051L1608.88 478.303H951.339L953.628 476.837C958.133 473.977 961.565 469.401 962.138 465.396C962.281 464.324 962.388 450.559 962.316 434.756L962.245 406.082H959.742V457.173L957.561 456.029C955.63 455.028 954.951 454.885 951.84 454.778C948.801 454.635 947.907 454.742 945.333 455.529C937.002 458.139 930.423 465.146 930.423 471.439C930.423 473.834 931.031 475.622 932.282 477.052L933.355 478.303H826.196L828.485 476.98C831.345 475.264 834.921 471.51 836.243 468.793L837.28 466.684L837.388 436.365L837.459 406.082H834.956V431.646C834.956 445.697 834.849 457.209 834.742 457.209C834.635 457.209 834.134 456.887 833.633 456.494C831.238 454.635 825.124 454.134 820.797 455.457C816.685 456.708 813.575 458.568 810.607 461.499C809.07 463.037 807.425 465.039 806.853 466.147C805.959 467.899 805.816 468.507 805.816 471.367C805.816 474.406 805.887 474.728 806.96 476.444L808.104 478.303H578.878L578.949 476.766C579.021 475.944 579.021 462.429 578.985 446.733L578.949 418.238H576.446V444.052C576.446 468.793 576.41 469.794 575.803 469.258C573.514 467.184 568.115 466.362 563.753 467.363C558.39 468.65 552.705 472.297 549.809 476.337L548.414 478.303H532.825L533.719 476.516C535.971 472.082 537.831 464.252 538.367 457.102L538.617 453.991H541.227C544.695 453.991 549.344 454.849 552.848 456.101C555.923 457.245 560.249 459.89 561.429 461.392C561.858 461.964 562.323 462.214 562.716 462.071C563.61 461.714 562.037 459.247 558.712 455.922C556.316 453.491 555.279 452.74 552.454 451.381C548.521 449.522 545.697 448.771 541.227 448.414L538.009 448.164L537.151 445.089C535.22 438.153 533.504 434.971 526.675 425.711C519.846 416.379 518.058 413.698 516.234 410.087C514.625 406.833 513.016 402.543 512.623 400.29C512.337 398.824 511.336 398.217 510.478 398.932C510.013 399.325 509.941 404.223 509.941 434.542V469.723L508.618 468.864C501.932 464.431 489.06 468.149 483.375 476.158L481.874 478.267L402.855 478.303L404.642 477.159C408.754 474.585 412.044 470.938 413.224 467.577C413.939 465.539 413.939 466.254 413.831 434.22L413.76 406.082H411.257V457.102L409.04 455.993C407.109 455.028 406.394 454.885 403.212 454.778C399.923 454.635 399.279 454.742 396.49 455.707C392.414 457.102 389.875 458.639 386.944 461.499C381.759 466.576 380.508 472.762 383.797 476.945L384.834 478.303L311.786 478.267C255.114 478.267 238.881 478.16 239.418 477.838C242.206 476.051 243.208 475.264 245.067 473.441C246.354 472.189 247.605 470.438 248.321 469.043L249.465 466.684L249.572 436.401L249.644 406.082H247.141V457.173L244.96 456.029C242.993 455.028 242.385 454.885 239.131 454.778C236.057 454.671 235.127 454.778 232.767 455.529C228.691 456.816 225.473 458.782 222.613 461.678C219.43 464.896 218.072 467.506 217.893 470.831C217.714 473.691 218.215 475.407 219.681 477.088L220.753 478.303H27.6037V141.511H57.9599C74.6933 141.511 88.4233 141.654 88.5306 141.797C88.6021 141.94 89.2099 145.122 89.8535 148.84C90.8189 154.417 91.0334 156.563 91.0334 160.996C91.0334 165.751 90.9619 166.573 90.2111 168.433C87.887 174.332 83.4533 177.013 76.052 177.013C72.7268 177.013 70.2239 176.477 71.5826 176.084C75.7659 174.797 78.1615 172.973 79.699 169.827C80.5214 168.146 80.7002 167.324 80.7002 165.108C80.6644 160.674 78.4833 157.135 74.5145 155.204C71.7614 153.881 67.6495 153.774 64.9679 155.025C62.7153 156.062 60.713 157.993 59.4973 160.281C58.6034 161.925 58.5319 162.426 58.5319 166.18C58.5319 170.041 58.6034 170.435 59.6046 172.401C62.7153 178.551 69.0797 181.554 77.8397 181.089C83.7751 180.767 88.8881 178.586 91.4267 175.226C92.1061 174.332 93.1787 172.294 93.8223 170.721L95.0023 167.789V161.175C95.0023 155.633 94.8235 153.631 94.0011 148.84C93.4648 145.694 92.9284 142.762 92.8569 142.297L92.6782 141.511H217.821V144.013C217.821 146.874 218.322 148.339 219.931 150.163C221.576 152.022 224.186 153.059 227.869 153.238L230.979 153.381L228.512 154.632C225.974 155.883 220.932 160.281 220.002 162.033L219.502 162.962H209.598V166.895H217.893L217.786 168.397C217.75 169.255 217.714 182.698 217.75 198.25L217.821 226.603H219.967V201.003C219.967 186.917 220.074 175.476 220.253 175.547C224.686 177.836 224.615 177.8 228.906 177.764C232.41 177.764 233.411 177.621 235.627 176.834C240.276 175.154 244.852 171.865 247.176 168.468L248.249 166.895H257.867V162.962H249.644V160.889C249.608 158.279 248.75 156.312 246.783 154.632C244.96 153.095 242.814 152.308 239.525 151.986L237.093 151.772L239.596 150.377C242.6 148.733 245.925 145.729 247.498 143.298L248.642 141.511H288.295C310.106 141.511 327.947 141.582 327.947 141.654C327.947 141.725 327.089 142.297 326.017 142.869C323.478 144.299 319.902 147.66 318.401 149.984C316.077 153.667 316.148 151.986 316.148 194.282C316.148 215.376 316.255 232.859 316.363 233.181C316.613 233.86 318.258 233.968 318.437 233.324C321.655 222.312 323.8 218.558 331.881 209.62C334.133 207.117 336.886 203.899 337.995 202.434C342.428 196.534 345.503 189.92 346.218 184.843L346.647 182.019L349.544 183.198C356.409 185.987 363.381 187.096 372.105 186.81C378.827 186.559 383.01 185.88 388.41 184.057C395.131 181.804 401.853 177.442 405.322 173.045C407.896 169.863 407.467 169.148 404.428 171.543C397.062 177.371 385.013 180.481 370.031 180.481C361.414 180.481 356.623 179.873 349.365 177.943L346.647 177.228L346.397 174.475C346.111 171.114 344.752 165.286 343.465 162.104L342.536 159.745L344.252 157.885C345.181 156.849 346.433 154.954 347.041 153.667C347.97 151.736 348.149 150.914 348.149 148.84C348.113 146.051 347.541 144.621 345.718 142.655L344.609 141.511H382.152L382.009 143.656C381.616 149.305 385.263 152.88 391.842 153.238C397.742 153.559 403.927 151.235 408.468 146.945C409.827 145.658 411.364 143.906 411.865 143.048L412.759 141.511H423.593L421.269 142.833C418.194 144.621 414.153 148.661 412.938 151.2C412.401 152.272 411.793 154.131 411.615 155.311C411.4 156.563 411.257 169.076 411.257 185.737V214.089H413.76V162.962L415.655 164.035C419.266 166.037 424.951 166.144 430.029 164.214C441.256 159.995 447.012 148.876 441.077 142.798L439.825 141.511H559.105L556.602 143.012C553.384 144.907 549.737 148.59 548.378 151.343L547.306 153.488L547.198 183.771L547.127 214.089H549.63V162.998L550.917 163.856C552.812 165.143 554.743 165.572 558.39 165.537C565.255 165.501 572.37 161.854 576.196 156.42C578.305 153.452 578.949 151.629 578.949 148.804C578.949 146.123 578.413 144.657 576.804 142.833L575.66 141.511H817.579L815.291 142.869C812.18 144.657 808.14 148.697 806.924 151.2C806.424 152.272 805.816 154.131 805.637 155.311C805.423 156.563 805.279 169.076 805.279 185.737V214.089H807.782V162.962L809.677 164.035C814.576 166.788 822.835 165.823 828.949 161.747C831.703 159.923 835.242 156.098 836.315 153.738C838.174 149.662 837.709 145.443 835.064 142.798L833.776 141.511H942.401L939.934 143.012C936.716 144.943 933.426 148.232 931.853 151.164L930.601 153.488L930.494 183.771L930.423 214.089H932.926V162.998L934.213 163.856C936.108 165.143 938.039 165.572 941.686 165.537C948.551 165.501 955.666 161.854 959.492 156.42C961.601 153.452 962.245 151.629 962.245 148.804C962.245 146.123 961.709 144.657 960.1 142.833L958.955 141.511L1084.71 141.689L1084.81 156.455L1084.89 171.221L1086.07 171.114L1087.21 171.007L1087.32 156.241L1087.39 141.511H1139.59C1168.3 141.511 1191.79 141.582 1191.79 141.654C1191.79 141.761 1190.86 142.333 1189.76 142.976C1187.07 144.478 1182.85 148.697 1181.67 150.985C1181.17 151.986 1180.6 153.738 1180.39 154.918C1180.14 156.312 1179.99 166.502 1179.99 185.558V214.089H1182.5V162.927L1183.53 163.677C1185.39 164.964 1187.5 165.501 1190.9 165.537C1197.19 165.608 1202.38 163.427 1207.03 158.851C1210.31 155.597 1211.78 152.952 1212.07 149.77C1212.32 146.981 1211.67 144.943 1209.96 143.084L1208.53 141.511H1615.85C1839.89 141.511 2023.14 141.582 2023.07 141.654C2022.99 141.725 2021.92 142.369 2020.71 143.084C2017.45 144.979 2014.16 148.411 2012.7 151.378L2011.48 153.845L2011.37 183.949L2011.3 214.089H2013.81V162.998L2015.09 163.856C2016.99 165.143 2018.92 165.572 2022.57 165.537C2033.04 165.465 2043.27 157.135 2043.23 148.661C2043.23 146.337 2042.55 144.621 2040.98 142.833L2039.84 141.511H2093.86C2123.57 141.511 2147.89 141.582 2147.89 141.654C2147.89 141.725 2147.03 142.297 2145.96 142.869C2143.42 144.299 2139.84 147.66 2138.34 149.984C2136.05 153.595 2136.09 152.916 2136.09 185.022V214.089H2138.59V162.927L2139.63 163.677C2141.52 165 2143.6 165.537 2146.99 165.537C2153.11 165.537 2158.65 163.248 2163.16 158.815C2166.62 155.418 2168.09 152.451 2168.09 148.84C2168.05 146.051 2167.48 144.621 2165.66 142.655L2164.55 141.511H2260.87L2260.95 156.241L2261.05 171.007L2262.2 171.114L2263.38 171.221L2263.45 156.455L2263.56 141.689L2398 141.511L2395.53 143.012C2392.31 144.943 2389.02 148.232 2387.45 151.164L2386.2 153.488L2386.09 183.771L2386.02 214.089H2388.52V162.998L2389.81 163.856C2391.7 165.143 2393.63 165.572 2397.28 165.537C2404.15 165.501 2411.26 161.854 2415.09 156.42C2417.2 153.452 2417.84 151.629 2417.84 148.804C2417.84 146.123 2417.3 144.657 2415.69 142.833L2414.55 141.511H2420.77L2420.52 143.262C2419.98 147.052 2422.09 150.735 2425.67 152.344C2427.96 153.381 2433 153.595 2436.07 152.809C2441.72 151.378 2447.34 147.66 2449.88 143.691L2451.27 141.546L2557.82 141.582L2558 40.3297H1800.1L1794.95 37.8628C1751.97 17.2691 1683.39 3.4327 1608.34 0.286462C1600.98 -0.0353158 1563.65 -0.106849 1558.28 0.179162ZM467.75 15.0882C506.58 18.3059 534.291 25.7068 553.169 37.9343L556.602 40.151L489.99 40.2582C453.377 40.294 393.451 40.294 356.838 40.2582L290.226 40.151L295.768 37.9343C326.231 25.814 369.03 17.2691 410.721 14.9452C414.475 14.7306 418.337 14.5161 419.302 14.4446C420.303 14.3731 430.029 14.3731 440.934 14.4088C455.272 14.4804 462.709 14.6591 467.75 15.0882ZM89.9965 20.8801C90.9262 21.8455 91.9273 24.0979 92.5351 26.6364C93.2502 29.7469 93.0715 35.7891 92.1418 38.4348L91.4982 40.3297H78.0185V39.1499C78.0185 36.969 79.4845 31.9278 81.0577 28.6743C82.8455 24.9917 85.3841 21.917 87.4937 20.9874C89.2457 20.1651 89.2814 20.1651 89.9965 20.8801ZM72.7983 46.3005C72.9413 48.0524 73.4419 51.9494 73.8709 54.9884L74.6933 60.5301L72.5122 62.7468L70.3669 64.9992H27.6037V43.19H72.548L72.7983 46.3005ZM89.8177 43.4045C89.8177 44.1196 85.5271 49.5897 82.5237 52.7718C79.5202 55.8823 78.9124 56.3828 78.6979 55.8108C78.3403 54.8097 77.661 48.1239 77.661 45.5139V43.19H83.7394C87.1003 43.19 89.8177 43.2973 89.8177 43.4045ZM273.886 45.1921C269.13 48.4456 265.09 51.6992 261.3 55.346C257.224 59.2788 256.187 60.6016 256.723 61.138C256.973 61.3882 257.974 60.6732 259.905 58.8855C265.233 53.9516 272.956 48.7317 280.679 44.8346L283.969 43.19H509.941V64.9992H413.76V53.8801L412.616 53.9873L411.436 54.0946L411.221 64.9992H249.644V53.8801L248.499 53.9873L247.319 54.0946L247.105 64.9992H139.875V55.918C139.875 47.9809 139.804 46.801 139.303 46.6223C138.338 46.2647 136.729 46.372 136.407 46.8368C136.264 47.087 136.192 51.2701 136.264 56.1325L136.371 64.9992H88.459L90.1753 62.3893C93.4648 57.3839 96.5755 50.3405 97.6839 45.2279L98.1487 43.19H276.853L273.886 45.1921ZM562.752 45.5854C564.111 46.944 566.077 49.0892 567.114 50.4121C568.151 51.7707 569.152 52.8433 569.331 52.8433C570.404 52.8433 568.508 49.5897 565.004 45.3352L563.181 43.19H576.446V64.9992H524.637L521.49 60.5301C516.949 54.0946 514.84 49.983 513.016 43.9765L512.766 43.19H560.321L562.752 45.5854ZM734.484 64.9992H578.949V43.19H734.484V64.9992ZM834.956 64.9992H738.775V43.19H834.956V64.9992ZM959.742 64.9992H837.459V43.19H959.742V64.9992ZM1084.89 64.9992H1034.83V58.9213H1032.33V64.9992H962.245V43.19H1084.89V64.9992ZM1209.67 64.9992H1157.83V56.1325C1157.83 49.697 1157.72 47.1585 1157.4 46.8368C1156.79 46.229 1154.79 46.3004 1154.25 46.944C1153.89 47.373 1153.82 49.4467 1154 56.2398L1154.18 64.9992H1087.39V43.19H1209.67V64.9992ZM1347.69 64.9992H1212.17V43.19H1347.69V64.9992ZM1413.48 64.9992H1351.98V43.19H1413.48V64.9992ZM1538.62 64.9992H1516.38L1514.34 63.7837C1509.37 60.7804 1504.33 58.7067 1497.86 56.9191C1475.65 50.8411 1449.09 53.3796 1432.03 63.2116L1428.92 64.9992H1415.98V43.19H1538.62V64.9992ZM1636.95 64.9992H1541.12V43.19H1636.95V64.9992ZM1703.81 64.9992H1651.71L1649.25 61.5312C1644.42 54.7382 1641.84 49.9473 1640.38 45.0134L1639.84 43.19H1703.81V64.9992ZM1805.85 46.1932C1809.21 47.8736 1814.04 50.4478 1816.58 51.9494C1819.62 53.7729 1821.26 54.5951 1821.51 54.3449C1822.12 53.7371 1816.22 49.4467 1808.75 45.0849L1805.53 43.19H1828.59V64.9992H1705.95V43.19H1799.74L1805.85 46.1932ZM1965.18 64.9992H1831.1V43.19H1965.18V64.9992ZM2040.62 64.9992H1969.83V43.19H2040.62V64.9992ZM2165.77 64.9992H2043.12V43.19H2165.77V64.9992ZM2300.56 64.9992H2168.27V43.19H2300.56V64.9992ZM2553.35 64.9992H2452.56L2452.34 54.0946L2451.2 53.9873L2450.02 53.8801V64.9992H2302.71V43.19H2553.35V64.9992ZM1482.3 61.0664C1489.03 61.5312 1497.11 62.7111 1501.93 63.9267L1505.9 64.9278H1472.65C1451.59 64.9278 1439.79 64.8205 1440.47 64.606C1444.73 63.2831 1457.56 61.3167 1464.07 60.9592C1469.11 60.6732 1477.66 60.7447 1482.3 61.0664ZM62.5723 72.4001C57.5308 77.5485 53.4547 82.84 51.3451 86.9158L49.9507 89.6688H27.6037V67.8595H67.0417L62.5723 72.4001ZM136.3 89.6688H84.0969L83.9181 88.8465C83.5248 87.1661 81.594 74.8313 81.594 74.0448C81.594 73.5084 82.4522 72.1499 83.8466 70.541L86.0634 67.931L136.3 67.8595V89.6688ZM247.141 89.6688H155.786V85.8075C155.786 82.3394 155.715 81.8031 154.821 80.1228C153.14 76.9765 150.316 75.4391 146.812 75.8681C144.595 76.1184 143.522 76.5474 141.377 77.9776C140.519 78.5496 139.804 78.943 139.732 78.8714C139.696 78.8357 139.732 76.2972 139.804 73.294L139.947 67.8595H247.141V89.6688ZM411.257 89.6688H249.644V67.8595H411.257V89.6688ZM509.941 89.6688H413.76V67.8595H509.941V89.6688ZM518.022 69.3969C520.775 71.4705 525.459 76.3687 527.783 79.6937C529.5 82.0891 532.002 86.6655 532.825 88.8107L533.182 89.6688H512.444V67.8595H514.196C515.698 67.8595 516.234 68.074 518.022 69.3969ZM576.446 89.6688H537.866L537.473 88.1314C536.043 82.5182 533.004 76.1542 529.428 71.3275C528.141 69.6114 527.104 68.1455 527.104 68.0382C527.104 67.931 538.224 67.8595 551.775 67.8595H576.446V89.6688ZM734.484 89.6688H578.949V67.8595H734.484V89.6688ZM834.956 89.6688H738.775V67.8595H834.956V89.6688ZM959.742 89.6688H837.459V67.8595H959.742V89.6688ZM1032.33 89.6688H962.245V67.8595H1032.33V89.6688ZM1084.89 74.295C1084.89 77.8346 1084.78 80.7306 1084.67 80.7306C1084.56 80.7306 1084.03 80.4445 1083.53 80.0512C1080.59 77.9776 1074.62 77.5843 1069.94 79.1574C1064.9 80.8378 1060.82 83.6981 1058.07 87.4879L1056.46 89.6688H1049.13V81.8389C1049.13 77.5128 1049.02 73.7588 1048.92 73.437C1048.59 72.5789 1047.7 72.7219 1041.34 74.4738C1038.15 75.3676 1035.4 76.0827 1035.19 76.0827C1034.97 76.0827 1034.83 74.5095 1034.83 71.9711V67.8595H1084.89V74.295ZM1154.25 89.6688H1086.96L1087.17 88.8465C1087.28 88.4174 1087.39 83.5192 1087.39 77.9418V67.8595H1154.25V89.6688ZM1209.67 74.295C1209.67 77.8346 1209.56 80.7306 1209.46 80.7306C1209.35 80.7306 1208.85 80.4088 1208.35 80.0155C1206.1 78.2636 1199.62 77.6558 1195.69 78.7999C1190.72 80.2658 1184.14 84.9851 1182.32 88.4174L1181.6 89.6688H1173.59L1173.81 87.2376C1174.34 80.9093 1171.45 76.4402 1166.48 75.8324C1164.15 75.5822 1161.19 76.476 1159.11 78.0491L1157.47 79.3004V74.6883C1157.47 72.1499 1157.58 69.5756 1157.68 68.9679L1157.93 67.8595H1209.67V74.295ZM1347.69 89.6688H1211.99L1212.21 67.8595H1347.69V89.6688ZM1413.48 80.6233L1411.26 79.515C1409.33 78.5496 1408.61 78.4066 1405.47 78.2993C1402.39 78.1921 1401.46 78.2994 1399.1 79.0502C1393.88 80.7306 1389.27 83.984 1386.62 87.8454L1385.41 89.633L1368.71 89.6688H1351.98V67.8595H1413.48V80.6233ZM1422.59 70.398C1420.81 72.2214 1420.27 73.008 1420.56 73.294C1420.84 73.58 1421.52 73.2939 1423.09 72.2213C1424.27 71.399 1426.49 70.0762 1428.03 69.2896L1430.78 67.8595H1514.48L1516.38 68.7533C1517.45 69.2539 1519.67 70.541 1521.35 71.6493C1523.53 73.0437 1524.53 73.5084 1524.78 73.2582C1525.07 72.9722 1524.46 72.1499 1522.71 70.3622L1520.24 67.8595H1538.62V74.295C1538.62 77.8346 1538.51 80.7306 1538.4 80.7306C1538.3 80.7306 1537.76 80.4445 1537.26 80.0512C1534.22 77.906 1528.21 77.5843 1523.35 79.2647C1518.35 81.0166 1514.16 83.9841 1511.66 87.6309L1510.27 89.6688H1416.01L1415.98 78.7641V67.8595H1425.02L1422.59 70.398ZM1636.95 89.6688H1540.69L1540.91 88.5604C1541.01 87.9527 1541.12 83.0187 1541.12 77.6558V67.8595H1636.95V89.6688ZM1645.28 69.5399C1650.78 73.7945 1656.54 81.0523 1659.29 87.3091C1659.79 88.4174 1660.19 89.4185 1660.19 89.49C1660.19 89.5973 1655.54 89.6688 1649.82 89.6688H1639.45V67.8595H1641.27C1642.88 67.8595 1643.31 68.0382 1645.28 69.5399ZM1703.74 78.6569L1703.63 89.49L1684.32 89.5973L1664.98 89.6688L1664.16 86.9158C1662.33 80.6948 1660.22 76.4759 1656.25 71.113C1655.07 69.5041 1654.11 68.1455 1654.11 68.0382C1654.11 67.931 1665.3 67.8595 1678.96 67.8595H1703.81L1703.74 78.6569ZM1828.59 89.6688H1705.95V67.8595H1828.59V89.6688ZM1965.18 89.6688H1942.3C1929.71 89.6688 1919.41 89.5615 1919.41 89.4542C1919.41 89.3112 1920.63 85.4142 1922.09 80.7663C1923.56 76.1184 1924.78 72.1141 1924.78 71.8996C1924.78 71.3275 1923.52 70.684 1922.92 70.8985C1922.67 71.0058 1921.91 72.0783 1921.24 73.2582C1918.59 77.8346 1914.3 81.9819 1911.3 82.84L1910.15 83.1618L1910.83 81.8747C1911.65 80.3373 1911.76 77.6558 1911.08 75.9754C1910.4 74.3665 1907.93 72.2571 1906.18 71.7923C1903.97 71.1845 1901.39 71.9353 1899.46 73.723C1898.1 74.9386 1897.6 76.2614 1897.6 78.6926C1897.6 81.8389 1898.85 83.8053 1901.78 85.2354C1903.64 86.165 1904.22 86.2722 1907.43 86.2722C1910.54 86.2722 1911.26 86.1292 1912.98 85.3427C1914.05 84.8421 1915.84 83.6623 1916.91 82.7685C1917.98 81.8747 1918.91 81.1953 1918.95 81.2311C1919.02 81.2669 1918.45 83.1618 1917.66 85.4142L1916.3 89.49L1831.1 89.6688V67.8595H1965.18V89.6688ZM2040.62 89.6688H1969.83V67.8595H2040.62V89.6688ZM2165.77 89.6688H2043.12V67.8595H2165.77V89.6688ZM2300.56 89.6688H2168.27V67.8595H2300.56V89.6688ZM2450.02 89.6688L2302.89 89.49L2302.78 78.6569L2302.71 67.8595H2450.02V89.6688ZM2553.35 89.6688H2452.52V67.8595H2553.35V89.6688ZM78.3403 82.5897C78.8051 85.4141 79.2342 88.1314 79.3415 88.6677L79.556 89.6688H72.3334C68.4004 89.6688 65.1466 89.5615 65.1466 89.4185C65.1466 88.8465 76.6956 77.5843 77.3392 77.5128C77.4464 77.5128 77.9113 79.8009 78.3403 82.5897ZM147.062 81.0881C148.492 81.8747 149.35 84.8779 148.957 87.8811L148.707 89.6688H139.446L139.553 86.6656C139.696 83.412 140.054 82.7327 142.199 81.4099C143.379 80.6591 145.953 80.5161 147.062 81.0881ZM1165.05 81.1239C1166.19 81.7317 1166.76 83.6623 1166.76 86.8086V89.6688H1157.47V86.9516C1157.47 83.7696 1158.18 82.2679 1160.08 81.3026C1161.4 80.659 1163.98 80.5518 1165.05 81.1239ZM1046.27 85.3784V89.6688H1034.83V84.4489L1040.48 82.8042C1043.55 81.9104 1046.13 81.1596 1046.2 81.1239C1046.23 81.0881 1046.27 83.0188 1046.27 85.3784ZM48.592 93.0296C46.7685 97.8205 46.0534 102.683 46.2679 109.19L46.4467 114.338H27.6037V92.529H38.1872C47.0545 92.529 48.735 92.6005 48.592 93.0296ZM74.586 93.7447C68.8294 97.6417 64.7891 105.114 64.7891 111.943V114.338H55.886L55.6715 113.158C55.3497 111.442 56.1363 105.936 57.1375 102.969C58.0671 100.18 59.2828 97.5702 60.7845 95.2105C62.6438 92.3502 62.0002 92.529 69.5803 92.529H76.4095L74.586 93.7447ZM136.371 92.6005C136.371 92.6721 136.514 96.1758 136.621 100.395L136.836 108.082L137.73 108.189C138.302 108.26 139.768 107.617 141.842 106.401C146.132 103.863 151.71 98.3925 153.462 94.9602L154.713 92.529H247.141V114.338H109.233L108.804 111.371C108.267 107.831 106.873 104.113 105.049 101.396C103.297 98.7143 99.4359 95.139 96.79 93.7089L94.6447 92.5648L115.49 92.529C126.932 92.529 136.335 92.5648 136.371 92.6005ZM147.884 93.3156C147.098 95.9256 143.451 100.502 140.519 102.611L139.517 103.291V92.529H143.844C148.134 92.529 148.134 92.529 147.884 93.3156ZM411.257 114.338H387.659L384.691 112.872C373.929 107.438 360.842 103.934 343.859 101.932C336.243 101.038 315.755 101.038 308.103 101.932C291.227 103.898 277.997 107.474 267.164 112.908L264.303 114.338H249.644V92.529H411.257V114.338ZM509.941 114.338H413.76V92.529H509.941V114.338ZM534.04 93.1368C534.112 93.4943 534.255 94.4597 534.326 95.3178L534.434 96.8551L531.287 97.892C525.745 99.6796 521.026 103.112 518.058 107.545C515.805 110.906 516.449 111.371 519.524 108.582C522.527 105.829 527.891 103.398 532.574 102.719C534.183 102.468 534.255 102.504 534.255 103.291C534.255 104.006 532.968 110.405 532.217 113.516L532.038 114.338H512.444V92.529H523.135C533.039 92.529 533.862 92.5648 534.04 93.1368ZM576.446 114.338H556.066C539.01 114.338 535.685 114.267 535.685 113.838C535.685 113.587 535.9 112.729 536.186 111.979C536.436 111.192 536.937 109.047 537.258 107.188C537.616 105.329 537.974 103.398 538.045 102.933L538.224 102.075L542.586 102.29C549.916 102.647 556.28 104.9 560.464 108.654C563.002 110.906 563.717 110.656 562.108 108.046C557.996 101.503 550.345 97.2127 541.692 96.5691L538.546 96.3546V95.2462C538.546 94.6385 538.438 93.7804 538.331 93.3156L538.117 92.529H576.446V114.338ZM734.484 114.338H578.949V92.529H734.484V114.338ZM834.956 105.364L832.882 104.292C827.734 101.61 820.833 102.433 814.469 106.437C812.037 108.01 807.675 112.336 807.246 113.588L807.031 114.338H738.775V92.529H834.956V105.364ZM959.742 105.436L958.777 104.757C956.023 102.79 950.124 102.182 945.976 103.398C940.863 104.9 935.536 108.618 932.89 112.515L931.674 114.303L837.459 114.338V92.529H959.742V105.436ZM1032.4 100.645C1032.5 108.761 1032.5 108.797 1033.29 108.904C1033.72 108.975 1036.72 108.296 1039.94 107.402C1043.16 106.508 1045.91 105.758 1046.06 105.758C1046.16 105.758 1046.27 107.688 1046.27 110.048V114.338H962.316L962.281 103.434L962.209 92.529H1032.33L1032.4 100.645ZM1046.27 97.4629L1040.98 98.9288C1038.05 99.7154 1035.47 100.395 1035.26 100.395C1034.94 100.395 1034.83 99.2506 1034.83 96.4619V92.529H1046.27V97.4629ZM1055.32 94.2094C1054.92 97.749 1056.75 101.11 1059.93 102.79C1061.54 103.612 1062.4 103.791 1065.43 103.898C1069.62 104.077 1072.26 103.505 1076.13 101.646C1079.52 100.001 1082.45 97.606 1084.46 94.8172L1086.14 92.529H1096.51L1094.22 93.8519C1091.18 95.6395 1087.85 99.0003 1086.32 101.861C1085.06 104.113 1085.06 104.22 1084.96 109.226L1084.81 114.338H1049.13V92.529H1055.53L1055.32 94.2094ZM1154.29 98.1422C1154.32 101.253 1154.43 104.756 1154.57 105.936C1154.75 107.903 1154.86 108.082 1155.68 108.189C1156.29 108.26 1157.72 107.581 1159.94 106.222C1164.37 103.505 1169.27 98.7143 1171.23 95.139L1172.66 92.529H1180.28V94.996C1180.24 99.1433 1182.28 101.968 1186.39 103.434C1188.4 104.149 1193.47 104.149 1196.26 103.434C1201.48 102.111 1207.17 98.2495 1209.71 94.3167L1210.85 92.529H1347.69V114.338H1226.65C1160.08 114.338 1105.62 114.267 1105.62 114.195C1105.62 114.124 1106.55 113.516 1107.7 112.908C1110.41 111.371 1114.13 107.51 1115.46 104.864C1117.46 100.895 1117.06 96.2473 1114.53 93.6731L1113.42 92.529H1154.25L1154.29 98.1422ZM1166.05 92.7436C1166.05 92.8508 1165.62 93.8519 1165.08 94.9602C1164.44 96.3546 1163.19 97.9635 1161.01 100.109C1159.29 101.861 1157.68 103.255 1157.43 103.255C1157.11 103.255 1157.07 102.647 1157.25 101.074C1157.36 99.8584 1157.47 97.4271 1157.47 95.711V92.529H1161.76C1164.12 92.529 1166.05 92.6363 1166.05 92.7436ZM1384.23 94.7099C1384.05 97.5702 1384.84 99.5723 1386.84 101.431C1388.8 103.219 1391.2 103.97 1395.17 103.97C1399.75 103.97 1403.93 102.647 1408.01 99.8941C1409.94 98.5713 1413.26 95.2105 1414.05 93.7447L1414.73 92.529H1509.12V95.1032C1509.16 100.931 1512.88 103.97 1519.92 103.97C1527.03 103.97 1534.15 100.395 1538.19 94.8172L1539.87 92.529H1636.95V114.338H1351.98V92.529H1384.34L1384.23 94.7099ZM1661.08 92.958C1661.19 93.2083 1661.29 94.2809 1661.33 95.3178L1661.44 97.2484L1658.83 97.9277C1653.43 99.2863 1648.07 103.112 1645.1 107.688C1644.35 108.868 1643.74 109.941 1643.74 110.119C1643.74 110.763 1644.92 110.334 1645.74 109.369C1647.92 106.759 1653.39 104.113 1658.54 103.148L1661.37 102.611L1661.12 104.613C1660.97 105.758 1660.47 108.368 1659.97 110.477L1659.04 114.338H1639.45V92.529H1650.18C1658.47 92.529 1660.97 92.6363 1661.08 92.958ZM1703.74 103.326L1703.63 114.16L1683.18 114.267C1671.91 114.303 1662.69 114.267 1662.69 114.195C1662.69 114.124 1663.08 112.551 1663.55 110.692C1664.05 108.868 1664.55 106.544 1664.66 105.579C1665.08 102.218 1664.83 102.397 1668.73 102.647C1675.17 103.04 1681.14 105.221 1684.96 108.618C1687.93 111.299 1688.58 110.978 1686.54 107.796C1682.64 101.753 1675.99 97.9277 1667.62 96.9981L1665.55 96.7836V95.2105C1665.55 94.3524 1665.44 93.4229 1665.34 93.1011C1665.12 92.6005 1666.98 92.529 1684.46 92.529H1703.81L1703.74 103.326ZM1828.59 114.338L1706.13 114.16L1706.02 103.326L1705.95 92.529H1828.59V114.338ZM1913.08 99.7511C1911.8 103.755 1910.22 108.618 1909.61 110.584L1908.47 114.16L1831.1 114.338V92.529H1915.41L1913.08 99.7511ZM1965.18 114.338H1938.36C1923.63 114.338 1911.55 114.231 1911.55 114.124C1911.55 113.909 1915.12 102.576 1917.48 95.282L1918.41 92.529H1965.18V114.338ZM2040.62 114.338H1969.83V92.529H2040.62V114.338ZM2165.77 114.338H2043.12V92.529H2165.77V114.338ZM2272.32 92.672C2272.32 92.7436 2271.42 93.3156 2270.31 93.9591C2267.6 95.4608 2263.73 99.4293 2262.55 101.861C2261.37 104.22 2260.87 107.045 2260.87 111.192V114.338H2168.27V92.529H2220.29C2248.9 92.529 2272.32 92.6005 2272.32 92.672ZM2300.49 103.326L2300.38 114.16L2290.91 114.267L2281.43 114.338L2283.72 113.015C2292.05 108.117 2295.56 98.9645 2291.02 93.9234L2289.76 92.529H2300.56L2300.49 103.326ZM2450.02 114.338L2302.89 114.16L2302.78 103.326L2302.71 92.529H2450.02V114.338ZM2553.35 114.338H2452.52V92.529H2553.35V114.338ZM90.8904 103.684C95.7173 105.114 99.6862 109.011 100.723 113.337L100.973 114.338H94.5017C88.1015 114.338 88.03 114.338 87.8512 113.516C87.6009 112.372 86.2422 103.863 86.2422 103.326C86.2422 102.826 88.5306 103.005 90.8904 103.684ZM82.5594 108.296C83.7751 115.089 84.4187 114.338 77.4464 114.338H71.5111L71.7256 113.194C72.1189 111.228 73.4419 108.868 75.0508 107.295C76.5883 105.793 80.7002 103.505 81.3795 103.72C81.594 103.791 82.1304 105.829 82.5594 108.296ZM347.613 109.118C355.157 109.905 362.165 110.942 368.351 112.193C379.113 114.41 381.866 114.267 325.981 114.267C270.096 114.267 272.849 114.41 283.611 112.193C292.085 110.477 303.241 109.047 312.93 108.475C318.58 108.153 342.321 108.582 347.613 109.118ZM2263.91 113.981C2264.02 114.16 2263.95 114.338 2263.77 114.338C2263.56 114.338 2263.38 114.16 2263.38 113.981C2263.38 113.766 2263.45 113.623 2263.52 113.623C2263.63 113.623 2263.81 113.766 2263.91 113.981ZM47.5193 117.592C47.6266 117.985 48.3417 119.63 49.0926 121.203C52.9899 129.212 58.4247 134.145 68.3646 138.543C69.044 138.865 64.074 138.972 48.449 138.972L27.6037 139.008V116.841H37.4721C47.1975 116.841 47.3406 116.841 47.5193 117.592ZM65.3612 117.449C66.0048 119.415 68.1858 123.384 69.4015 124.742C72.548 128.318 79.4487 130.391 79.4487 127.746C79.4487 127.102 78.8409 126.494 76.9816 125.171C74.157 123.205 72.4765 121.274 71.9401 119.379C71.1893 116.698 70.8675 116.841 77.804 116.841H84.0254L84.7405 120.845C86.6355 130.999 87.3864 135.826 87.1361 136.076C87.0288 136.219 84.6332 136.326 81.8443 136.326C77.661 136.326 76.2665 136.183 73.9424 135.504C66.6841 133.43 61.2493 129.069 58.2459 122.919C57.3163 121.06 56.4939 118.915 56.3509 118.164L56.1363 116.841H60.6415C64.6461 116.841 65.1824 116.913 65.3612 117.449ZM101.259 119.093C101.259 125.171 98.0057 131.285 93.429 133.752L91.6413 134.753L91.4267 133.931C90.7831 131.035 88.459 117.342 88.6021 117.127C88.7093 116.984 91.6055 116.841 95.038 116.841H101.259V119.093ZM247.141 130.07L245.782 129.176C243.923 127.96 239.704 127.102 236.95 127.388C234.233 127.674 230.014 129.069 227.511 130.499C225.151 131.857 221.182 135.54 219.967 137.542L219.073 138.972L92.1776 139.008L95.038 137.613C96.5755 136.863 98.7208 135.54 99.7577 134.682C103.619 131.5 107.517 125.207 108.41 120.595C108.625 119.415 108.911 118.092 108.983 117.628L109.126 116.841H247.141V130.07ZM260.013 116.948C260.013 117.02 258.725 118.057 257.188 119.308C255.615 120.524 254.256 121.739 254.149 122.025C253.791 123.026 254.685 122.955 256.366 121.882C257.295 121.31 259.834 119.952 261.979 118.915L265.912 117.02H386.05L389.983 118.915C392.164 119.952 394.667 121.31 395.596 121.882C397.277 122.955 398.171 123.026 397.813 122.025C397.706 121.739 396.347 120.524 394.774 119.308C393.236 118.057 391.949 117.02 391.949 116.948C391.949 116.877 396.311 116.841 401.603 116.841H411.257V123.527C411.257 130.034 411.257 130.177 410.578 129.569C409.541 128.64 406.68 127.674 404.106 127.388C397.527 126.709 388.195 131.357 384.405 137.22L383.261 139.008H249.644V128.175C249.644 122.204 249.751 117.199 249.894 117.091C250.108 116.841 260.013 116.734 260.013 116.948ZM492.028 116.984C491.957 117.056 490.669 117.949 489.132 118.95C483.983 122.418 480.944 126.709 480.694 131.035C480.479 134.145 480.801 135.54 482.231 137.399L483.483 139.008H413.903L413.796 128.282C413.76 122.383 413.831 117.413 413.939 117.199C414.082 116.948 427.275 116.841 453.162 116.841C474.615 116.841 492.1 116.913 492.028 116.984ZM509.941 117.413C509.941 117.699 509.798 117.842 509.584 117.735C509.405 117.628 509.226 117.377 509.226 117.163C509.226 116.984 509.405 116.841 509.584 116.841C509.798 116.841 509.941 117.091 509.941 117.413ZM531.037 116.984C531.037 117.056 530.787 117.806 530.501 118.629C530.215 119.451 529.964 120.631 529.964 121.203C529.964 122.132 530.072 122.24 530.93 122.132C531.716 122.061 532.145 121.56 533.29 119.415L534.684 116.841H546.805C553.456 116.841 558.926 116.913 558.926 116.984C558.926 117.091 557.925 117.699 556.709 118.343C551.918 120.881 547.592 126.53 547.234 130.785C546.948 133.645 547.306 135.111 548.736 137.22L549.952 139.008H500.824L503.184 137.578C506.402 135.683 509.727 132.215 511.121 129.355C512.23 127.138 512.266 126.852 512.373 121.954L512.516 116.841H521.776C526.854 116.841 531.037 116.913 531.037 116.984ZM576.446 117.199C576.446 117.377 576.303 117.556 576.089 117.556C575.91 117.556 575.731 117.377 575.731 117.199C575.731 116.984 575.91 116.841 576.089 116.841C576.303 116.841 576.446 116.984 576.446 117.199ZM734.413 127.853C734.484 136.326 734.413 138.722 734.055 138.829C733.805 138.936 696.262 138.972 650.638 138.936L567.686 138.829L569.653 137.685C572.37 136.148 575.052 133.681 576.589 131.321C578.663 128.21 579.021 126.888 578.985 121.918C578.949 119.487 579.056 117.342 579.164 117.163C579.271 116.984 610.7 116.877 656.824 116.913L734.305 117.02L734.413 127.853ZM805.637 119.415C805.637 122.597 806.388 124.385 808.426 126.208C810.285 127.889 812.788 128.639 816.578 128.639C823.658 128.639 831.274 124.599 835.135 118.807L836.422 116.841L930.566 117.02L930.458 119.058C930.28 122.955 932.032 125.994 935.321 127.567C937.681 128.675 942.901 128.961 946.155 128.139C951.661 126.78 957.954 122.418 960.35 118.378L961.244 116.841H1046.23L1046.45 122.74L1047.81 122.848L1049.13 122.955V116.841L1066.94 116.913L1084.71 117.02V138.829L738.775 139.008V128.175C738.775 122.204 738.882 117.199 739.025 117.091C739.132 116.948 754.185 116.841 772.456 116.841H805.637V119.415ZM1347.61 127.996L1347.69 139.008H1087.39V116.841L1347.51 117.02L1347.61 127.996ZM1619.07 116.984C1619.07 117.091 1618.07 117.771 1616.85 118.486C1613.81 120.345 1610.2 124.063 1608.91 126.637C1607.81 128.854 1607.34 131.857 1607.77 134.145C1607.91 134.825 1608.56 136.219 1609.24 137.22L1610.45 139.008H1351.98V128.175C1351.98 122.204 1352.08 117.199 1352.23 117.091C1352.48 116.841 1619.07 116.734 1619.07 116.984ZM1636.95 117.413C1636.95 117.699 1636.8 117.842 1636.59 117.735C1636.41 117.628 1636.23 117.377 1636.23 117.163C1636.23 116.984 1636.41 116.841 1636.59 116.841C1636.8 116.841 1636.95 117.091 1636.95 117.413ZM1658.04 117.199C1658.04 117.413 1657.79 118.164 1657.5 118.879C1657.22 119.558 1656.97 120.631 1656.97 121.203C1656.97 122.132 1657.08 122.24 1657.97 122.132C1658.76 122.061 1659.15 121.596 1660.29 119.415L1661.65 116.841H1673.77C1680.46 116.841 1685.93 116.913 1685.93 116.984C1685.93 117.056 1684.89 117.735 1683.61 118.486C1680.46 120.309 1676.88 123.956 1675.53 126.709C1673.52 130.749 1673.77 134.968 1676.2 137.649L1677.42 139.008H1627.83L1630.12 137.649C1633.37 135.79 1636.62 132.394 1638.09 129.462C1639.23 127.138 1639.27 126.888 1639.38 121.954L1639.48 116.841H1648.78C1654.89 116.841 1658.04 116.948 1658.04 117.199ZM1703.63 117.199C1703.74 117.377 1703.7 117.556 1703.49 117.556C1703.31 117.556 1703.02 117.377 1702.91 117.199C1702.81 116.984 1702.84 116.841 1703.06 116.841C1703.24 116.841 1703.52 116.984 1703.63 117.199ZM1810.72 116.984C1810.72 117.091 1809.79 117.663 1808.68 118.307C1805.53 120.095 1801.63 124.135 1800.28 127.031C1799.35 129.033 1799.17 129.927 1799.13 132C1799.13 134.753 1799.67 136.255 1801.35 138.007L1802.28 139.008H1748.57C1719.04 139.008 1694.87 138.936 1694.87 138.865C1694.87 138.793 1695.73 138.221 1696.8 137.649C1699.41 136.148 1702.66 133.073 1704.06 130.749C1705.77 127.853 1706.35 125.171 1706.1 121.274C1705.95 119.451 1705.95 117.735 1706.06 117.413C1706.28 116.877 1711.1 116.841 1758.51 116.841C1787.22 116.841 1810.72 116.913 1810.72 116.984ZM1828.41 117.234C1828.81 117.842 1828.38 117.985 1827.88 117.377C1827.59 117.056 1827.59 116.841 1827.81 116.841C1828.02 116.841 1828.31 117.02 1828.41 117.234ZM1965.18 139.008H1819.48L1821.41 137.864C1823.87 136.434 1827.52 133.001 1828.88 130.856C1830.56 128.246 1831.1 125.851 1831.1 121.06V116.841H1965.18V139.008ZM2023.1 116.984C2023.1 117.056 2022.03 117.735 2020.74 118.486C2017.56 120.345 2014.09 123.884 2012.7 126.673C2010.77 130.606 2010.91 134.896 2013.09 137.363C2013.7 138.007 2014.16 138.65 2014.16 138.793C2014.16 138.901 2004.19 139.008 1991.99 139.008H1969.83V116.841H1996.46C2011.12 116.841 2023.1 116.913 2023.1 116.984ZM2040.62 117.199C2040.62 117.377 2040.55 117.556 2040.48 117.556C2040.37 117.556 2040.19 117.377 2040.09 117.199C2039.98 116.984 2040.05 116.841 2040.23 116.841C2040.44 116.841 2040.62 116.984 2040.62 117.199ZM2147.89 116.984C2147.89 117.056 2146.99 117.628 2145.92 118.235C2142.67 120.095 2139.13 123.706 2137.63 126.745C2136.48 129.069 2136.3 129.784 2136.3 132C2136.27 134.717 2136.84 136.219 2138.52 138.007L2139.45 139.008H2085.75C2056.21 139.008 2032.04 138.936 2032.04 138.865C2032.04 138.793 2032.97 138.186 2034.11 137.578C2036.76 136.04 2040.62 132.143 2041.8 129.676C2043.09 127.066 2043.45 124.778 2043.23 121.06C2043.12 119.379 2043.12 117.735 2043.23 117.413C2043.45 116.877 2048.27 116.841 2095.69 116.841C2124.4 116.841 2147.89 116.913 2147.89 116.984ZM2165.59 117.234C2165.98 117.842 2165.55 117.985 2165.05 117.377C2164.76 117.056 2164.76 116.841 2164.98 116.841C2165.19 116.841 2165.48 117.02 2165.59 117.234ZM2260.87 139.008H2156.65L2159.33 137.292C2162.8 135.039 2165.51 132.108 2166.95 129.104C2168.02 126.78 2168.09 126.423 2168.2 121.739L2168.34 116.841H2260.87V139.008ZM2282.68 116.984C2282.68 117.056 2281.61 117.735 2280.32 118.486C2277.39 120.202 2273.42 124.313 2272.21 126.923C2270.31 130.928 2270.6 134.825 2272.92 137.578L2274.18 139.008H2263.38V128.175C2263.38 122.204 2263.48 117.199 2263.63 117.091C2263.84 116.841 2282.68 116.734 2282.68 116.984ZM2300.38 117.234C2300.78 117.842 2300.35 117.985 2299.85 117.377C2299.56 117.056 2299.56 116.841 2299.78 116.841C2299.99 116.841 2300.28 117.02 2300.38 117.234ZM2449.95 123.563L2450.02 130.07L2448.12 128.997C2445.33 127.424 2441.4 126.923 2437.72 127.674C2432.18 128.818 2426.35 132.465 2423.27 136.72L2421.59 139.008H2356.63C2320.87 139.008 2291.62 138.936 2291.62 138.865C2291.62 138.793 2292.55 138.186 2293.7 137.542C2296.7 135.862 2300.2 132.179 2301.67 129.176C2302.89 126.673 2302.89 126.673 2302.81 122.061C2302.78 119.523 2302.81 117.306 2302.92 117.163C2303.03 116.984 2335.64 116.877 2376.47 116.913L2449.84 117.02L2449.95 123.563ZM2553.35 139.008H2452.09L2452.31 138.186C2452.41 137.757 2452.52 132.787 2452.52 127.102V116.841H2553.35V139.008ZM573.908 120.238C575.302 120.953 575.91 122.526 575.409 124.099C574.909 125.529 572.013 128.389 569.259 130.177C563.753 133.681 556.209 136.72 553.777 136.398C551.31 136.04 549.916 133.681 550.953 131.535C552.133 129.14 556.995 125.493 562.68 122.74C568.651 119.844 571.798 119.129 573.908 120.238ZM574.158 145.014C576.196 146.659 576.089 148.518 573.729 151.128C570.797 154.417 561.679 159.459 556.566 160.674C554.135 161.246 553.956 161.246 552.633 160.603C550.988 159.816 550.202 158.064 550.774 156.491C551.489 154.417 556.781 150.27 562.144 147.589C568.044 144.621 572.513 143.656 574.158 145.014ZM340.605 164.214C341.713 167.717 342.929 175.476 342.321 175.476C341.82 175.476 337.101 172.58 335.563 171.329C333.99 170.041 333.311 169.827 333.311 170.578C333.311 171.436 337.101 175.619 339.711 177.621C341.105 178.694 342.25 179.766 342.25 180.016C342.25 182.555 339.318 189.598 336.529 193.746C333.096 198.787 326.589 204.543 321.44 207.153C320.117 207.832 318.937 208.369 318.83 208.369C318.723 208.369 318.651 198.143 318.651 185.63V162.927L319.688 163.677C321.583 165 323.657 165.537 327.054 165.537C330.844 165.537 333.883 164.821 337.208 163.141C338.495 162.498 339.675 162.068 339.782 162.176C339.925 162.319 340.283 163.213 340.605 164.214ZM518.094 427.534C523.421 431.538 528.892 438.296 531.788 444.481C533.79 448.771 533.754 448.914 531.395 449.665C526.282 451.274 520.596 455.457 517.915 459.604C515.877 462.786 516.52 463.108 519.524 460.391C521.991 458.21 526.246 456.101 530.286 455.1C534.577 454.027 534.613 454.027 534.613 455.958C534.613 461.035 532.717 470.831 530.679 476.23L529.929 478.303H512.266L512.373 451.131L512.444 423.959L513.839 424.674C514.59 425.031 516.52 426.354 518.094 427.534ZM2371.11 457.924C2373.32 459.676 2373.18 466.469 2370.86 471.367C2369.25 474.764 2365.85 478.303 2364.21 478.303H2363.06L2363.21 469.436C2363.31 459.64 2363.38 459.354 2365.74 457.924C2367.28 456.959 2369.89 456.994 2371.11 457.924ZM1999.86 465.754V473.941L1994.6 475.407C1991.67 476.23 1989.1 476.873 1988.85 476.873C1988.49 476.873 1988.42 475.157 1988.49 468.936L1988.6 460.963L1994.14 459.283C1997.18 458.389 1999.72 457.602 1999.79 457.602C1999.83 457.567 1999.86 461.249 1999.86 465.754ZM574.515 472.726C575.946 474.156 576.053 475.228 574.909 476.909L574.086 478.124L565.183 478.232L556.244 478.303L557.317 477.552C561.071 475.014 569.295 471.546 571.762 471.51C573.049 471.51 573.478 471.689 574.515 472.726ZM60.1409 482.629C53.2402 485.954 47.9841 493.963 47.9841 501.078V502.973H27.6037V481.163H63.1444L60.1409 482.629ZM227.726 482.308C225.151 483.702 221.468 487.027 220.002 489.315C218.107 492.283 217.75 493.749 217.786 498.575L217.821 502.973H97.8269L97.0403 499.469C95.8246 494.142 93.8938 490.531 90.3898 487.027C88.1015 484.739 86.8501 483.809 84.4545 482.665L81.4153 481.163L229.799 481.199L227.726 482.308ZM391.592 482.486C388.374 484.381 384.798 487.992 383.332 490.817C382.188 493.033 382.152 493.319 382.009 498.039L381.866 502.973H238.381L240.669 501.614C243.529 499.934 247.105 496.18 248.428 493.462C249.179 491.889 249.501 490.71 249.572 488.85C249.715 485.99 249.179 484.381 247.462 482.415L246.354 481.163H393.916L391.592 482.486ZM480.622 483.666C480.622 489.387 483.84 492.39 490.491 492.855L493.53 493.069L491.384 494.142C488.417 495.608 485.378 498.146 483.483 500.72L481.874 502.937L402.855 502.973L405.036 501.578C410.22 498.289 413.831 492.962 413.867 488.6C413.867 485.954 413.152 483.988 411.543 482.308L410.399 481.163H480.622V483.666ZM547.198 483.559C546.984 488.028 549.487 491.246 554.099 492.426C555.243 492.712 557.103 492.962 558.211 492.962H560.178L557.925 494.178C554.492 496.037 551.811 498.253 550.023 500.72L548.378 502.973H512.266L512.373 501.257C512.552 498.754 511.944 496.859 510.299 495.036C508.44 492.926 506.008 491.854 502.326 491.603L499.501 491.425L501.825 490.209C505.079 488.493 508.475 485.561 509.941 483.201L511.193 481.199L529.249 481.163H547.306L547.198 483.559ZM568.58 482.451C564.289 485.204 556.888 488.314 554.6 488.314C551.131 488.314 549.487 485.132 551.56 482.415L552.526 481.163H561.536L570.547 481.199L568.58 482.451ZM734.484 502.973H578.949V500.542C578.949 498.432 578.806 497.86 577.769 496.18C576.804 494.535 576.232 494.035 574.229 492.998C572.227 491.997 571.297 491.746 568.902 491.603L566.006 491.425L568.187 490.388C571.226 488.85 574.194 486.383 576.267 483.559L578.055 481.163H734.484V502.973ZM1064.68 482.665C1061.36 484.667 1058.03 488.1 1056.57 491.067C1055.46 493.319 1055.39 493.677 1055.28 498.218L1055.14 502.973H962.245V500.542C962.245 498.432 962.102 497.86 961.065 496.18C960.1 494.535 959.527 494.035 957.561 493.033C954.557 491.496 950.517 491.103 946.87 492.032C941.65 493.355 935.929 497.038 933.104 501.006L931.71 502.973H837.28L837.388 501.257C837.674 497.431 835.636 494.213 831.989 492.569C830.415 491.854 829.557 491.711 826.196 491.746C822.692 491.746 821.941 491.854 819.367 492.855C814.576 494.678 810.464 497.717 808.104 501.149L806.888 502.937L772.85 502.973H738.775V481.163H1067.19L1064.68 482.665ZM1189.29 482.88C1185.79 485.168 1182.75 488.386 1181.35 491.353C1180.35 493.498 1180.24 494.142 1180.07 498.361L1179.89 502.973H1076.23L1078.95 501.185C1082.2 499.004 1084.53 496.43 1086.07 493.355C1086.99 491.425 1087.17 490.638 1087.17 488.529C1087.21 485.704 1086.64 484.31 1084.78 482.308L1083.67 481.163H1191.97L1189.29 482.88ZM1347.69 502.973H1200.91L1202.88 501.829C1205.7 500.22 1209.35 496.43 1210.74 493.677C1212.42 490.316 1212.64 487.277 1211.32 484.596C1210.78 483.487 1209.92 482.272 1209.42 481.879L1208.49 481.163H1347.69V502.973ZM1393.99 482.343C1391.06 483.916 1386.73 488.278 1385.37 490.996C1384.41 492.998 1384.34 493.463 1384.23 498.039L1384.08 502.973H1351.98V481.163H1374.07L1396.13 481.199L1393.99 482.343ZM1518.63 482.486C1515.27 484.453 1511.8 488.028 1510.34 490.996C1509.19 493.355 1509.12 493.641 1509.01 498.218L1508.87 502.973H1404.75L1406.9 501.686C1409.79 499.97 1413.19 496.502 1414.58 493.892C1415.48 492.211 1415.76 491.174 1415.91 489.172C1416.09 486.097 1415.66 484.632 1413.98 482.629L1412.69 481.163H1520.92L1518.63 482.486ZM1607.59 492.068L1607.66 502.973H1529.93L1532.18 501.507C1534.83 499.791 1537.87 496.823 1539.12 494.642C1539.62 493.82 1540.3 492.104 1540.62 490.853C1541.52 487.349 1540.87 484.81 1538.51 482.308L1537.4 481.163H1607.55L1607.59 492.068ZM1674.35 481.736C1674.24 482.057 1674.13 486.955 1674.13 492.64V502.973H1667.05L1668.48 500.47C1669.63 498.468 1669.84 497.86 1669.52 497.503C1669.16 497.181 1668.84 497.395 1667.95 498.504C1667.34 499.29 1666.09 500.613 1665.23 501.435L1663.58 502.973H1636.98L1636.59 501.435C1635.8 498.432 1634.66 495.214 1633.33 492.211C1632.55 490.495 1631.94 488.993 1631.94 488.85C1631.94 488.707 1632.98 487.599 1634.19 486.419C1635.44 485.204 1636.91 483.523 1637.45 482.665L1638.38 481.163H1656.47C1672.81 481.163 1674.56 481.235 1674.35 481.736ZM1799.13 482.486C1799.02 483.237 1798.92 488.135 1798.92 493.391V502.973H1790.09L1792.34 500.613C1794.48 498.396 1795.13 497.252 1794.23 497.252C1794.02 497.252 1792.87 497.967 1791.66 498.825C1790.44 499.684 1788.26 500.971 1786.87 501.686L1784.26 502.973H1703.77L1701.56 501.864C1700.34 501.257 1698.16 499.934 1696.73 498.933C1694.83 497.646 1694.01 497.252 1693.72 497.538C1693.44 497.824 1694.01 498.611 1695.76 500.434L1698.19 502.973H1676.63V496.716C1676.63 493.284 1676.71 490.459 1676.81 490.459C1676.92 490.459 1677.46 490.781 1677.99 491.174C1680.75 493.176 1686.57 493.427 1691.9 491.711C1696.69 490.209 1702.52 485.74 1704.38 482.2L1704.92 481.163H1799.38L1799.13 482.486ZM1965.18 502.973H1801.42V496.466C1801.42 490.28 1801.46 490.03 1802.06 490.566C1803.21 491.603 1805.85 492.569 1808.21 492.819C1815.76 493.57 1824.77 489.172 1828.81 482.772L1829.84 481.163H1965.18V502.973ZM1985.99 483.201C1986.1 485.061 1986.2 485.275 1986.92 485.382C1987.35 485.454 1990.35 484.775 1993.6 483.881C1996.86 482.987 1999.57 482.236 1999.68 482.236C1999.79 482.236 1999.86 486.097 1999.86 490.817V499.397H2002.72V481.163H2023.28L2020.96 482.486C2017.74 484.381 2014.16 487.992 2012.7 490.817C2011.55 493.033 2011.52 493.319 2011.37 498.039L2011.23 502.973H1969.83V481.163H1985.88L1985.99 483.201ZM2146.46 482.129C2142.06 484.739 2138.7 488.171 2137.13 491.746C2136.48 493.176 2136.3 494.356 2136.16 498.218L2135.98 502.973H2032.22L2034.4 501.578C2039.59 498.289 2043.2 492.962 2043.23 488.6C2043.23 485.954 2042.52 483.988 2040.91 482.308L2039.76 481.163H2148.07L2146.46 482.129ZM2271.06 482.308C2268.35 483.773 2263.77 488.278 2262.55 490.674C2261.45 492.89 2260.87 496.001 2260.87 500.005V502.973H2157.11L2159.83 501.185C2167.77 495.858 2170.52 487.599 2166.02 482.701L2164.59 481.163L2273.21 481.199L2271.06 482.308ZM2360.34 482.844C2360.45 484.274 2360.56 484.56 2361.24 484.667C2362.1 484.775 2364.28 483.773 2366.6 482.2L2368.1 481.163H2398L2395.67 482.486C2392.56 484.31 2388.63 488.278 2387.27 490.996C2386.27 492.998 2386.2 493.427 2386.09 498.039L2385.95 502.973H2281.79L2283.76 501.829C2284.83 501.221 2286.87 499.576 2288.26 498.182C2291.37 495.071 2292.73 492.39 2292.98 488.958C2293.13 486.848 2293.02 486.276 2292.2 484.596C2291.66 483.487 2290.8 482.272 2290.3 481.879L2289.37 481.163H2360.24L2360.34 482.844ZM2553.35 502.973L2406.58 502.937L2408.01 502.186C2409.9 501.221 2412.91 498.754 2414.48 496.859C2416.59 494.321 2417.59 492.032 2417.77 489.172C2417.95 486.097 2417.52 484.632 2415.84 482.629L2414.55 481.163H2553.35V502.973ZM73.0843 483.702C78.4833 484.846 81.9158 488.743 83.6678 495.822C84.0612 497.288 84.4545 499.505 84.5975 500.72L84.8478 502.973H70.5814L70.3312 501.793C69.9021 499.827 68.8294 498.11 66.9344 496.43C63.6092 493.463 59.3543 492.819 55.6715 494.75L53.5977 495.822L53.848 494.678C54.5273 491.246 57.8883 486.955 61.2851 485.239C64.5388 483.595 69.473 482.951 73.0843 483.702ZM1615.1 492.604C1618.92 493.319 1623.43 492.747 1627.15 491.031L1629.08 490.137L1629.65 491.46C1630.69 493.856 1632.62 499.898 1632.87 501.435L1633.12 502.973H1631.83C1630.83 502.973 1630.26 502.651 1628.83 501.257C1627.86 500.327 1626.65 499.004 1626.11 498.325C1625.43 497.395 1625.07 497.181 1624.79 497.467C1624.36 497.896 1625.18 499.934 1626.65 501.972L1627.33 502.973H1609.77V490.137L1611.49 491.174C1612.42 491.746 1614.03 492.39 1615.1 492.604ZM573.908 496.716C575.087 497.288 575.91 499.004 575.588 500.22C575.481 500.685 575.052 501.507 574.623 502.007L573.908 502.973H565.076L556.244 502.937L558.211 501.686C562.502 498.933 569.116 496.215 571.548 496.18C572.299 496.18 573.371 496.43 573.908 496.716ZM48.8423 507.692C49.7719 510.302 52.6323 513.091 55.1352 513.842C59.1398 515.022 63.7164 514.342 66.6484 512.09C68.2574 510.874 70.1524 507.835 70.1524 506.477C70.1524 505.869 70.653 505.833 77.4822 505.833H84.812V508.836C84.812 513.663 83.6321 519.169 81.165 525.747L80.4856 527.642H27.6037V505.833H48.1629L48.8423 507.692ZM217.821 527.642H139.875V518.561C139.875 508.765 139.947 509.051 137.98 509.051C136.121 509.087 136.121 509.051 136.264 518.704L136.371 527.642H92.4279L93.4648 525.569C95.9319 520.492 98.0414 512.197 98.0414 507.37V505.833H217.821V527.642ZM381.938 527.642H219.967V505.833H381.938V527.642ZM480.479 507.692C480.372 508.729 480.265 513.663 480.265 518.597V527.642H384.441V505.833H480.729L480.479 507.692ZM547.091 527.642H543.516C540.762 527.642 540.012 527.535 540.19 527.177C540.369 526.963 540.941 526.033 541.478 525.175C542.443 523.638 542.801 521.922 542.157 521.922C542.014 521.922 541.263 522.673 540.584 523.566C539.869 524.496 538.653 525.783 537.866 526.427L536.472 527.642L523.171 527.571L509.87 527.464L509.226 524.961C508.404 521.85 507.153 518.454 505.687 515.558L504.542 513.305L505.544 512.519C507.081 511.375 509.834 508.3 510.549 507.013L511.193 505.833H547.306L547.091 527.642ZM568.58 507.084C565.434 509.051 560.321 511.446 557.389 512.304C555.243 512.948 554.385 513.055 553.348 512.769C550.702 512.126 549.844 509.373 551.56 507.084L552.526 505.833H570.547L568.58 507.084ZM734.484 527.642H549.63V521.386C549.63 517.953 549.773 515.129 549.952 515.129C550.13 515.129 550.452 515.379 550.702 515.629C552.133 517.381 559.498 518.025 563.753 516.773C568.902 515.236 573.908 511.768 576.625 507.835L577.984 505.833H734.484V527.642ZM805.494 507.692C805.387 508.729 805.279 513.663 805.279 518.597V527.642H738.775V505.833H805.744L805.494 507.692ZM930.387 527.642H807.782V514.807L809.499 515.844C812.073 517.488 816.006 517.953 820.118 517.131C825.874 516.023 831.273 512.805 834.42 508.658C835.314 507.442 836.029 506.334 836.029 506.155C836.029 505.976 855.48 505.833 883.333 505.833H930.601L930.387 527.642ZM1055.21 527.642H932.926V521.386C932.926 517.953 933.069 515.129 933.247 515.129C933.426 515.129 933.748 515.379 933.998 515.629C935.428 517.381 942.794 518.025 947.049 516.773C952.198 515.236 957.203 511.768 959.921 507.835L961.279 505.833H1055.21V527.642ZM1179.99 527.642H1057.71V505.833H1179.99V527.642ZM1347.69 527.642H1182.5V505.833H1347.69V527.642ZM1384.16 527.642H1351.98V505.833H1384.16V527.642ZM1508.94 527.642H1386.66V505.833H1508.94V527.642ZM1607.63 527.642H1511.44V505.833H1607.63V527.642ZM1631.58 507.513C1633.69 509.194 1633.73 509.265 1633.73 511.017C1633.73 515.057 1632.15 519.848 1629.22 524.782L1627.51 527.642H1609.77V505.833H1629.44L1631.58 507.513ZM1655.36 506.62C1652.25 507.656 1644.88 507.907 1640.84 507.12C1639.2 506.763 1637.7 506.334 1637.52 506.155C1637.3 505.976 1641.06 505.833 1647.35 505.869L1657.5 505.905L1655.36 506.62ZM1674.13 527.642H1634.48L1635.55 525.032C1636.95 521.743 1637.55 518.99 1637.88 514.843C1638.05 512.197 1638.23 511.553 1638.63 511.697C1643.1 513.448 1649.32 513.699 1653.75 512.304C1657.18 511.267 1659.9 509.802 1662.55 507.621L1664.66 505.869H1669.41L1674.13 505.833V527.642ZM1704.38 507.335C1711.89 511.875 1721.94 515.057 1733.13 516.416C1739.85 517.238 1752.94 516.952 1759.05 515.88C1769.35 514.056 1777.25 511.267 1784.29 507.049L1786.33 505.833H1798.92V527.642H1676.63V505.833H1701.95L1704.38 507.335ZM1773.35 506.584C1769.53 507.621 1761.05 508.944 1755.4 509.444C1748.75 509.98 1733.02 509.694 1727.23 508.908C1722.94 508.3 1715.68 506.87 1713.64 506.226C1712.93 506.012 1723.58 505.905 1744.21 505.905C1775.85 505.905 1775.85 505.905 1773.35 506.584ZM1965.18 527.642H1919.38L1919.59 526.82C1919.73 526.391 1920.99 522.458 1922.34 518.096C1924.45 511.41 1924.81 510.052 1924.42 509.587C1923.52 508.514 1922.56 509.122 1920.98 511.732C1918.77 515.343 1915.59 518.704 1913.05 520.063C1911.87 520.706 1910.76 521.207 1910.54 521.207C1910.37 521.207 1910.51 520.599 1910.87 519.884C1912.12 517.417 1911.62 514.163 1909.61 511.983C1907.33 509.444 1903.21 509.051 1900.39 511.089C1898.17 512.662 1897.53 514.056 1897.67 517.131C1897.82 520.241 1898.82 521.779 1901.64 523.28C1903.36 524.174 1903.82 524.246 1907.43 524.246C1912.01 524.246 1913.15 523.817 1916.91 520.778C1918.27 519.705 1919.05 519.24 1918.91 519.634C1918.77 519.991 1918.16 521.958 1917.52 523.96L1916.41 527.642H1801.42V505.833H1965.18V527.642ZM2011.3 527.642H1969.83V505.833H2011.3V527.642ZM2136.09 527.642H2013.81V505.833H2136.09V527.642ZM2260.87 527.642H2138.59V505.833H2260.87V527.642ZM2386.02 527.642H2263.38V505.833H2386.02V527.642ZM2553.35 527.642H2388.52V505.833H2553.35V527.642ZM489.06 517.345C491.527 517.703 492.421 517.667 495.067 517.167C496.748 516.809 499.036 516.166 500.109 515.665L502.111 514.807L502.469 515.772C504.113 520.027 506.008 526.105 506.008 527.177C506.008 527.464 505.544 527.642 504.793 527.642C503.863 527.642 503.184 527.285 501.789 526.033C500.788 525.14 499.608 523.817 499.179 523.137C498.357 521.815 497.57 521.672 497.677 522.923C497.713 523.316 498.249 524.46 498.857 525.497C499.429 526.498 499.93 527.392 499.93 527.464C499.93 527.571 496.068 527.642 491.349 527.642H482.767V514.807L484.484 515.844C485.699 516.63 486.987 517.024 489.06 517.345ZM79.0912 530.753C79.0912 531.218 75.7302 537.188 74.0139 539.727C71.4396 543.517 68.5434 546.77 65.0751 549.702L62.0359 552.312H27.6037V530.503H53.3474C67.5065 530.503 79.0912 530.61 79.0912 530.753ZM136.3 552.312H103.333C85.2053 552.312 70.5099 552.169 70.7245 552.026C70.9032 551.847 72.3334 550.667 73.9067 549.38C79.3057 544.947 85.9562 537.582 89.639 532.004L90.6401 530.503H136.3V552.312ZM217.821 552.312H155.786V548.451C155.786 544.875 155.715 544.482 154.713 542.694C152.211 538.154 147.062 537.224 141.806 540.37C140.697 541.05 139.732 541.55 139.732 541.514C139.696 541.443 139.732 538.94 139.804 535.937L139.947 530.503H217.821V552.312ZM381.938 552.312H219.967V530.503H381.938V552.312ZM480.265 552.312H384.441V530.503H480.265V552.312ZM503.827 531.682C504.542 532.326 505.508 533.112 505.973 533.434C506.795 534.006 506.831 534.185 506.58 536.652C506.473 538.046 506.116 540.192 505.794 541.371C505.186 543.66 502.933 548.379 501.289 550.774L500.252 552.312H482.767V530.503H502.54L503.827 531.682ZM528.355 531.289C525.245 532.326 517.879 532.576 513.839 531.79C512.194 531.432 510.692 531.003 510.514 530.824C510.299 530.646 514.053 530.503 520.346 530.538L530.501 530.574L528.355 531.289ZM547.127 552.312H527.283C516.377 552.312 507.439 552.24 507.439 552.169C507.439 552.097 507.832 551.168 508.297 550.095C509.727 546.877 510.299 544.482 510.692 540.37C510.871 538.189 511.086 536.402 511.121 536.366C511.193 536.295 512.266 536.581 513.517 537.01C516.592 538.011 522.67 538.082 526.031 537.188C529.285 536.295 533.004 534.4 535.506 532.29L537.652 530.538L542.407 530.503H547.127V552.312ZM734.484 552.312H549.63V530.503H734.484V552.312ZM805.279 552.312H738.775V530.503H805.279V552.312ZM930.423 552.312H807.782V530.503H930.423V552.312ZM1055.21 552.312H932.926V530.503H1055.21V552.312ZM1179.99 552.312H1057.71V530.503H1179.99V552.312ZM1347.69 552.312H1182.5V530.503H1347.69V552.312ZM1384.16 552.312H1351.98V530.503H1384.16V552.312ZM1508.94 552.312H1386.66V530.503H1508.94V552.312ZM1607.63 534.364C1607.63 536.509 1607.52 541.407 1607.38 545.268L1607.16 552.312H1511.44V530.503H1607.63V534.364ZM1623 532.862C1620.21 535.651 1616.99 538.154 1613.56 540.12C1609.38 542.48 1609.77 542.873 1609.77 536.259V530.503H1625.29L1623 532.862ZM1674.13 552.312H1644.99C1628.97 552.312 1615.85 552.205 1615.85 552.062C1615.85 551.561 1619.85 546.627 1623 543.195C1626.72 539.155 1630.8 534.006 1632.01 531.897L1632.8 530.503H1674.13V552.312ZM1798.92 552.312H1676.63V530.503H1798.92V552.312ZM1913.83 535.401C1912.98 538.118 1911.44 542.98 1910.37 546.234L1908.47 552.133L1801.42 552.312V530.503H1915.41L1913.83 535.401ZM1965.18 552.312H1911.51L1911.76 551.49C1912.3 549.702 1917.34 533.792 1917.84 532.183L1918.41 530.503H1965.18V552.312ZM2011.3 552.312H1969.83V530.503H2011.3V552.312ZM2136.09 552.312H2013.81V530.503H2136.09V552.312ZM2260.87 552.312H2138.59V530.503H2260.87V552.312ZM2386.02 552.312H2263.38V530.503H2386.02V552.312ZM2553.35 552.312H2388.52V530.503H2553.35V552.312ZM147.062 543.731C148.492 544.518 149.35 547.521 148.957 550.524L148.707 552.312H139.517V549.666C139.517 546.627 140.304 545.054 142.378 544.017C143.772 543.302 145.989 543.195 147.062 543.731ZM56.5296 556.352C55.6358 556.995 52.9184 558.604 50.5228 559.963L46.1606 562.466L46.2679 563.717C46.3752 564.861 46.4824 565.004 47.4478 565.111C48.8065 565.254 58.3174 560.571 63.2874 557.317L66.6126 555.172H101.474C120.639 555.172 136.335 555.208 136.335 555.244C136.371 555.315 136.514 558.819 136.621 563.038L136.836 570.725L137.694 570.832C138.624 570.975 140.268 570.153 143.522 567.972C147.956 565.004 151.639 561.143 153.534 557.46L154.713 555.172H217.821V576.981H27.6037V555.172H58.1744L56.5296 556.352ZM148.099 555.565C148.099 556.674 145.489 560.607 143.308 562.787C139.303 566.72 139.517 566.828 139.517 560.535V555.172H143.808C146.704 555.172 148.099 555.315 148.099 555.565ZM381.938 576.981H244.209L241.992 575.659C238.13 573.335 233.589 570.224 230.658 567.829C227.797 565.505 227.118 565.183 227.118 566.005C227.118 566.792 233.875 573.013 237.809 575.837L239.382 576.981H219.967V555.172H381.938V576.981ZM480.265 576.981H384.441V555.172H480.265V576.981ZM495.389 558.032C492.457 560.857 486.701 564.933 484.126 566.005L482.767 566.577V555.172H490.562L498.321 555.208L495.389 558.032ZM547.127 576.981H488.488L490.24 574.55C491.206 573.227 493.887 570.045 496.211 567.507C500.395 562.895 504.149 558.104 505.15 556.173L505.687 555.172H547.127V576.981ZM734.484 576.981H549.63V555.172H734.484V576.981ZM805.279 576.981H738.775V555.172H805.279V576.981ZM930.423 576.981H807.782V555.172H930.423V576.981ZM1055.21 576.981H932.926V555.172H1055.21V576.981ZM1179.99 576.981H1057.71V555.172H1179.99V576.981ZM1347.69 576.981H1182.5V555.172H1347.69V576.981ZM1384.16 576.981H1351.98V555.172H1384.16V576.981ZM1508.94 576.981H1421.63L1418.37 575.873C1412.3 573.799 1405.11 570.868 1399.57 568.186C1396.56 566.72 1393.92 565.54 1393.77 565.54C1393.6 565.54 1393.45 565.755 1393.45 566.041C1393.45 566.828 1402.21 571.869 1409.11 575.051L1413.3 576.981H1386.66V555.172H1508.94V576.981ZM1607.34 560.893C1607.41 565.54 1607.55 566.72 1607.98 566.971C1609.16 567.721 1609.66 567.114 1610.49 564.075C1611.2 561.286 1613.1 556.459 1613.74 555.637C1614.06 555.244 1619.5 555.172 1644.13 555.172H1674.13V565.898H1676.63V555.172H1798.92V565.898H1801.42V555.172H1965.18V576.981H1758.69L1764.16 574.657C1771.53 571.583 1779.47 567.614 1785.33 564.11C1791.19 560.607 1792.45 559.677 1791.91 559.105C1791.62 558.819 1790.91 559.069 1789.23 560.034C1780.9 564.933 1766.13 570.975 1752.18 575.194L1746.32 576.981H1511.44V555.172H1607.23L1607.34 560.893ZM2011.3 576.981H1969.83V555.172H2011.3V576.981ZM2136.09 576.981H2013.81V555.172H2136.09V576.981ZM2260.87 576.981H2138.59V555.172H2260.87V576.981ZM2386.02 576.981H2263.38V555.172H2386.02V576.981ZM2553.35 576.981H2388.52V555.172H2553.35V576.981ZM1730.8 580.95C1690.97 590.639 1635.34 596.288 1579.56 596.288C1532.4 596.288 1490.06 592.605 1454.45 585.348C1447.01 583.846 1432.46 580.342 1432.1 579.985C1432.03 579.913 1500.15 579.842 1583.53 579.877H1735.09L1730.8 580.95Z" fill="#027223"/>
<path d="M1129.7 75.1318C1128.15 75.5505 1126.97 76.8067 1126.97 78.0382C1126.97 80.7722 1130.58 82.2993 1134.23 81.1171C1137.69 80.0333 1137.8 76.4372 1134.38 75.255C1133.2 74.8609 1130.95 74.787 1129.7 75.1318Z" fill="#027223"/>
<path d="M1227.17 75.428C1225.54 76.1414 1224.64 77.7896 1225.18 79.0442C1226.41 81.8487 1231.79 82.4145 1234.11 80.0036C1236.28 77.7404 1233.93 74.9114 1229.91 74.9114C1228.94 74.9114 1227.89 75.1082 1227.17 75.428Z" fill="#027223"/>
<path d="M1430.17 75.1322C1428.08 75.7737 1427.07 78.1672 1428.18 79.7957C1430.27 82.8061 1436.53 81.6217 1436.53 78.2166C1436.53 77.0075 1435.59 75.7737 1434.28 75.2556C1433.24 74.8608 1431.25 74.7867 1430.17 75.1322Z" fill="#027223"/>
<path d="M854.062 98.1874C850.556 99.0631 849.241 103.376 851.798 105.517C854.317 107.625 857.933 107.203 859.795 104.576C860.635 103.344 860.562 101.268 859.612 99.9387C858.553 98.5117 855.997 97.701 854.062 98.1874Z" fill="#027223"/>
<path d="M977.535 98.1505C976.876 98.2809 975.813 98.8354 975.19 99.3572C973.688 100.694 973.395 103.271 974.567 104.902C976.436 107.543 981.125 107.511 982.994 104.804C985.338 101.445 981.968 97.3351 977.535 98.1505Z" fill="#027223"/>
<path d="M1130.69 98.1562C1129.92 98.2856 1128.94 98.8679 1128.24 99.5473C1125.35 102.33 1127.73 106.859 1132.04 106.859C1133.58 106.859 1135.48 105.824 1136.25 104.562C1138.33 101.133 1135.04 97.3474 1130.69 98.1562Z" fill="#027223"/>
<path d="M1754.72 95.0079C1741.67 95.82 1729.52 98.6448 1720.67 102.882C1714.75 105.742 1709.09 110.156 1711.35 110.156C1711.6 110.156 1713.03 109.591 1714.54 108.92C1720.02 106.413 1730.17 104.118 1740.96 102.917C1767.09 100.022 1799.85 102.953 1812.72 109.308C1816.02 110.968 1816.48 110.085 1813.55 107.755C1801.86 98.5389 1778.6 93.4896 1754.72 95.0079Z" fill="#027223"/>
<path d="M2319.07 98.2755C2317.97 98.7952 2317.53 99.2825 2317.07 100.419C2316.29 102.433 2316.95 105.227 2318.46 106.299C2319.43 106.981 2320.36 107.046 2321.43 106.461C2322.38 105.909 2322.77 105.292 2323.18 103.765C2324.03 100.419 2321.57 97.1386 2319.07 98.2755Z" fill="#027223"/>
<path d="M264.585 123.618C262.303 124.309 261.088 125.982 261.088 128.346C261.088 132.856 266.021 134.929 269.445 131.801C273.237 128.383 269.518 122.091 264.585 123.618Z" fill="#027223"/>
<path d="M592.836 123.614C592.173 123.796 591.143 124.524 590.517 125.217C589.596 126.273 589.375 126.856 589.375 128.167C589.375 132.065 592.652 134.287 596.297 132.867C602.04 130.572 598.763 121.865 592.836 123.614Z" fill="#027223"/>
<path d="M1720.95 123.684C1718 124.558 1716.6 127.908 1718 130.785C1718.81 132.533 1720.17 133.298 1722.39 133.298C1725.56 133.298 1727.37 131.477 1727.37 128.272C1727.37 126.961 1727.14 126.379 1726.22 125.359C1725.6 124.631 1724.49 123.902 1723.75 123.684C1722.2 123.283 1722.39 123.283 1720.95 123.684Z" fill="#027223"/>
<path d="M2059.14 123.716C2056.2 124.554 2054.7 128.452 2056.31 131.038C2057.34 132.641 2058.66 133.333 2060.76 133.297C2063.77 133.26 2065.57 131.402 2065.57 128.27C2065.57 126.958 2065.35 126.375 2064.43 125.355C2063.81 124.627 2062.7 123.898 2061.97 123.68C2060.43 123.279 2060.61 123.279 2059.14 123.716Z" fill="#027223"/>
<path d="M2183.52 123.586C2180.2 124.605 2179.04 128.827 2181.33 131.556C2183.88 134.577 2188.87 133.485 2189.89 129.7C2190.88 125.988 2187.2 122.495 2183.52 123.586Z" fill="#027223"/>
<path d="M2320.21 123.595C2315.97 124.914 2315.49 130.813 2319.48 132.756C2323.36 134.661 2327.6 131.253 2326.47 127.112C2326.15 125.867 2323.97 123.595 2323.14 123.595C2322.89 123.595 2322.38 123.521 2321.98 123.411C2321.58 123.338 2320.78 123.411 2320.21 123.595Z" fill="#027223"/>
<path d="M2466.64 123.586C2463.32 124.605 2462.16 128.827 2464.45 131.556C2467 134.577 2471.99 133.485 2473.01 129.7C2474 125.988 2470.32 122.495 2466.64 123.586Z" fill="#027223"/>
<path d="M104.08 485.679C100.175 488.651 100.52 495.265 104.73 497.518C106.874 498.669 109.63 497.374 110.74 494.738C111.505 492.869 111.429 489.561 110.548 487.788C109.783 486.206 107.678 484.72 106.223 484.72C105.764 484.72 104.769 485.152 104.08 485.679Z" fill="#027223"/>
<path d="M263.783 488.362C260.428 489.324 260.133 492.997 263.304 494.254C264.52 494.723 267.174 494.772 268.464 494.328C268.943 494.156 269.754 493.638 270.234 493.169C271.376 492.035 271.229 490.26 269.902 489.324C268.059 488.017 266.068 487.696 263.783 488.362Z" fill="#027223"/>
<path d="M1101.38 488.224C1098.77 489.238 1097.82 490.699 1098.59 492.407C1099.22 493.843 1100.83 494.635 1103.11 494.635C1105.24 494.635 1106.71 494.14 1107.63 493.075C1108.88 491.664 1108.15 489.437 1106.16 488.545C1104.99 488.026 1102.34 487.852 1101.38 488.224Z" fill="#027223"/>
<path d="M1227.77 488.371C1225.9 489.039 1225.02 489.98 1225.02 491.342C1225.02 493.397 1226.89 494.635 1230.01 494.635C1236.32 494.635 1236.69 488.544 1230.41 488.049C1229.5 487.974 1228.58 488.073 1227.77 488.371Z" fill="#027223"/>
<path d="M1430.1 488.358C1428.63 488.826 1427.72 490.057 1427.72 491.534C1427.72 492.592 1427.85 492.838 1428.99 493.675C1430.14 494.561 1430.4 494.635 1432.03 494.635C1433.37 494.635 1434.05 494.512 1434.7 494.118C1438.98 491.583 1435.06 486.709 1430.1 488.358Z" fill="#027223"/>
<path d="M1720.04 488.443C1717.75 489.278 1716.76 491.367 1717.97 492.915C1718.93 494.119 1720.22 494.635 1722.5 494.635C1724.35 494.635 1724.64 494.561 1725.93 493.677C1727.22 492.841 1727.37 492.595 1727.37 491.539C1727.37 490.04 1726.45 488.959 1724.68 488.418C1723.02 487.878 1721.58 487.902 1720.04 488.443Z" fill="#027223"/>
<path d="M2058.28 485.285C2056.39 486.205 2055.46 488.046 2055.69 490.328C2055.83 491.874 2056.06 492.389 2057.2 493.42C2058.39 494.488 2058.76 494.635 2060.61 494.635C2062.53 494.635 2062.79 494.524 2064.12 493.199C2065.38 491.948 2065.57 491.58 2065.57 490.034C2065.57 485.985 2061.79 483.555 2058.28 485.285Z" fill="#027223"/>
<path d="M2182.71 488.496C2178.25 490.313 2179.93 494.635 2185.12 494.635C2187.27 494.635 2188.95 493.898 2189.68 492.621C2191.43 489.724 2186.65 486.876 2182.71 488.496Z" fill="#027223"/>
<path d="M2308.63 488.443C2307.44 489.057 2306.83 489.991 2306.83 491.244C2306.83 493.357 2308.07 494.635 2310.12 494.635C2313.57 494.635 2314.69 490.31 2311.72 488.492C2310.72 487.878 2309.73 487.878 2308.63 488.443Z" fill="#027223"/>
<path d="M2433.86 488.417C2431.97 489.031 2431.15 490.063 2431.34 491.661C2431.45 492.816 2431.67 493.111 2432.82 493.824C2434.01 494.537 2434.41 494.635 2436.19 494.635C2437.64 494.635 2438.41 494.487 2439.16 494.119C2444.05 491.563 2439.45 486.598 2433.86 488.417Z" fill="#027223"/>
<path d="M104.782 511.415C103.904 511.734 102.493 513.007 101.883 514.069C100.205 517.041 102.722 521.074 106.231 521.074C109.091 521.074 111.265 518.951 111.265 516.121C111.265 512.724 107.947 510.354 104.782 511.415Z" fill="#027223"/>
<path d="M234.824 507.965C234.035 508.516 235.863 509.839 241.132 512.523C265.36 524.91 314.604 528.108 350.981 519.654C356.966 518.257 365.138 515.5 369.439 513.478C372.987 511.788 377.861 508.773 377.861 508.296C377.861 507.634 376.858 507.744 374.421 508.7C358.006 515.169 317.901 518.588 283.638 516.382C263.46 515.096 245.038 511.898 236.867 508.296C235.863 507.855 235.146 507.744 234.824 507.965Z" fill="#027223"/>
<path d="M591.633 511.87C589.932 512.9 589.192 514.52 589.414 516.803C589.562 518.313 589.784 518.828 590.93 519.859C592.003 520.853 592.558 521.074 593.927 521.074C597.071 521.074 599.29 519.049 599.29 516.14C599.29 512.311 594.925 509.881 591.633 511.87Z" fill="#027223"/>
<path d="M852.895 511.851C851.336 512.81 850.538 514.138 850.465 515.835C850.393 518.971 852.387 521.074 855.36 521.074C859.277 521.074 861.633 517.053 859.675 513.769C858.189 511.298 855.179 510.412 852.895 511.851Z" fill="#027223"/>
<path d="M976.104 511.87C974.403 512.9 973.663 514.52 973.885 516.803C974.033 518.313 974.255 518.828 975.402 519.859C976.474 520.853 977.029 521.074 978.398 521.074C981.542 521.074 983.761 519.049 983.761 516.14C983.761 512.311 979.397 509.881 976.104 511.87Z" fill="#027223"/>
<path d="M1401.32 508.244C1400.74 509.187 1406.6 513.567 1412.2 516.323C1419.54 519.948 1429.62 522.629 1440.57 523.875C1448.27 524.743 1464.28 524.441 1471.11 523.346C1484.59 521.118 1494.53 517.569 1501.86 512.283C1507.1 508.508 1507.32 507.073 1502.33 509.339C1491.17 514.398 1475.26 516.852 1453.58 516.852C1447.69 516.852 1440.75 516.663 1438.18 516.474C1423.48 515.266 1410.75 512.434 1404.14 508.961C1401.61 507.639 1401.68 507.639 1401.32 508.244Z" fill="#027223"/>
<path d="M45.4136 1.28671C43.9741 3.37069 39.7996 7.39504 36.9926 9.3713C33.5379 11.8147 30.2271 13.4316 26.4125 14.6173C23.3536 15.5515 22.8857 15.5875 11.8377 15.7671C5.57602 15.8749 0.357909 16.0905 0.249948 16.1983C-0.181895 16.5936 -0.00196031 602.315 0.393896 602.711C0.645805 602.962 4.85628 603.178 12.0177 603.321C24.0373 603.537 24.6851 603.645 29.9032 605.801C35.2293 608.028 42.3187 613.526 45.1617 617.622C46.2773 619.203 47.4288 619.562 48.2565 618.556C48.6164 618.125 48.5444 617.586 47.8967 615.754C42.5706 601.094 31.1627 592.829 14.5368 591.572L11.19 591.32V27.6964L13.0973 27.5168C14.1049 27.409 16.1922 27.2293 17.7036 27.1215C22.9217 26.7263 29.9392 24.3548 34.1137 21.5162C37.1006 19.5041 40.1595 16.6295 42.2467 13.9346C45.7734 9.33535 49.1922 1.64602 48.2565 0.532128C47.5008 -0.402076 46.3492 -0.0787117 45.4136 1.28671Z" fill="#027223"/>
<path d="M458.864 147.038C455.504 148.621 455.103 153.408 458.097 155.691C459.412 156.648 462.297 156.685 463.648 155.764C468.87 152.34 464.524 144.424 458.864 147.038Z" fill="#027223"/>
<path d="M592.182 147.236C590.311 148.135 589.375 149.572 589.375 151.62C589.375 153.812 590.423 155.285 592.518 156.04C594.688 156.83 596.522 156.435 598.168 154.782C599.141 153.812 599.29 153.381 599.29 151.548C599.29 149.824 599.141 149.285 598.355 148.494C597.382 147.452 595.474 146.518 594.352 146.518C593.977 146.518 593.005 146.841 592.182 147.236Z" fill="#027223"/>
<path d="M854.015 146.696C852.768 146.95 851.081 148.691 850.678 150.177C849.578 154.021 852.878 157.284 856.802 156.233C861.57 154.964 861.57 148.147 856.802 146.805C855.519 146.442 855.409 146.442 854.015 146.696Z" fill="#027223"/>
<path d="M976.653 147.236C974.782 148.135 973.847 149.572 973.847 151.62C973.847 153.812 974.894 155.285 976.989 156.04C979.159 156.83 980.993 156.435 982.639 154.782C983.612 153.812 983.761 153.381 983.761 151.548C983.761 149.824 983.612 149.285 982.826 148.494C981.853 147.452 979.945 146.518 978.823 146.518C978.449 146.518 977.476 146.841 976.653 147.236Z" fill="#027223"/>
<path d="M2058.74 147.016C2054.83 148.724 2054.57 154.132 2058.34 155.805C2060.17 156.623 2060.72 156.623 2062.58 155.911C2065.51 154.773 2066.54 150.93 2064.52 148.617C2063.5 147.478 2061.67 146.518 2060.5 146.518C2060.13 146.553 2059.36 146.767 2058.74 147.016Z" fill="#027223"/>
<path d="M2183.51 146.813C2180.2 147.827 2179.04 152.03 2181.33 154.783C2183.15 156.92 2186.5 156.993 2188.57 154.928C2190.17 153.37 2190.46 151.631 2189.52 149.53C2188.93 148.226 2188.46 147.719 2187.22 147.175C2185.51 146.414 2185.08 146.342 2183.51 146.813Z" fill="#027223"/>
<path d="M1296.96 153.326C1294.52 153.812 1290.82 155.305 1288.67 156.624C1286.23 158.152 1283.03 160.999 1282.02 162.596L1281.27 163.742H1271.29V167.561H1279.55V205.719C1279.55 238.6 1279.62 243.912 1280.05 244.294C1281.05 245.093 1281.81 244.155 1282.67 240.961C1283.71 237.107 1286.8 231.065 1289.53 227.559C1290.64 226.1 1293.44 222.941 1295.7 220.51C1301.16 214.677 1303.89 210.962 1306.48 205.928C1309.13 200.685 1309.71 198.671 1309.96 193.255C1310.25 186.866 1309.13 180.304 1306.62 174.089L1305.97 172.457L1307.62 170.755C1308.52 169.853 1309.46 168.742 1309.67 168.325C1310.07 167.596 1310.32 167.561 1314.91 167.561H1319.76V163.742H1311.68L1311.65 161.728C1311.61 158.082 1309.24 155.096 1305.36 153.812C1303.5 153.187 1298.9 152.909 1296.96 153.326ZM1304.57 178.95C1305.79 183.533 1306.12 190.616 1305.25 194.435C1304.54 197.421 1301.92 202.803 1299.55 206.066C1296.06 210.858 1290 215.997 1284.65 218.705L1282.06 220.024V175.929L1284.18 177.005C1288.27 179.054 1294.91 178.637 1300.37 175.998C1302.42 174.991 1303.14 174.783 1303.35 175.13C1303.53 175.373 1304.07 177.075 1304.57 178.95Z" fill="#027223"/>
<path d="M1399.81 153.705C1396.21 154.597 1392.98 156.106 1390.27 158.129C1388.21 159.673 1385.12 162.828 1385.12 163.377C1385.12 163.548 1382.81 163.651 1379.98 163.651H1374.84V167.424H1383.29V224.734L1384.5 224.631L1385.68 224.528L1385.79 200.143L1385.86 175.758L1388.03 176.787C1390.85 178.09 1395.04 178.365 1399.04 177.576C1404.44 176.513 1410.54 172.843 1413.44 168.933L1414.54 167.424H1424.42V163.651H1415.97V161.765C1415.97 159.398 1415.24 157.684 1413.47 156.003C1410.72 153.362 1404.99 152.402 1399.81 153.705ZM1411.2 158.404C1412.67 159.673 1412.92 161.079 1411.97 162.519L1411.2 163.651H1402.31C1392.14 163.617 1392.36 163.788 1398.34 160.942C1402.53 158.918 1406.83 157.512 1408.7 157.478C1409.69 157.478 1410.39 157.752 1411.2 158.404ZM1404.77 168.316C1400.07 171.094 1393.35 173.597 1390.67 173.597C1387.62 173.597 1385.86 170.682 1387.47 168.35L1388.14 167.424H1397.21L1406.24 167.458L1404.77 168.316Z" fill="#027223"/>
<path d="M1691.35 153.323C1688.91 153.804 1685.21 155.279 1683.05 156.583C1680.61 158.093 1677.42 160.907 1676.41 162.486L1675.66 163.618H1665.67V167.393H1673.93V224.734L1675.12 224.631L1676.27 224.528L1676.37 200.095L1676.45 175.697L1678.56 176.727C1682.73 178.786 1689.26 178.339 1694.97 175.628C1698.06 174.187 1702.33 170.721 1703.73 168.594L1704.52 167.393H1714.15V163.618H1706.07L1706.03 161.628C1706 158.025 1703.63 155.073 1699.75 153.804C1697.88 153.186 1693.29 152.912 1691.35 153.323Z" fill="#027223"/>
<path d="M1813.63 153.663C1808.4 155.035 1803.23 158.259 1800.43 161.895L1799.07 163.645H1789.06L1789.17 165.428L1789.27 167.246L1797.53 167.452V224.528L1798.71 224.631L1799.86 224.734V175.273L1801.04 176.13C1807.1 180.52 1820.77 176.953 1826.44 169.544L1828.02 167.452H1832.79L1837.53 167.418V163.645H1829.64V161.998C1829.56 156.853 1825.69 153.56 1819.23 153.183C1816.9 153.046 1815.61 153.149 1813.63 153.663Z" fill="#027223"/>
<path d="M2500.68 153.672C2495.65 154.992 2490.73 158.049 2487.79 161.662L2486.07 163.781H2476.48V167.602H2484.56L2484.45 205.19C2484.41 225.895 2484.45 243.16 2484.56 243.542C2484.81 244.689 2485.89 244.897 2486.6 244.029C2486.96 243.612 2487.25 242.986 2487.25 242.639C2487.25 241.458 2489.15 236.525 2490.77 233.468C2492.82 229.577 2495.37 226.312 2500.54 220.753C2507.97 212.763 2511.2 207.935 2513.71 201.056C2514.68 198.451 2514.72 198.103 2514.72 191.399C2514.72 185.007 2514.65 184.173 2513.75 180.734C2513.21 178.684 2512.35 176.079 2511.88 174.863L2510.95 172.744L2512.42 171.111C2513.21 170.242 2514.14 169.096 2514.47 168.575L2515.04 167.602H2524.95V163.781H2516.69V161.94C2516.69 159.89 2515.51 157.111 2514.14 155.895C2511.34 153.394 2505.42 152.421 2500.68 153.672ZM2509.08 177.399C2510.41 181.95 2510.73 184.034 2510.73 188.446C2510.73 193.726 2510.19 195.984 2507.72 200.778C2503.8 208.456 2497.66 214.57 2489.91 218.565L2486.89 220.128V175.557L2488.08 176.426C2491.78 179.101 2499.53 178.927 2505.46 175.974C2506.6 175.419 2507.72 174.932 2507.93 174.897C2508.15 174.897 2508.65 176.044 2509.08 177.399Z" fill="#027223"/>
<path d="M429.638 170.071C429.638 170.744 434.447 174.878 437.368 176.727C454.218 187.383 482.395 191.181 507.901 186.24C516.735 184.526 526.46 180.963 532.409 177.265C535.544 175.315 539.747 171.987 540.531 170.811C541.528 169.399 540.424 169.365 538.394 170.71C529.132 176.962 510.786 181.03 489.484 181.601C466.151 182.173 444.35 178.172 432.88 171.147C430.173 169.5 429.638 169.332 429.638 170.071Z" fill="#027223"/>
<path d="M1430.1 173.507C1426.25 175.351 1427.31 181.402 1431.56 181.726C1433.28 181.887 1434.15 181.629 1435.31 180.593C1436.47 179.558 1436.53 179.364 1436.53 177.552C1436.53 175.934 1436.4 175.448 1435.7 174.737C1434.78 173.734 1433.12 172.957 1431.99 172.957C1431.56 172.957 1430.73 173.216 1430.1 173.507Z" fill="#027223"/>
<path d="M1720.44 173.36C1719.85 173.586 1718.91 174.198 1718.39 174.682C1717.6 175.391 1717.45 175.874 1717.45 177.421C1717.45 179.065 1717.6 179.451 1718.57 180.322C1721.83 183.254 1727.37 181.45 1727.37 177.453C1727.37 175.584 1726.24 174.069 1724.37 173.425C1722.58 172.812 1721.94 172.812 1720.44 173.36Z" fill="#027223"/>
<path d="M1401.47 181.963C1400.94 182.454 1401.37 182.84 1404.7 184.77C1422.86 195.367 1454.63 203.227 1492.71 206.595C1507.89 207.929 1514.84 208.209 1534.55 208.209C1546.25 208.209 1556.75 208.034 1561.15 207.753C1603.09 205.157 1635.18 198.665 1657.74 188.244C1661.74 186.384 1667.88 182.875 1667.88 182.419C1667.88 181.647 1667.06 181.822 1664.26 183.086C1639.55 194.384 1590.04 201.367 1534.55 201.367C1479.06 201.367 1429.56 194.384 1404.84 183.086C1401.44 181.542 1401.76 181.647 1401.47 181.963Z" fill="#027223"/>
<path d="M1694.33 182.12C1693.97 182.716 1699.58 188.227 1702.74 190.424C1709.99 195.414 1718.79 198.728 1730.32 200.776C1734.31 201.483 1736.32 201.595 1744.65 201.595C1751.04 201.632 1755.46 201.446 1757.58 201.148C1768.86 199.398 1777.73 196.419 1785.06 191.951C1790.41 188.711 1796.48 182.977 1795.58 182.046C1795.33 181.785 1794.64 182.046 1793.46 182.94C1786.6 188.004 1776.33 191.429 1762.07 193.44C1756.4 194.259 1740.27 194.594 1734.06 194.036C1717.64 192.546 1704.39 188.637 1696.88 183.051C1694.91 181.599 1694.73 181.525 1694.33 182.12Z" fill="#027223"/>
<path d="M2395.02 202.93C2395.37 204.995 2399.52 213.329 2402.04 216.988C2403.28 218.764 2405.9 221.88 2407.85 223.872C2425.16 241.554 2452.11 246.336 2473.25 235.503C2475.13 234.525 2476.48 233.619 2476.48 233.293C2476.48 232.604 2476.55 232.604 2473.11 233.655C2468.29 235.177 2465.27 235.648 2459.28 235.902C2450.41 236.228 2443.11 235.141 2433.81 232.025C2430.94 231.046 2426.47 229.199 2423.88 227.894C2411.44 221.626 2403.14 214.053 2396.22 202.568C2395.34 201.155 2394.77 201.3 2395.02 202.93Z" fill="#027223"/>
<path d="M533.511 204.319C508.563 224.397 463.099 238.855 408.091 244.152C342.933 250.486 278.347 242.398 240.639 223.216C235.742 220.746 230.81 217.812 227.7 215.521C225.056 213.589 224.734 213.481 224.734 214.376C224.77 215.736 235.885 223.645 243.963 228.047C287.247 251.632 361.126 259.648 430.252 248.267C476.431 240.68 513.996 225.112 535.262 204.785C537.514 202.602 538.122 201.6 537.156 201.6C537.014 201.6 535.369 202.816 533.511 204.319Z" fill="#027223"/>
<path d="M1590.43 338.268C1549.41 339.563 1514.69 344.275 1484.17 352.621C1460.51 359.096 1439.12 368.485 1424.63 378.773C1422.69 380.14 1421.11 381.399 1421.11 381.579C1421.11 382.407 1421.97 382.119 1425.25 380.068C1470.61 352.189 1562.75 339.527 1659.81 347.801C1730.02 353.772 1789.05 370.643 1820.25 393.666C1821.19 394.35 1821.73 394.529 1821.98 394.278C1822.45 393.81 1821.8 393.162 1817.45 389.781C1781.36 361.614 1713.48 342.872 1632.67 338.771C1625.19 338.412 1597.01 338.052 1590.43 338.268Z" fill="#027223"/>
<path d="M1084.61 407.855L1082.96 406.748C1080.09 404.904 1075.35 404.35 1071.15 405.457C1067.02 406.527 1063.21 408.777 1060.02 412.061C1054.71 417.484 1053.41 422.982 1056.43 427.557L1057.29 428.885H1046.55V432.943H1095.03V428.885H1076.64L1078.8 427.409C1081.74 425.38 1084.51 422.207 1085.83 419.292L1086.95 416.894L1087.16 354.727H1084.61V407.855Z" fill="#027223"/>
<path d="M409.031 358.248C371.615 360.458 337.955 367.16 310.255 377.897C290.066 385.722 275.512 394.389 264.569 405.055C259.007 410.494 253.734 417.512 254.565 418.319C254.998 418.74 255.106 418.599 257.779 415.091C260.379 411.652 266.23 406.143 270.961 402.704C298.951 382.283 350.704 368.213 408.85 365.265C417.915 364.809 438.537 364.809 447.133 365.265C497.044 367.932 534.929 379.722 554.576 398.775C562.124 406.038 566.386 413.161 568.806 422.389C569.709 425.968 570.648 427.477 570.648 425.371C570.612 423.757 569.348 418.67 568.12 415.266C560.535 394.599 540.166 378.704 508.312 368.634C492.747 363.722 475.447 360.599 453.814 358.739C446.591 358.107 416.832 357.792 409.031 358.248Z" fill="#027223"/>
<path d="M1637.48 361.697C1637.16 362.017 1637.05 369.722 1637.05 396.85C1637.05 418.297 1636.91 431.577 1636.73 431.577C1636.52 431.577 1636.27 431.4 1636.13 431.187C1636.02 430.974 1635.16 430.476 1634.23 430.05C1632.84 429.411 1631.91 429.305 1628.31 429.305C1624.56 429.305 1623.7 429.411 1621.63 430.228C1617.99 431.613 1615.39 433.282 1612.6 436.016C1609.28 439.282 1608 441.768 1607.86 445.425C1607.75 447.84 1607.82 448.301 1608.82 450.112L1609.89 452.172H1599.58V456.078H1647.76V452.172L1638.62 452.101L1629.45 451.994L1631.31 450.787C1634.09 449.012 1636.95 445.922 1638.23 443.295L1639.37 440.987L1639.48 413.752C1639.52 397.525 1639.7 386.482 1639.91 386.482C1640.09 386.482 1641.62 387.441 1643.37 388.577C1647.19 391.134 1651.65 395.537 1654.72 399.797C1657.11 403.135 1660.11 408.71 1660.47 410.485C1660.65 411.515 1660.61 411.551 1658.86 412.012C1653.04 413.504 1646.91 418.12 1644.41 422.949C1643.3 425.115 1643.98 425.044 1646.58 422.736C1647.65 421.777 1649.48 420.499 1650.58 419.895C1652.65 418.83 1657.43 417.303 1660.18 416.877L1661.68 416.664V418.723C1661.68 423.517 1660.11 431.719 1658.08 437.507C1657.51 439.105 1657.04 440.809 1657.04 441.342C1657.04 442.159 1657.18 442.265 1658.04 442.159C1658.83 442.088 1659.22 441.626 1660.33 439.566C1662.9 434.702 1664.57 428.523 1665.29 420.96L1665.72 416.664H1667.93C1674.21 416.664 1681.6 419.362 1685.42 423.091C1687.95 425.541 1688.52 424.724 1686.42 421.635C1682.49 415.847 1676.35 412.261 1668.46 411.231L1665.11 410.769L1664.82 409.385C1663.82 404.485 1660.58 397.312 1657.33 392.873C1656.26 391.418 1653.44 387.547 1651.05 384.28C1644.16 374.871 1642.23 371.391 1640.27 364.645C1639.52 362.123 1639.2 361.413 1638.62 361.342C1638.27 361.307 1637.73 361.449 1637.48 361.697Z" fill="#027223"/>
<path d="M1208.37 419.6L1206.6 418.594C1201.05 415.325 1192.92 417.013 1186.56 422.725C1185.39 423.766 1184.02 425.347 1183.45 426.281L1182.44 427.933H1173.24V431.884H1180.87L1180.84 433.932C1180.8 437.56 1182.68 440.613 1185.89 442.193C1187.86 443.163 1194.49 443.055 1197.33 441.978C1201.71 440.361 1206.37 436.733 1208.27 433.501L1209.21 431.884H1218.41V427.933H1210.71V367.947H1208.37V419.6Z" fill="#027223"/>
<path d="M1413.4 419.627L1412.33 418.874C1410.35 417.511 1408.26 417.009 1404.59 416.973C1400.25 416.937 1396.25 418.157 1392.32 420.667C1389.75 422.317 1386.41 425.473 1385.53 427.051C1385.12 427.804 1384.9 427.84 1379.98 427.84H1374.84V431.785H1383.29V433.614C1383.29 439.317 1386.85 442.509 1393.57 442.831C1397.46 443.011 1400.77 442.293 1404.77 440.393C1407.96 438.886 1411.64 435.91 1413.44 433.363L1414.54 431.785H1424.42V427.84H1415.9L1415.97 426.657C1416.01 426.047 1416.04 412.562 1416.01 396.71L1415.97 367.947H1413.4V419.627Z" fill="#027223"/>
<path d="M1537.39 393.744C1537.39 408.327 1537.24 419.577 1537.06 419.577C1536.88 419.577 1536.56 419.326 1536.31 419.04C1535.66 418.251 1532.43 417.177 1529.85 416.89C1523.46 416.245 1514.3 420.652 1510.42 426.241L1509.34 427.818H1499.33V431.759H1507.76V434.196C1507.8 437.241 1508.99 439.534 1511.43 441.075C1518.11 445.303 1531.07 441.648 1536.67 433.945L1538.28 431.759H1547.8V427.818H1539.72V368.162L1538.57 368.054L1537.39 367.947V393.744Z" fill="#027223"/>
<path d="M1703.73 406.467C1703.73 420.389 1703.63 431.696 1703.45 431.625C1703.3 431.555 1702.23 431.06 1701.04 430.459C1698.31 429.117 1693.72 428.834 1690.09 429.753C1678.17 432.792 1670.41 444.205 1675.62 451.025L1676.48 452.191H1665.67V456.078H1714.15V452.191H1695.76L1698.38 450.318C1703.09 446.996 1705.89 442.65 1706 438.41C1706.03 437.35 1706.03 424.028 1705.96 408.799L1705.89 381.166H1703.73V406.467Z" fill="#027223"/>
<path d="M1827.12 432.014L1825.83 431.166C1820.02 427.279 1809.65 429.329 1802.87 435.654C1797.52 440.671 1796.05 446.466 1799 450.848L1799.86 452.191H1789.06L1789.17 454.028L1789.27 455.901L1813.42 456.007L1837.53 456.078V452.191H1819.16L1821.28 450.777C1824.29 448.799 1826.98 445.866 1828.31 443.11L1829.46 440.707L1829.56 410.919L1829.64 381.166H1827.12V432.014Z" fill="#027223"/>
<path d="M1465.42 394.618C1448.04 395.788 1431.36 401.985 1422.99 410.419C1421.47 411.969 1420.9 412.76 1421.18 413.036C1421.43 413.277 1422.18 412.967 1423.63 412.003C1437.29 403.018 1465.42 399.093 1492.03 402.501C1504.34 404.085 1515.44 407.528 1521.86 411.796C1523.63 412.967 1524.31 413.277 1524.63 412.967C1525.16 412.451 1519.91 407.493 1516.5 405.324C1503.95 397.372 1484.75 393.344 1465.42 394.618Z" fill="#027223"/>
<path d="M1756.91 407.74C1738.34 408.674 1722.25 413.317 1713.29 420.339C1711.04 422.066 1710.32 423.029 1711.22 423.029C1711.43 423.029 1712.54 422.519 1713.69 421.896C1721.25 417.819 1734.83 414.761 1750.28 413.657C1756.4 413.233 1769.88 413.233 1775.72 413.657C1791.88 414.846 1804.42 417.649 1812.24 421.754C1814.82 423.085 1815.5 423.283 1815.5 422.66C1815.5 422.179 1811.3 418.98 1808.69 417.451C1804.07 414.761 1797.11 412.157 1790.3 410.571C1780.74 408.306 1767.59 407.202 1756.91 407.74Z" fill="#027223"/>
<path d="M1101.79 413.421C1098.41 414.425 1097.17 418.874 1099.61 421.35C1102.48 424.292 1106.99 423.215 1108.08 419.305C1108.73 416.973 1107.42 414.569 1104.99 413.564C1103.64 412.99 1103.28 412.99 1101.79 413.421Z" fill="#027223"/>
<path d="M1227.91 413.75C1225.97 414.615 1225.02 416.058 1225.02 418.15C1225.02 424.352 1234.13 424.785 1234.9 418.618C1235.15 416.635 1234.13 414.904 1232.12 413.858C1230.18 412.885 1229.81 412.885 1227.91 413.75Z" fill="#027223"/>
<path d="M1430.84 413.353C1428.84 414.04 1427.72 415.702 1427.72 418.014C1427.72 420.038 1428.57 421.663 1430.12 422.458C1431.62 423.253 1432.48 423.217 1434.15 422.35C1438.91 419.785 1435.89 411.619 1430.84 413.353Z" fill="#027223"/>
<path d="M314.851 426.702C292.312 428.235 271.842 434.673 259.539 444.177C253.762 448.622 252.549 451.343 257.898 447.932C269.025 440.728 289.745 435.708 313.959 434.328C346.055 432.527 379.078 438.084 394.27 447.932C399.62 451.343 398.407 448.622 392.63 444.177C376.047 431.378 345.877 424.633 314.851 426.702Z" fill="#027223"/>
<path d="M1720.44 436.708C1719.85 436.961 1718.91 437.646 1718.39 438.188C1717.6 438.981 1717.45 439.523 1717.45 441.255C1717.45 443.095 1717.6 443.528 1718.57 444.502C1720.18 446.126 1722.05 446.559 1724.15 445.801C1726.28 445.007 1727.37 443.42 1727.37 441.146C1727.37 439.234 1726.09 437.502 1724.11 436.708C1722.61 436.095 1721.9 436.095 1720.44 436.708Z" fill="#027223"/>
<path d="M1046.55 456.078H1095.03V452.773H1046.55V456.078Z" fill="#027223"/>
<path d="M1173.24 456.078H1218.41V452.773H1173.24V456.078Z" fill="#027223"/>
<path d="M1374.84 456.078H1424.42V452.773H1374.84V456.078Z" fill="#027223"/>
<path d="M1499.33 456.078H1547.8V452.773H1499.33V456.078Z" fill="#027223"/>
<path d="M263.703 463.222C262.082 464.031 261.088 465.724 261.088 467.673C261.088 470.8 262.929 472.602 266.133 472.602C268.011 472.602 269.3 471.867 270.294 470.211C272.835 466.091 268.048 461.015 263.703 463.222Z" fill="#027223"/>
<path d="M592 463.23C588.731 464.84 588.438 470.038 591.56 471.868C593.543 473.04 596.041 472.783 597.73 471.283C598.869 470.221 599.089 469.782 599.236 468.061C599.383 466.268 599.273 465.902 598.355 464.84C596.555 462.717 594.278 462.132 592 463.23Z" fill="#027223"/>
<path d="M853.298 463.075C851.642 463.814 850.463 465.66 850.463 467.506C850.463 470.644 852.525 472.674 855.655 472.6C861.803 472.526 862.024 463.408 855.876 462.706C855.066 462.632 853.924 462.78 853.298 463.075Z" fill="#027223"/>
<path d="M976.349 463.454C974.693 464.294 973.847 465.791 973.847 467.799C973.847 470.318 975.576 472.363 977.894 472.545C980.065 472.728 980.911 472.509 982.199 471.34C983.34 470.282 983.56 469.843 983.707 468.128C983.855 466.338 983.744 465.973 982.824 464.915C981.721 463.6 979.918 462.687 978.556 462.687C978.078 462.724 977.085 463.053 976.349 463.454Z" fill="#027223"/>
<path d="M2058.38 463.331C2056.4 464.207 2055.44 465.958 2055.7 468.294C2056.21 472.563 2061.37 474.095 2064.35 470.884C2065.35 469.79 2065.57 469.279 2065.57 467.892C2065.57 465.63 2064.5 463.988 2062.62 463.222C2060.74 462.492 2060.19 462.492 2058.38 463.331Z" fill="#027223"/>
<path d="M2182.98 463.311C2178.34 465.652 2179.69 472.528 2184.81 472.601C2187.16 472.638 2188.73 471.687 2189.61 469.748C2190.74 467.115 2189.64 464.225 2187.12 463.164C2185.51 462.506 2184.48 462.506 2182.98 463.311Z" fill="#027223"/>
<path d="M2308.72 463.075C2307.61 463.814 2306.83 465.66 2306.83 467.506C2306.83 470.644 2308.2 472.674 2310.29 472.6C2314.39 472.526 2314.53 463.408 2310.44 462.706C2309.9 462.632 2309.13 462.78 2308.72 463.075Z" fill="#027223"/>
<path d="M2433.81 463.454C2432.16 464.294 2431.31 465.791 2431.31 467.799C2431.31 470.318 2433.04 472.363 2435.36 472.545C2437.53 472.728 2438.38 472.509 2439.66 471.34C2440.8 470.282 2441.03 469.843 2441.17 468.128C2441.32 466.338 2441.21 465.973 2440.29 464.915C2439.19 463.6 2437.38 462.687 2436.02 462.687C2435.54 462.724 2434.55 463.053 2433.81 463.454Z" fill="#027223"/>
</svg>
