<svg xmlns="http://www.w3.org/2000/svg"><path d="m1558.3.2-9.8.4c-44.5 2.2-84.3 9.8-110.9 21.1-4.7 2-13 6.2-14.1 7.1-1.4 1.2 0 1.4 2 .3 3.1-1.5 13.4-5.5 18.7-7.1 25-7.8 55.7-12.4 96.2-14.6 11.7-.6 43-.8 57.2-.4 68 2.2 131.4 11.8 177.9 27.1 6.9 2.3 16.2 5.7 16.5 6 .2.2-56.3.2-125.3.2H1541V28.8l-.2-11.5-1.1-.1-1.2-.1v23.2H1416V17.1h-2.5v23.2h-201.3V17.1h-2.5v23.2h-122.3V28.8l-.2-11.5-1.1-.1-1.2-.1v23.2H962.2V29.6h-2.5v10.7H837.5V29.6H835v10.7H697.5c-127.6 0-137.5 0-137.9-.6-2-2.3-10.7-8.4-17-11.8C509.2 9.7 451 2.8 389.7 9.6c-40.6 4.5-80.3 15.5-104.5 28.9l-3.4 1.8H98.8V35A46 46 0 0 0 96 18.1c-2-6-5.6-11.2-7.8-11.8-1.3-.4-3.7 1.1-6.4 4a20 20 0 0 0-4.4 6.2c-2.8 5.7-4.6 14-4.6 20.7v3.1H23v539.5h220.4l2.8 1.8c38 23.5 107.8 38.6 173.5 37.5 13.5-.3 19.1-.6 30.6-1.7 33.2-3.3 60.8-11.5 78.1-23 6.4-4.3 12.5-9.7 11.4-10-.4-.2-1.3.3-2.7 1.4a73 73 0 0 1-14.2 8.7c-19.4 9.5-47 15.2-82.4 17.2A473.3 473.3 0 0 1 291 595.4a257.4 257.4 0 0 1-37.2-13.6l-4-1.9h230.5v5.4c0 4.6 0 5.7.5 6.1 1.2 1.2 1.7.6 2.9-3.5.5-1.8 1.4-4.3 2-5.7l1.1-2.4h60.3v10.8h2.5v-10.8h255.7v10.8h2.5v-10.8h122.6v10.8h2.5v-10.8l488.3.2 5.1 2a395.8 395.8 0 0 0 94 18.7c21.7 2 34.5 2.6 61.4 2.6a547 547 0 0 0 48.3-1.5c43.8-3 84.8-10.2 115.1-20.2l5.4-1.8H2558V478.3h-151l2.2-1.5c4.5-2.8 8-7.4 8.5-11.4.2-1 .3-14.8.2-30.6V406h-2.6v51l-2.1-1c-2-1-2.6-1.2-5.8-1.3-3-.2-3.9 0-6.5.8-1.6.5-4 1.5-5.2 2.2-3.2 1.9-7.1 5.8-8.4 8.5-1.9 3.9-1.6 8.2.5 10.8l1.1 1.2h-17.1l1.4-1.5c4-4.3 6-8.5 6.3-13.2.4-7.2-2.5-11.2-8.1-11.2-2.4 0-5 1-7.1 2.6l-.9.6.1-16c.2-17.4.2-16.7-1.8-16.7s-2-1.7-1.7 28l.2 27.4h-78.4l2.3-1.4c2.8-1.6 6.4-5.4 7.7-8.1l1-2.1.2-30.3V406h-2.4v25.5c0 14.1-.2 25.6-.3 25.6l-1-.7c-2.5-1.9-8.6-2.4-13-1a23.5 23.5 0 0 0-10.1 6 24.3 24.3 0 0 0-3.8 4.6c-.8 1.8-1 2.4-1 5.3 0 3 0 3.3 1.2 5l1.1 1.9H2157l2-1.1c2.9-1.7 6.4-5.4 7.9-8.4l1.2-2.5.2-60.2h-2.5v25.5c0 15.8-.2 25.6-.4 25.6a.6.6 0 0 1-.5-.3c-.1-.2-1-.7-1.9-1.1a20 20 0 0 0-10.1-.7c-10 2.3-18 11.3-16.5 18.4.3 1 .9 2.6 1.5 3.3l1 1.5h-106.7l1.8-1.1c4.1-2.6 7.4-6.3 8.6-9.6.7-2 .7-1.3.6-33.4v-28.1h-2.6v51l-2.2-1.1c-2-1-2.6-1.1-5.8-1.2-3.3-.2-4 0-6.7 1-4.2 1.3-6.7 2.9-9.6 5.7-5.2 5.1-6.4 11.3-3.1 15.4l1 1.4h-11.5v-14c0-14.6 0-15-1.4-15-.4 0-3.2.8-6.3 1.7l-6.1 1.6c-.4 0-.5-2-.5-8.6v-8.6h-2.5v42.9h-155v-2.4c0-2.9-.9-4.8-3-6.5-2-1.8-4.3-2.4-8.4-2.3-3.1 0-4 .1-6.6 1.1a24.2 24.2 0 0 0-11.7 9l-.6 1.1h-94.7l.2-1.2c.3-1.8-.4-4.6-1.6-6.2-2.4-3.3-8.3-4.8-13.7-3.5a26 26 0 0 0-14.2 9.3l-1 1.6h-36.1v-2.1c0-10.3-13.8-12.6-25-4.1-1.3 1-3 2.7-4 4l-1.6 2.2H951.3l2.3-1.5c4.5-2.8 8-7.4 8.5-11.4.2-1 .3-14.8.2-30.6V406h-2.6v51l-2.1-1c-2-1-2.6-1.2-5.8-1.3-3-.2-3.9 0-6.5.7-8.3 2.6-14.9 9.6-14.9 16a8 8 0 0 0 1.9 5.6l1 1.2H826.3l2.3-1.3c2.8-1.7 6.4-5.5 7.7-8.2l1-2.1.2-30.3V406H835v25.5c0 14.1-.2 25.6-.3 25.6l-1-.7c-2.5-1.9-8.6-2.4-12.9-1a24.5 24.5 0 0 0-14 10.7c-.8 1.7-1 2.3-1 5.2 0 3 0 3.3 1.2 5l1.1 1.9H578.9v-60.1h-2.5v25.9c0 24.7 0 25.7-.6 25.2-2.3-2.1-7.7-3-12-2-5.4 1.3-11 5-14 9l-1.4 2h-15.6l1-1.8a57.8 57.8 0 0 0 4.6-19.4l.2-3.1h2.6c3.5 0 8.1.8 11.6 2.1a26 26 0 0 1 8.6 5.3c.5.6 1 .8 1.3.7 1-.4-.7-2.9-4-6.2a18 18 0 0 0-6.2-4.5c-4-1.9-6.8-2.6-11.3-3l-3.2-.2-.8-3.1a50 50 0 0 0-10.5-19.4c-6.9-9.3-8.6-12-10.5-15.6a45.4 45.4 0 0 1-3.6-9.8c-.3-1.5-1.3-2-2.1-1.4-.5.4-.6 5.3-.6 35.6v35.2l-1.3-.8c-6.7-4.5-19.5-.8-25.2 7.3l-1.5 2-79 .1 1.7-1.1c4.2-2.6 7.4-6.3 8.6-9.6.7-2 .7-1.3.6-33.4v-28.1h-2.5v51L409 456c-1.9-1-2.6-1.1-5.8-1.2-3.3-.2-4 0-6.7 1-4 1.3-6.6 2.8-9.6 5.7-5.1 5-6.4 11.3-3.1 15.4l1 1.4h-73c-56.7 0-73-.1-72.4-.5 2.8-1.7 3.8-2.5 5.7-4.4 1.3-1.2 2.5-3 3.2-4.4l1.2-2.3v-30.3l.1-30.3h-2.5v51l-2.1-1c-2-1-2.6-1.2-5.9-1.3-3-.1-4 0-6.3.7-4.1 1.3-7.3 3.3-10.2 6.2-3.2 3.2-4.5 5.8-4.7 9.1-.2 2.9.3 4.6 1.8 6.3l1 1.2H27.7V141.5H58c16.7 0 30.4.2 30.5.3l1.4 7c1 5.6 1.1 7.8 1.1 12.2 0 4.8 0 5.6-.8 7.4-2.3 6-6.7 8.6-14.1 8.6-3.4 0-5.9-.5-4.5-1 4.2-1.2 6.6-3 8.1-6.2.8-1.7 1-2.5 1-4.7 0-4.4-2.2-8-6.2-9.9a12.3 12.3 0 0 0-9.5-.2c-2.3 1-4.3 3-5.5 5.3-.9 1.6-1 2.1-1 5.9 0 3.8.1 4.2 1.1 6.2 3.1 6.2 9.5 9.2 18.2 8.7 6-.3 11-2.5 13.6-5.9.7-.9 1.8-3 2.4-4.5l1.2-3v-6.5a58 58 0 0 0-1-12.4l-1.1-6.5-.2-.8h125.1v2.5c0 2.9.5 4.3 2.1 6.2 1.7 1.8 4.3 2.9 8 3l3 .2-2.4 1.2a29.8 29.8 0 0 0-8.5 7.4l-.5 1h-9.9v3.9h8.3l-.1 1.5v58.2h2.2V201c0-14 0-25.5.3-25.5 4.4 2.3 4.3 2.3 8.6 2.3a16 16 0 0 0 6.7-1 25 25 0 0 0 11.6-8.3l1-1.6h9.7v-4h-8.3v-2c0-2.6-.8-4.6-2.8-6.3-1.8-1.5-4-2.3-7.3-2.6l-2.4-.2 2.5-1.4c3-1.7 6.3-4.7 7.9-7.1l1.1-1.8h39.7c21.8 0 39.6 0 39.6.2l-1.9 1.2a26.8 26.8 0 0 0-7.6 7c-2.3 3.8-2.3 2-2.3 44.4 0 21 .2 38.6.3 38.9.2.7 1.9.8 2 .1a48 48 0 0 1 13.5-23.7c2.2-2.5 5-5.7 6.1-7.2a41.9 41.9 0 0 0 8.2-17.6l.4-2.8 3 1.2a52.8 52.8 0 0 0 22.5 3.6c6.7-.2 11-1 16.3-2.7a38.6 38.6 0 0 0 17-11c2.5-3.2 2-4-1-1.6-7.3 5.9-19.4 9-34.4 9-8.6 0-13.4-.6-20.6-2.6l-2.8-.7-.2-2.7c-.3-3.4-1.6-9.2-3-12.4l-.9-2.4 1.8-1.8c.9-1 2.1-3 2.7-4.2 1-2 1.1-2.8 1.1-4.9 0-2.7-.6-4.2-2.4-6.1l-1-1.2h37.5l-.2 2.2c-.4 5.6 3.3 9.2 9.8 9.5a22.9 22.9 0 0 0 20-10.2l1-1.5h10.8l-2.3 1.3c-3.1 1.8-7.1 5.9-8.4 8.4-.5 1-1.1 3-1.3 4.1-.2 1.3-.3 13.8-.3 30.4v28.4h2.5V163l1.9 1a18 18 0 0 0 14.3.2c11.3-4.2 17-15.3 11-21.4l-1.2-1.3h119.3l-2.5 1.5a24 24 0 0 0-8.2 8.3l-1 2.2-.2 30.3V214h2.4V163l1.3.9c2 1.2 3.8 1.7 7.5 1.6 6.9 0 14-3.6 17.8-9 2.1-3 2.7-4.9 2.7-7.7 0-2.7-.5-4.1-2.1-6l-1.1-1.3h241.9l-2.3 1.4a25.5 25.5 0 0 0-8.4 8.3c-.5 1-1 3-1.3 4.1-.2 1.3-.3 13.8-.3 30.4v28.4h2.5V163l1.9 1c4.9 2.8 13.1 1.8 19.2-2.3 2.8-1.8 6.3-5.6 7.4-8 1.9-4 1.4-8.3-1.2-10.9l-1.3-1.3h108.6l-2.5 1.5c-3.2 2-6.5 5.2-8 8.2l-1.3 2.3-.1 30.3V214h2.4V163l1.3.9c2 1.2 3.8 1.7 7.5 1.6 6.9 0 14-3.6 17.8-9 2.1-3 2.7-4.9 2.7-7.7 0-2.7-.5-4.1-2.1-6l-1.1-1.3 125.7.2.1 14.8v14.7h1.3l1.1-.2.1-14.8v-14.7h52.3c28.7 0 52.2 0 52.2.2l-2 1.3a27 27 0 0 0-8.1 8c-.5 1-1.1 2.7-1.3 4-.3 1.3-.4 11.5-.4 30.6V214h2.5v-51.2l1 .8c1.9 1.3 4 1.8 7.4 1.8 6.3.1 11.5-2 16.1-6.6 3.3-3.3 4.8-6 5-9.1a8 8 0 0 0-2-6.7l-1.5-1.6h407.3c224 0 407.3 0 407.3.2l-2.4 1.4a22 22 0 0 0-8 8.3l-1.2 2.4-.1 30.1-.1 30.2h2.5V163l1.3.9c1.9 1.2 3.8 1.7 7.5 1.6 10.4 0 20.7-8.4 20.6-16.8 0-2.4-.7-4-2.2-5.9l-1.2-1.3h54c29.8 0 54 0 54 .2l-1.8 1.2a26.8 26.8 0 0 0-7.7 7c-2.3 3.7-2.2 3-2.2 35.1v29h2.5v-51l1 .7c2 1.3 4 1.8 7.4 1.8 6.1 0 11.7-2.3 16.2-6.7 3.4-3.4 4.9-6.3 4.9-10 0-2.7-.6-4.2-2.4-6.1l-1.1-1.2h96.3v14.7l.2 14.8 1.1.1 1.2.1v-14.7l.2-14.8 134.4-.2-2.5 1.5c-3.2 2-6.5 5.2-8 8.2l-1.3 2.3-.1 30.3V214h2.4V163l1.3.9c1.9 1.2 3.8 1.7 7.5 1.6 6.8 0 14-3.6 17.8-9 2.1-3 2.7-4.9 2.7-7.7 0-2.7-.5-4.1-2.1-6l-1.1-1.3h6.2l-.3 1.8a8.7 8.7 0 0 0 5.2 9c2.3 1 7.3 1.3 10.4.5a24.5 24.5 0 0 0 13.8-9.1l1.4-2.2h106.5l.2-101.2h-757.9L1795 38C1752 17.3 1683.4 3.4 1608.3.3c-7.3-.3-44.6-.4-50-.1ZM467.8 15c38.8 3.2 66.5 10.6 85.4 22.8l3.4 2.3H290.2l5.6-2.3a388.9 388.9 0 0 1 115-23l8.5-.5a1113.3 1113.3 0 0 1 48.4.7ZM90 20.9c1 1 2 3.2 2.5 5.7.8 3.1.6 9.2-.4 11.8l-.6 2H78V39c0-2.1 1.5-7.2 3-10.4 1.8-3.7 4.4-6.8 6.5-7.7 1.7-.8 1.8-.8 2.5-.1ZM72.8 46.3c.1 1.8.6 5.6 1 8.7l.9 5.5-2.2 2.2-2.1 2.3H27.6V43.2h45l.2 3.1Zm17-2.9a52 52 0 0 1-7.3 9.4c-3 3-3.6 3.6-3.8 3-.4-1-1-7.7-1-10.3v-2.3h6c3.4 0 6.1.1 6.1.2Zm184 1.8a95.6 95.6 0 0 0-12.5 10.1c-4 4-5.1 5.3-4.6 5.8.3.3 1.3-.4 3.2-2.2 5.3-5 13-10.2 20.8-14l3.3-1.7h226V65h-96.2V53.9h-1.2l-1.2.2-.2 10.9H249.6V53.9h-1.1l-1.2.2-.2 10.9H139.9v-9c0-8-.1-9.2-.6-9.4-1-.3-2.6-.2-2.9.2a87 87 0 0 0-.1 9.3V65H88.6l1.7-2.6c3.3-5 6.4-12 7.5-17.2l.4-2H277l-3 2Zm289 .4c1.3 1.3 3.3 3.5 4.3 4.8 1 1.4 2 2.4 2.2 2.4 1.1 0-.8-3.2-4.3-7.5l-1.8-2.1h13.2V65h-51.8l-3.1-4.5A52 52 0 0 1 513 44l-.2-.8h47.5l2.5 2.4ZM734.5 65H578.9V43.2h155.6V65ZM835 65h-96.2V43.2H835V65Zm124.7 0H837.5V43.2h122.2V65Zm125.2 0h-50v-6h-2.6v6h-70V43.2h122.6V65Zm124.8 0h-51.9v-8.9c0-6.4 0-9-.4-9.3-.6-.6-2.6-.5-3.2.1-.3.5-.4 2.5-.2 9.3l.2 8.8h-66.8V43.2h122.3V65Zm138 0h-135.5V43.2h135.5V65Zm65.8 0H1352V43.2h61.5V65Zm125.1 0h-22.2l-2-1.2c-5-3-10-5-16.5-6.9-22.3-6-48.8-3.5-65.9 6.3l-3 1.8h-13V43.2h122.6V65Zm98.4 0H1541V43.2h95.9V65Zm66.8 0h-52l-2.5-3.5a55.5 55.5 0 0 1-9-16.5l-.5-1.8h64V65Zm102-18.8c3.4 1.7 8.2 4.2 10.8 5.7 3 1.9 4.7 2.7 5 2.4.5-.6-5.4-4.9-12.8-9.2l-3.3-2h23V65H1706V43.2h93.7l6.1 3ZM1965.3 65H1831V43.2h134V65Zm75.4 0h-70.8V43.2h70.8V65Zm125.2 0H2043V43.2h122.7V65Zm134.8 0h-132.3V43.2h132.3V65Zm252.8 0h-100.8l-.3-11h-1.1l-1.2-.1V65h-147.3V43.2h250.7V65Zm-1071.1-4c6.7.5 14.8 1.7 19.6 3l4 1h-33.3c-21 0-32.8-.2-32.1-.4 4.2-1.3 17-3.3 23.6-3.6 5-.3 13.6-.3 18.2 0ZM62.6 72.5a67 67 0 0 0-11.3 14.5L50 89.7H27.6V67.9H67l-4.4 4.5Zm73.7 17.3H84.1l-.2-.9c-.4-1.6-2.3-14-2.3-14.8 0-.5.9-1.9 2.2-3.5l2.3-2.6h50.2v21.8Zm110.8 0h-91.3v-3.9c0-3.5 0-4-1-5.7a7.6 7.6 0 0 0-8-4.2c-2.2.2-3.3.6-5.4 2l-1.7 1 .1-5.6.1-5.4h107.2v21.8Zm164.2 0H249.6V67.9h161.7v21.8Zm98.6 0h-96.1V67.9h96.1v21.8Zm8.1-20.3c2.8 2 7.5 7 9.8 10.3 1.7 2.4 4.2 7 5 9.1l.4.9h-20.8V67.9h1.8c1.5 0 2 .2 3.8 1.5Zm58.4 20.3H538l-.4-1.6a51.3 51.3 0 0 0-10.4-20c0-.2 11.1-.2 24.7-.2h24.6v21.8Zm158 0H579V67.9h155.6v21.8Zm100.6 0h-96.2V67.9H835v21.8Zm124.7 0H837.5V67.9h122.2v21.8Zm72.6 0h-70V67.9h70v21.8Zm52.6-15.4c0 3.5-.1 6.4-.2 6.4l-1.2-.6c-3-2.1-8.9-2.5-13.6-1-5 1.7-9 4.6-11.8 8.4l-1.6 2.2h-7.4v-7.9c0-4.3 0-8-.2-8.4-.3-.8-1.2-.7-7.6 1-3.1 1-5.9 1.7-6.1 1.7-.2 0-.4-1.6-.4-4.1v-4.1h50v6.4Zm69.3 15.4H1087l.2-.9c0-.4.2-5.3.2-10.9V68h66.8v21.8Zm55.5-15.4c0 3.5-.1 6.4-.2 6.4-.2 0-.7-.3-1.2-.7-2.2-1.7-8.7-2.3-12.6-1.2-5 1.5-11.6 6.2-13.4 9.6l-.7 1.3h-8l.2-2.5c.5-6.3-2.3-10.8-7.3-11.4-2.3-.2-5.3.7-7.4 2.2l-1.6 1.3v-4.6c0-2.6 0-5.1.2-5.7l.2-1.1h51.8v6.4Zm138 15.4H1212l.2-21.8h135.5v21.8Zm65.8-9-2.2-1.2c-2-1-2.7-1-5.8-1.2-3.1-.1-4 0-6.4.8-5.2 1.6-9.8 4.9-12.5 8.7l-1.2 1.8H1352V68h61.5v12.7Zm9-10.3c-1.7 1.8-2.2 2.6-2 2.9.3.3 1 0 2.6-1 1.2-.9 3.4-2.2 5-3l2.7-1.4h83.7l1.9.9a50 50 0 0 1 5 2.8c2.1 1.4 3.1 2 3.4 1.7.3-.3-.3-1.2-2-3l-2.6-2.4h18.4v6.4c0 3.5 0 6.4-.2 6.4a4 4 0 0 1-1.1-.6c-3-2.2-9-2.5-14-.8s-9.1 4.7-11.6 8.3l-1.4 2H1416V67.9h9l-2.4 2.6ZM1637 89.7h-96.3l.2-1.1.2-11V68h95.9v21.8Zm8.3-20.2a50.8 50.8 0 0 1 14.9 20c0 .1-4.7.2-10.4.2h-10.3V67.9h1.8c1.6 0 2 .1 4 1.6Zm58.4 9.2v10.8l-19.4.1H1665l-.8-2.7c-1.9-6.2-4-10.4-8-15.8l-2-3c0-.2 11.1-.2 24.8-.2h24.8v10.8Zm124.9 11H1706V67.9h122.6v21.8Zm136.6 0h-22.9c-12.6 0-22.9-.1-22.9-.2l2.7-8.7 2.7-8.9c0-.6-1.3-1.2-1.9-1-.2.1-1 1.2-1.7 2.4-2.6 4.5-6.9 8.7-9.9 9.5l-1.1.4.6-1.3a8 8 0 0 0 .3-6 9.1 9.1 0 0 0-5-4.1c-2.1-.6-4.7.1-6.6 2-1.4 1.1-1.9 2.5-1.9 4.9 0 3.1 1.3 5.1 4.2 6.5 1.8 1 2.4 1 5.6 1 3.1 0 3.9 0 5.6-.9 1-.5 2.8-1.6 4-2.5 1-1 2-1.6 2-1.6s-.5 2-1.3 4.2l-1.4 4-85.2.3V67.9h134v21.8Zm75.4 0h-70.8V67.9h70.8v21.8Zm125.2 0H2043V67.9h122.7v21.8Zm134.8 0h-132.3V67.9h132.3v21.8Zm149.4 0-147.1-.2-.1-10.8V67.9H2450v21.8Zm103.3 0h-100.8V67.9h100.8v21.8Zm-2475-7.1 1 6 .3 1h-7.3c-3.9 0-7.2 0-7.2-.2a120 120 0 0 1 12.2-11.9c.1 0 .6 2.3 1 5Zm68.8-1.5c1.4.8 2.3 3.8 1.9 6.8l-.3 1.8h-9.3l.2-3c.1-3.3.5-4 2.6-5.3 1.2-.7 3.8-.9 4.9-.3Zm1018 0c1 .6 1.7 2.6 1.7 5.7v2.9h-9.3V87c0-3.2.7-4.7 2.6-5.7 1.3-.6 3.9-.7 5-.2Zm-118.8 4.3v4.3h-11.5v-5.3l5.7-1.6 5.7-1.7v4.3ZM48.6 93a39.6 39.6 0 0 0-2.3 16.2l.1 5.1H27.6V92.5h10.6c8.9 0 10.5.1 10.4.5Zm26 .7a23.3 23.3 0 0 0-9.8 18.2v2.4h-9l-.1-1.1a31.1 31.1 0 0 1 5-18c2-2.8 1.3-2.7 8.9-2.7h6.8l-1.8 1.2Zm61.8-1.1.2 7.8.2 7.7h1c.5.2 2-.5 4-1.7A37 37 0 0 0 153.5 95l1.2-2.5h92.4v21.8H109.2l-.4-3c-.5-3.5-2-7.2-3.8-9.9a28.1 28.1 0 0 0-8.2-7.7l-2.2-1.1h41.8Zm11.5.7c-.8 2.6-4.4 7.2-7.4 9.3l-1 .7V92.5h4.3c4.3 0 4.3 0 4 .8Zm263.4 21h-23.6l-3-1.4c-10.8-5.5-23.9-9-40.8-11-7.7-.9-28.1-.9-35.8 0-16.9 2-30.1 5.6-41 11l-2.8 1.4h-14.7V92.5h161.7v21.8Zm98.6 0h-96.1V92.5h96.1v21.8ZM534 93.1c.1.4.3 1.4.3 2.2l.1 1.6-3.1 1a25.1 25.1 0 0 0-13.2 9.6c-2.3 3.4-1.7 3.9 1.4 1 3-2.7 8.4-5.1 13-5.8 1.7-.2 1.8-.2 1.8.6 0 .7-1.3 7.1-2 10.2l-.3.8h-19.6V92.5h10.7c10 0 10.8 0 11 .6Zm42.4 21.2h-20.3c-17 0-20.4 0-20.4-.5l.5-1.8 1-4.8.8-4.3.2-.8 4.4.2c7.3.3 13.7 2.6 17.9 6.4 2.5 2.2 3.2 2 1.6-.7a26.2 26.2 0 0 0-20.4-11.4l-3.2-.2v-1.2c0-.6 0-1.4-.2-1.9l-.2-.8h38.3v21.8Zm158 0H579V92.5h155.6v21.8Zm100.6-9-2.1-1c-5.2-2.7-12-1.9-18.4 2.1a29 29 0 0 0-7.3 7.2l-.2.7h-68.2V92.5H835v12.9Zm124.7.1-1-.6c-2.7-2-8.6-2.6-12.7-1.4a25.7 25.7 0 0 0-13.1 9.1l-1.2 1.8h-94.2V92.5h122.2v13Zm72.7-4.8c.1 8.2.1 8.2.9 8.3.4 0 3.4-.6 6.6-1.5l6.2-1.6s.2 1.9.2 4.2v4.3h-84V92.5h70l.1 8.1Zm13.9-3.1-5.3 1.4-5.7 1.5c-.4 0-.5-1.1-.5-4v-3.9h11.5v5Zm9-3.3a8.6 8.6 0 0 0 4.6 8.6c1.6.8 2.5 1 5.5 1.1 4.2.2 6.9-.4 10.7-2.3 3.4-1.6 6.4-4 8.4-6.8l1.6-2.3h10.4l-2.3 1.4c-3 1.7-6.4 5.1-7.9 8-1.2 2.2-1.2 2.3-1.3 7.3l-.2 5.1h-35.7V92.5h6.4l-.2 1.7Zm99 4c0 3 .1 6.6.3 7.7.2 2 .3 2.2 1 2.3.7 0 2.1-.6 4.3-2a36 36 0 0 0 11.3-11l1.5-2.7h7.6V95c0 4.1 2 7 6 8.4 2.1.7 7.2.7 10 0 5.2-1.3 10.9-5.2 13.4-9l1.1-1.9h136.9v21.8h-121l-121-.1s.8-.7 2-1.3a24 24 0 0 0 7.8-8c2-4 1.6-8.7-1-11.2l-1-1.2h40.8v5.6Zm11.8-5.5-1 2.3c-.7 1.4-2 3-4 5.1a19.2 19.2 0 0 1-3.7 3.2c-.3 0-.3-.7-.2-2.2.2-1.2.3-3.7.3-5.4v-3.2h4.3c2.3 0 4.3.1 4.3.2Zm218.1 2c-.2 2.9.6 4.9 2.6 6.7 2 1.8 4.4 2.6 8.4 2.6 4.5 0 8.7-1.4 12.8-4.1 2-1.3 5.3-4.7 6-6.2l.7-1.2h94.4v2.6c0 5.8 3.8 8.9 10.8 8.9a23 23 0 0 0 18.3-9.2l1.7-2.3h97v21.8h-285V92.5h32.4v2.2Zm276.9-1.7.2 2.3.1 2-2.6.6a24.2 24.2 0 0 0-15 12.2c0 .7 1.1.2 2-.7 2.1-2.6 7.6-5.3 12.7-6.3l2.9-.5-.3 2c-.1 1.2-.6 3.8-1.1 5.9l-1 3.8h-19.5V92.5h10.7c8.3 0 10.8.1 10.9.5Zm42.6 10.3v10.9h-20.5c-11.3.1-20.5 0-20.5 0l.8-3.5 1.2-5.1c.4-3.4.1-3.2 4-3 6.5.4 12.4 2.6 16.3 6 3 2.7 3.6 2.4 1.5-.8a25 25 0 0 0-18.9-10.8l-2-.2v-1.6c0-.8-.2-1.8-.3-2.1-.2-.5 1.7-.6 19.2-.6h19.3v10.8Zm124.9 11-122.5-.1v-10.9l-.1-10.8h122.6v21.8Zm84.5-14.5-3.5 10.8-1.1 3.6-77.4.1V92.5h84.3l-2.3 7.3Zm52 14.5h-26.7c-14.8 0-26.9 0-26.9-.2l6-18.8 1-2.8h46.7v21.8Zm75.5 0h-70.8V92.5h70.8v21.8Zm125.2 0H2043V92.5h122.7v21.8Zm106.5-21.6-2 1.3a23.8 23.8 0 0 0-7.8 7.9 20.3 20.3 0 0 0-1.6 9.3v3.1h-92.6V92.5h52c28.6 0 52 .1 52 .2Zm28.2 10.6-.1 10.9h-9.5l-9.5.1 2.3-1.3c8.4-4.9 11.9-14 7.3-19l-1.2-1.5h10.8l-.1 10.8Zm149.5 11-147.1-.1-.1-10.9V92.5H2450v21.8Zm103.3 0h-100.8V92.5h100.8v21.8ZM91 103.7c4.8 1.4 8.8 5.3 9.8 9.6l.3 1h-6.5c-6.4 0-6.5 0-6.6-.8a232 232 0 0 1-1.7-10.2c0-.5 2.3-.3 4.7.4Zm-8.3 4.6c1.2 6.8 1.8 6-5.2 6h-5.9l.2-1.1c.4-2 1.7-4.3 3.4-6 1.5-1.4 5.6-3.7 6.3-3.5.2 0 .7 2.1 1.2 4.6Zm265 .8c7.6.8 14.6 1.8 20.8 3 10.7 2.3 13.5 2.2-42.4 2.2s-53.2.1-42.4-2.1c8.5-1.7 19.6-3.2 29.3-3.7 5.7-.3 29.4 0 34.7.6ZM2264 114c.1.2 0 .3-.1.3-.2 0-.4-.1-.4-.3l.1-.4.4.4ZM47.5 117.6l1.6 3.6c3.9 8 9.3 13 19.3 17.3.6.4-4.3.5-20 .5H27.6v-22.2h9.9c9.7 0 9.8 0 10 .8Zm17.9-.2c.6 2 2.8 6 4 7.3 3.1 3.6 10 5.7 10 3 0-.6-.6-1.2-2.4-2.5-2.8-2-4.5-4-5-5.8-.8-2.7-1.1-2.6 5.8-2.6H84l.7 4c2 10.2 2.7 15 2.4 15.3 0 .1-2.5.2-5.3.2-4.1 0-5.5-.1-7.9-.8a24.2 24.2 0 0 1-17.5-17.3l-.3-1.4h4.5c4 0 4.6.1 4.8.6Zm35.9 1.7c0 6-3.3 12.2-7.9 14.7l-1.8 1-.2-.9c-.6-2.9-3-16.6-2.8-16.8.1-.1 3-.3 6.4-.3h6.3v2.3ZM247 130l-1.3-1c-1.9-1.1-6.1-2-8.9-1.7-2.7.3-6.9 1.7-9.4 3.1-2.3 1.4-6.3 5-7.5 7l-1 1.5H92.3l2.8-1.4a29 29 0 0 0 4.8-3c3.8-3.1 7.7-9.4 8.6-14l.6-3 .1-.8h138v13.3Zm13-13.2-3 2.4c-1.5 1.2-2.8 2.4-3 2.7-.3 1 .6 1 2.3-.1.9-.6 3.4-2 5.6-3l4-1.9h120l4 2c2.2 1 4.7 2.3 5.6 2.9 1.7 1 2.6 1.1 2.2.1 0-.3-1.5-1.5-3-2.7l-2.9-2.4h19.4v6.6c0 6.5 0 6.7-.7 6a14 14 0 0 0-6.5-2.1 24 24 0 0 0-19.7 9.8l-1.1 1.8H249.6v-10.8c0-6 .2-11 .3-11.1.2-.3 10.1-.4 10.1-.2Zm232 0c-.1.2-1.4 1-3 2-5.1 3.5-8.2 7.8-8.4 12.1-.2 3.1.1 4.5 1.5 6.4l1.3 1.6h-69.6l-.1-10.7.1-11.1a2774.1 2774.1 0 0 1 78-.2Zm17.8.5c0 .3-.1.4-.3.3-.2 0-.4-.3-.4-.5s.2-.4.4-.4.3.3.3.6Zm21.1-.4-.5 1.6c-.3.9-.5 2-.5 2.6 0 1 0 1 1 1 .7-.1 1.1-.6 2.3-2.8l1.4-2.6h12.1c6.7 0 12.1.1 12.1.2l-2.2 1.3c-4.8 2.6-9.1 8.2-9.5 12.5-.3 2.8.1 4.3 1.5 6.4l1.3 1.8h-49.2l2.4-1.4c3.2-2 6.5-5.4 8-8.2 1-2.3 1-2.5 1.2-7.4l.1-5.2h9.3c5 0 9.2.1 9.2.2Zm45.4.2c0 .2-.1.4-.3.4-.2 0-.4-.2-.4-.4s.2-.4.4-.4.3.2.3.4Zm158 10.7a39 39 0 0 1-.3 11H567.6l2-1.2c2.8-1.6 5.5-4 7-6.4 2-3 2.4-4.4 2.4-9.4 0-2.4 0-4.6.2-4.7 0-.2 31.5-.3 77.6-.3l77.5.1.1 10.9Zm71.2-8.5c0 3.2.8 5 2.8 6.8 1.9 1.7 4.4 2.4 8.2 2.4 7 0 14.7-4 18.5-9.8l1.3-2 94.2.2-.1 2c-.2 4 1.5 7 4.8 8.6 2.4 1 7.6 1.4 10.9.5a25.6 25.6 0 0 0 14.1-9.7l1-1.6h85l.2 6h1.3l1.3.2v-6.2l17.8.1 17.8.1v21.8l-346 .2v-10.8c0-6 .2-11 .3-11.1.1-.2 15.2-.3 33.5-.3h33.1v2.6Zm542 8.6v11h-260.2v-22.2l260.1.2.1 11Zm271.5-11s-1 .8-2.3 1.5c-3 1.8-6.6 5.6-7.9 8.1a12.9 12.9 0 0 0-1.1 7.5c.1.7.8 2.1 1.4 3.1l1.3 1.8H1352v-10.8c0-6 0-11 .2-11.1.3-.3 266.9-.4 266.9-.1Zm17.9.4c0 .3-.2.4-.4.3-.2 0-.4-.3-.4-.5s.2-.4.4-.4.4.3.4.6Zm21-.2-.5 1.7c-.3.7-.5 1.7-.5 2.3 0 1 0 1 1 1 .8-.1 1.2-.6 2.3-2.8l1.4-2.6h12c6.8 0 12.2.1 12.2.2l-2.3 1.5a23.2 23.2 0 0 0-8 8.2c-2 4-1.8 8.3.6 11l1.2 1.3h-49.6l2.3-1.4c3.3-1.8 6.5-5.2 8-8.1 1.1-2.4 1.2-2.6 1.3-7.5v-5.2h9.4c6 0 9.2.1 9.2.4Zm45.6 0c.1.2.1.4-.1.4s-.5-.2-.6-.4c0-.2 0-.4.2-.4l.5.4Zm107.1-.2-2 1.3a24 24 0 0 0-8.4 8.7 10 10 0 0 0-1.2 5c0 2.8.6 4.3 2.3 6l.9 1h-53.7l-53.7-.1c0-.1.8-.7 1.9-1.3 2.6-1.5 5.9-4.5 7.3-6.9a15 15 0 0 0 2-9.4v-3.9a5039.6 5039.6 0 0 1 104.7-.4Zm17.7.2c.4.6 0 .8-.5.2-.3-.3-.3-.6 0-.6l.5.4Zm136.8 21.8h-145.7l2-1.1c2.4-1.5 6-4.9 7.4-7 1.7-2.7 2.2-5 2.2-9.8v-4.3h134V139Zm57.9-22-2.4 1.5a23 23 0 0 0-8 8.2c-2 4-1.8 8.2.4 10.7.6.6 1 1.3 1 1.4 0 .1-10 .2-22.1.2h-22.2v-22.2h26.7c14.6 0 26.6.1 26.6.2Zm17.5.2-.1.4-.4-.4c-.1-.2 0-.4.1-.4.2 0 .4.2.4.4Zm107.3-.2-2 1.2a23 23 0 0 0-8.3 8.5 9.2 9.2 0 0 0-1.3 5.3c0 2.7.5 4.2 2.2 6l1 1h-53.8l-53.7-.1 2.1-1.3c2.7-1.6 6.5-5.5 7.7-8 1.3-2.5 1.7-4.8 1.4-8.5v-3.7a5036.7 5036.7 0 0 1 104.7-.4Zm17.7.2c.4.6 0 .8-.5.2-.3-.3-.3-.6-.1-.6.2 0 .5.2.6.4Zm95.3 21.8h-104.3l2.7-1.7c3.5-2.3 6.2-5.2 7.6-8.2 1.1-2.3 1.2-2.7 1.3-7.4l.1-4.9h92.6V139Zm21.8-22-2.4 1.5c-3 1.7-6.9 5.8-8 8.4-2 4-1.7 8 .6 10.7l1.3 1.4h-10.8v-10.8c0-6 0-11 .2-11.1.2-.3 19-.4 19-.1Zm17.7.2c.4.6 0 .8-.6.2-.2-.3-.2-.6 0-.6s.5.2.6.4Zm149.5 6.4.1 6.5-1.9-1.1c-2.8-1.6-6.7-2-10.4-1.3a25.3 25.3 0 0 0-14.4 9l-1.7 2.3h-65l-65-.1 2.1-1.4c3-1.6 6.5-5.3 8-8.3 1.2-2.5 1.2-2.5 1.1-7.1l.1-5c.1-.1 32.7-.2 73.6-.2l73.3.1.1 6.6Zm103.4 15.4h-101.2l.2-.8c.1-.4.2-5.4.2-11.1v-10.3h100.8V139ZM574 120.2c1.4.8 2 2.3 1.5 3.9-.5 1.4-3.4 4.3-6.1 6-5.5 3.6-13 6.6-15.5 6.3-2.5-.4-3.9-2.7-2.8-4.9 1.1-2.4 6-6 11.7-8.8 6-2.9 9.1-3.6 11.2-2.5Zm.3 24.8c2 1.7 1.9 3.5-.5 6.1-2.9 3.3-12 8.4-17.1 9.6-2.5.5-2.6.5-4-.1-1.6-.8-2.4-2.5-1.8-4.1.7-2 6-6.2 11.3-9 6-2.9 10.4-3.8 12-2.5Zm-233.6 19.2a35 35 0 0 1 1.7 11.3c-.5 0-5.2-3-6.7-4.2-1.6-1.3-2.3-1.5-2.3-.7s3.8 5 6.4 7c1.4 1 2.6 2.2 2.6 2.4 0 2.6-3 9.6-5.8 13.7a46.5 46.5 0 0 1-17.7 14.7l-.1-22.8V163l1 .8c1.9 1.3 4 1.8 7.4 1.8 3.7 0 6.8-.7 10.1-2.4l2.6-1 .8 2.1Zm177.5 263.3c5.3 4 10.8 10.8 13.7 17 2 4.3 2 4.4-.4 5.2a27.5 27.5 0 0 0-13.5 9.9c-2 3.2-1.4 3.5 1.6.8 2.5-2.2 6.7-4.3 10.8-5.3 4.3-1 4.3-1 4.3.9 0 5-1.9 14.8-4 20.2l-.7 2.1h-17.6v-27.2l.1-27.1 1.4.7a38 38 0 0 1 4.3 2.8ZM2371 458c2.2 1.8 2 8.6-.2 13.5-1.7 3.4-5 6.9-6.7 6.9h-1.1l.1-8.9c.1-9.8.2-10 2.5-11.5 1.6-1 4.2-1 5.4 0Zm-371.2 7.9v8.1l-5.3 1.5-5.8 1.5c-.3 0-.4-1.7-.3-8l.1-8 5.5-1.6c3-1 5.6-1.7 5.7-1.7v8.2Zm-1425.4 7c1.4 1.4 1.6 2.4.4 4.1l-.8 1.2-9 .1-8.9.1 1.1-.7a45 45 0 0 1 14.5-6c1.2 0 1.7 0 2.7 1.1Zm-514.4 9.8A22.2 22.2 0 0 0 48 501.1v1.9H27.6v-21.8h35.5l-3 1.4Zm167.6-.3a26 26 0 0 0-7.7 7c-1.9 3-2.3 4.4-2.2 9.3v4.4h-120l-.8-3.5c-1.2-5.4-3.1-9-6.6-12.5a18.5 18.5 0 0 0-6-4.3l-3-1.5h148.4l-2 1.1Zm163.9.2a24.5 24.5 0 0 0-8.3 8.3c-1.1 2.2-1.1 2.5-1.3 7.2l-.1 5H238.4l2.3-1.4c2.8-1.7 6.4-5.4 7.7-8.1.8-1.6 1.1-2.8 1.2-4.6.1-3-.4-4.5-2.1-6.5l-1.1-1.2h147.5l-2.3 1.3Zm89 1.2c0 5.7 3.2 8.7 9.9 9.2l3 .2-2.1 1c-3 1.5-6 4-8 6.6L482 503h-79l2.1-1.3c5.2-3.3 8.8-8.6 8.9-13 0-2.6-.7-4.6-2.4-6.3l-1.1-1.1h70.2v2.5Zm66.6-.1c-.2 4.4 2.3 7.6 6.9 8.8 1.1.3 3 .6 4.1.6h2l-2.3 1.2c-3.4 1.8-6 4-7.9 6.5l-1.6 2.3h-36.1v-1.7c.3-2.5-.4-4.4-2-6.3-1.9-2-4.3-3.1-8-3.4l-2.8-.2 2.3-1.2c3.3-1.7 6.7-4.6 8.1-7l1.3-2h36.1l-.1 2.4Zm21.4-1.1a42.9 42.9 0 0 1-14 5.8c-3.5 0-5.1-3.2-3-5.9l1-1.2h18l-2 1.3ZM734.5 503H578.9v-2.5c0-2 0-2.6-1.1-4.3-1-1.7-1.6-2.2-3.6-3.2s-2.9-1.3-5.3-1.4l-2.9-.2 2.2-1c3-1.5 6-4 8-6.8l1.9-2.4h156.4V503Zm330.2-20.3a23 23 0 0 0-8.1 8.4c-1.1 2.2-1.2 2.6-1.3 7.1l-.2 4.8h-92.9v-2.5c0-2-.1-2.6-1.1-4.3-1-1.7-1.6-2.2-3.5-3.2-3-1.5-7-1.9-10.7-1-5.3 1.4-11 5-13.8 9l-1.4 2h-94.4v-1.7c.4-3.9-1.7-7-5.3-8.7-1.6-.7-2.4-.9-5.8-.9-3.5 0-4.3.2-6.8 1.2A24.3 24.3 0 0 0 808 501l-1.2 1.8h-68.1v-21.7h328.4l-2.5 1.5Zm124.6.2a22.8 22.8 0 0 0-8 8.5c-1 2.1-1 2.7-1.2 7l-.2 4.6h-103.7l2.8-1.8c3.2-2.2 5.5-4.8 7-7.8 1-2 1.2-2.8 1.2-4.9 0-2.8-.6-4.2-2.4-6.2l-1.1-1.1H1192l-2.7 1.7Zm158.4 20h-146.8l2-1c2.8-1.7 6.4-5.5 7.8-8.2 1.7-3.4 2-6.4.6-9.1a9.6 9.6 0 0 0-1.9-2.7l-1-.7h139.3V503Zm46.3-20.6c-3 1.6-7.3 6-8.6 8.7-1 2-1 2.5-1.2 7l-.1 5H1352v-21.8h44.1l-2.1 1.1Zm124.6.2c-3.3 2-6.8 5.5-8.3 8.5-1.1 2.4-1.2 2.6-1.3 7.2l-.1 4.8h-104.2l2.2-1.3c2.9-1.7 6.3-5.2 7.7-7.8a10 10 0 0 0 1.3-4.7c.2-3.1-.2-4.6-2-6.6l-1.2-1.4h108.2l-2.3 1.3Zm89 9.6V503H1530l2.3-1.5c2.6-1.7 5.7-4.7 7-6.9a17 17 0 0 0 1.4-3.7c1-3.6.3-6-2-8.6l-1.2-1.1h70.1V492Zm66.8-10.4c-.2.4-.3 5.3-.3 11V503h-7l1.4-2.5c1.1-2 1.3-2.6 1-3-.3-.3-.7-.1-1.5 1l-2.8 3-1.6 1.5H1637l-.4-1.6a62.7 62.7 0 0 0-4.7-12.5c0-.2 1-1.3 2.3-2.5a27 27 0 0 0 3.3-3.7l.9-1.5h18c16.4 0 18.2 0 18 .5Zm124.7.8-.2 10.9v9.6h-8.8l2.2-2.4c2.2-2.2 2.8-3.3 2-3.3-.3 0-1.4.7-2.6 1.5-1.3.9-3.4 2.2-4.8 2.9l-2.6 1.3h-80.5l-2.2-1.1c-1.3-.6-3.4-2-4.9-3-1.9-1.3-2.7-1.6-3-1.4-.3.3.3 1.1 2 3l2.5 2.5h-21.6v-6.3c0-3.4.1-6.2.2-6.2l1.2.7c2.8 2 8.6 2.2 13.9.5 4.8-1.5 10.6-6 12.5-9.5l.5-1h94.5l-.3 1.3Zm166 20.5h-163.7v-6.5c0-6.2 0-6.5.7-6 1.1 1.1 3.8 2 6.1 2.3 7.6.8 16.6-3.6 20.6-10l1-1.6h135.4V503Zm20.9-19.8c.1 1.9.2 2 1 2.2.3 0 3.3-.6 6.6-1.5l6-1.7c.2 0 .3 3.9.3 8.6v8.6h2.8v-18.2h20.6l-2.3 1.3a24.4 24.4 0 0 0-8.3 8.3c-1.2 2.2-1.2 2.5-1.3 7.2l-.2 5h-41.4v-21.8h16l.2 2Zm160.5-1c-4.4 2.5-7.8 6-9.4 9.5-.6 1.5-.8 2.7-1 6.5l-.1 4.8h-103.8l2.2-1.4c5.2-3.3 8.8-8.6 8.8-13 0-2.6-.7-4.6-2.3-6.3l-1.1-1.1H2148l-1.6 1Zm124.6.1a28 28 0 0 0-8.5 8.4 21.4 21.4 0 0 0-1.7 9.3v3H2157l2.7-1.8c8-5.3 10.7-13.6 6.2-18.5l-1.4-1.5h108.6l-2.1 1.1Zm89.2.5c.1 1.5.3 1.8 1 1.9.8 0 3-1 5.3-2.5l1.5-1h29.9l-2.3 1.3c-3.1 1.8-7 5.8-8.4 8.5-1 2-1.1 2.4-1.2 7l-.2 5h-104.1l2-1.2c1-.6 3-2.2 4.5-3.6 3-3.1 4.4-5.8 4.7-9.2.1-2.2 0-2.7-.8-4.4a9.6 9.6 0 0 0-1.9-2.7l-1-.7h71v1.6Zm193 20.2h-146.7l1.4-.8c1.9-1 5-3.4 6.5-5.3 2-2.6 3-4.9 3.3-7.7.1-3.1-.3-4.6-2-6.6l-1.3-1.4h138.8V503ZM73.2 483.7c5.4 1.1 8.8 5 10.6 12.1.4 1.5.8 3.7.9 5l.2 2.2H70.6l-.3-1.2c-.4-2-1.5-3.7-3.4-5.4a9.7 9.7 0 0 0-11.2-1.6l-2.1 1 .2-1.1c.7-3.5 4-7.7 7.5-9.5a20 20 0 0 1 11.8-1.5Zm1542 8.9c3.8.7 8.3.1 12-1.6l2-.9.6 1.4c1 2.4 3 8.4 3.2 10l.2 1.5h-1.3c-1 0-1.5-.3-3-1.7l-2.7-3c-.7-1-1-1.1-1.3-.8-.4.4.4 2.4 1.9 4.5l.6 1h-17.5V490l1.7 1c1 .6 2.5 1.3 3.6 1.5Zm-1041.2 4.1c1.2.6 2 2.3 1.7 3.5-.1.5-.5 1.3-1 1.8l-.7 1H556.2l2-1.3a38 38 0 0 1 13.3-5.5 6 6 0 0 1 2.4.5Zm-525 11a11 11 0 0 0 6.2 6.1c4 1.2 8.6.5 11.5-1.7 1.7-1.2 3.6-4.3 3.6-5.6 0-.6.5-.7 7.3-.7h7.3v3c0 4.9-1.2 10.4-3.6 17l-.7 1.8H27.6v-21.8h20.6l.6 1.9Zm169 20h-78v-9.1c0-9.8 0-9.5-2-9.5-1.8 0-1.8 0-1.6 9.6v9H92.5l1-2.1c2.5-5.1 4.6-13.4 4.6-18.2v-1.6h119.8v21.8Zm164 0H220v-21.9h162v21.8Zm98.6-20-.2 10.9v9h-95.9v-21.8h96.3l-.2 1.9Zm66.6 20h-3.6c-2.7 0-3.5-.2-3.3-.5l1.3-2c1-1.6 1.3-3.3.7-3.3-.2 0-1 .8-1.6 1.7-.7.9-2 2.2-2.7 2.8l-1.4 1.2h-13.3l-13.3-.1-.7-2.5c-.8-3.1-2-6.5-3.5-9.4l-1.2-2.3 1-.8c1.6-1.1 4.3-4.2 5-5.5l.7-1.2h36.1l-.2 21.8Zm21.5-20.6c-3.2 2-8.3 4.3-11.2 5.2-2.2.6-3 .8-4 .5-2.7-.7-3.6-3.4-1.8-5.7l1-1.3h18l-2 1.3Zm165.9 20.5H549.6v-6.2c0-3.4.2-6.3.4-6.3l.7.5c1.4 1.8 8.8 2.4 13 1.2a25 25 0 0 0 13-9l1.3-2h156.5v21.8Zm71-20-.2 11v9h-66.5v-21.8h67l-.3 1.9Zm124.9 20H807.8v-12.8l1.7 1c2.6 1.7 6.5 2.2 10.6 1.3a24 24 0 0 0 14.3-8.4c1-1.3 1.6-2.4 1.6-2.5 0-.2 19.5-.4 47.3-.4h47.3l-.2 21.8Zm124.8 0H933v-6.2c0-3.4.2-6.3.3-6.3.2 0 .5.3.8.5 1.4 1.8 8.8 2.4 13 1.2a25 25 0 0 0 13-9l1.3-2h94v21.8Zm124.8 0h-122.3v-21.8H1180v21.8Zm167.7 0h-165.2v-21.8h165.2v21.8Zm36.5 0H1352v-21.8h32.2v21.8Zm124.7 0h-122.2v-21.8h122.2v21.8Zm98.7 0h-96.2v-21.8h96.2v21.8Zm24-20c2 1.6 2.1 1.7 2.1 3.4 0 4-1.5 8.8-4.5 13.8l-1.7 2.8h-17.7v-21.8h19.6l2.2 1.7Zm23.8-1c-3.2 1-10.5 1.3-14.6.5-1.6-.3-3.1-.8-3.3-1-.2-.1 3.6-.3 9.8-.2h10.2l-2.1.7Zm18.7 21h-39.6l1-2.6c1.5-3.3 2-6 2.4-10.2.1-2.6.3-3.2.7-3.1a24.3 24.3 0 0 0 24-4l2-1.8h9.5v21.7Zm30.3-20.3a73.6 73.6 0 0 0 28.7 9.1c6.8.8 19.8.6 26-.5a71.8 71.8 0 0 0 25.2-8.9l2-1.2h12.6v21.8h-122.3v-21.8h25.4l2.4 1.5Zm69-.7a134 134 0 0 1-18 2.8c-6.7.6-22.4.3-28.2-.5a134 134 0 0 1-13.6-2.7c-.7-.2 10-.3 30.6-.3 31.6 0 31.6 0 29.1.7Zm191.8 21h-45.8l.2-.8 2.7-8.7c2.2-6.7 2.5-8 2.1-8.5-.9-1-1.8-.5-3.4 2.1-2.2 3.6-5.4 7-8 8.4-1.1.6-2.2 1.1-2.5 1.1-.1 0 0-.6.4-1.3 1.2-2.5.7-5.7-1.3-8a7 7 0 0 0-9.2-.8c-2.2 1.6-2.9 3-2.7 6 .1 3.1 1.1 4.7 4 6.2 1.7.9 2.1 1 5.7 1 4.6 0 5.8-.5 9.5-3.5 1.4-1 2.1-1.6 2-1.2l-1.4 4.4-1 3.6h-115v-21.8h163.7v21.8Zm46.1 0h-41.5v-21.8h41.5v21.8Zm124.8 0h-122.3v-21.8h122.3v21.8Zm124.8 0h-122.3v-21.8h122.3v21.8Zm125.1 0h-122.6v-21.8H2386v21.8Zm167.3 0h-164.8v-21.8h164.8v21.8ZM489.2 517.3c2.4.4 3.3.4 6-.1 1.6-.4 4-1 5-1.5l2-.9.4 1a72.2 72.2 0 0 1 3.5 11.4c0 .3-.5.4-1.2.4-1 0-1.6-.3-3-1.6-1-.9-2.2-2.2-2.6-2.9-.8-1.3-1.6-1.4-1.5-.2 0 .4.5 1.6 1.2 2.6l1 2-8.6.1h-8.5v-12.8l1.7 1a11 11 0 0 0 4.6 1.5ZM79 530.8a48.5 48.5 0 0 1-14 19l-3 2.5H27.5v-21.8h25.7c14.2 0 25.8.1 25.8.3Zm57.2 21.5h-33a959 959 0 0 1-32.6-.3l3.2-2.6c5.4-4.5 12-11.8 15.7-17.4l1-1.5h45.7v21.8Zm81.5 0h-62v-3.8c0-3.6 0-4-1-5.8-2.6-4.5-7.7-5.5-13-2.3a17 17 0 0 1-2 1.1V536l.1-5.4h78v21.8Zm164.1 0H220v-21.8h162v21.8Zm98.4 0h-95.9v-21.8h95.9v21.8Zm23.5-20.6 2.2 1.7c.8.6.8.8.6 3.3-.1 1.3-.5 3.5-.8 4.7-.6 2.3-2.9 7-4.5 9.4l-1 1.5h-17.5v-21.8h19.7l1.3 1.2Zm24.6-.4c-3.2 1-10.5 1.3-14.6.5-1.6-.4-3.1-.8-3.3-1-.2-.2 3.6-.3 9.8-.3h10.2l-2.1.8Zm18.7 21h-19.8l-19.9-.1.9-2.1c1.4-3.2 2-5.6 2.4-9.7l.4-4 2.4.6c3 1 9.2 1 12.5.2 3.3-1 7-2.8 9.5-5l2.2-1.7h9.4v21.8Zm187.4 0H549.6v-21.8h184.9v21.8Zm70.8 0h-66.5v-21.8h66.5v21.8Zm125.1 0H807.8v-21.8h122.6v21.8Zm124.8 0H933v-21.8h122.3v21.8Zm124.8 0h-122.3v-21.8H1180v21.8Zm167.7 0h-165.2v-21.8h165.2v21.8Zm36.5 0H1352v-21.8h32.2v21.8Zm124.7 0h-122.2v-21.8h122.2v21.8Zm98.7-18c0 2.2 0 7.1-.2 11l-.2 7h-95.8v-21.8h96.2v3.9Zm15.4-1.4c-2.8 2.8-6 5.3-9.4 7.2-4.2 2.4-3.8 2.8-3.8-3.8v-5.8h15.5l-2.3 2.4Zm51.1 19.4H1645c-16 0-29.2 0-29.2-.2 0-.5 4-5.5 7.2-8.9 3.7-4 7.8-9.2 9-11.3l.8-1.4h41.3v21.8Zm124.8 0h-122.3v-21.8H1799v21.8Zm115-16.9a932 932 0 0 1-3.5 10.8l-2 6-107 .1v-21.8h114l-1.6 4.9Zm51.3 17h-53.7l.3-1 6-19.2.6-1.7h46.8v21.8Zm46.1 0h-41.5v-21.9h41.5v21.8Zm124.8 0h-122.3v-21.9h122.3v21.8Zm124.8 0h-122.3v-21.9h122.3v21.8Zm125.1 0h-122.6v-21.9H2386v21.8Zm167.3 0h-164.8v-21.9h164.8v21.8Zm-2406.2-8.7c1.4.8 2.3 3.8 1.9 6.8l-.3 1.8h-9.2v-2.6c0-3 .8-4.6 2.9-5.7 1.4-.7 3.6-.8 4.7-.3Zm-90.6 12.7a99 99 0 0 1-6 3.6l-4.3 2.5v1.2c.2 1.2.3 1.3 1.2 1.4 1.4.2 11-4.5 15.9-7.8l3.3-2.1H136.3l.3 7.8.2 7.7.9.1c1 .2 2.6-.6 5.8-2.8 4.5-3 8.1-6.9 10-10.5l1.2-2.3h63.1V577H27.6v-21.8h30.6l-1.7 1.2Zm91.6-.8c0 1-2.6 5-4.8 7.2-4 4-3.8 4-3.8-2.3v-5.3h4.3c2.9 0 4.3.1 4.3.4ZM381.9 577H244.2l-2.2-1.3c-3.9-2.4-8.4-5.5-11.3-7.9-2.9-2.3-3.6-2.6-3.6-1.8s6.8 7 10.7 9.8l1.6 1.2H220v-21.8h162V577Zm98.4 0h-95.9v-21.8h95.9V577Zm15-19c-2.8 2.9-8.6 7-11.2 8l-1.3.6v-11.4h15.5l-3 2.8Zm51.8 19h-58.6l1.7-2.5c1-1.3 3.7-4.5 6-7 4.2-4.6 8-9.4 9-11.3l.5-1H547V577Zm187.4 0H549.6v-21.8h184.9V577Zm70.8 0h-66.5v-21.8h66.5V577Zm125.1 0H807.8v-21.8h122.6V577Zm124.8 0H933v-21.8h122.3V577Zm124.8 0h-122.3v-21.8H1180V577Zm167.7 0h-165.2v-21.8h165.2V577Zm36.5 0H1352v-21.8h32.2V577Zm124.7 0h-87.3l-3.2-1.1a180.3 180.3 0 0 1-24.6-10.4c-.2 0-.3.3-.3.5a73 73 0 0 0 15.6 9l4.2 2h-26.6v-21.8h122.2V577Zm98.4-16.1c.1 4.6.3 5.8.7 6 1.2.8 1.7.2 2.5-2.8.7-2.8 2.6-7.6 3.2-8.5.4-.4 5.8-.4 30.4-.4h30v10.7h2.5v-10.7H1799v10.7h2.5v-10.7h163.8V577h-206.5l5.5-2.3c7.3-3.1 15.3-7 21.1-10.6 5.9-3.5 7.2-4.4 6.6-5-.3-.3-1 0-2.7 1-8.3 4.8-23 10.9-37 15l-5.9 1.9h-234.9v-21.8h95.8l.1 5.7Zm404 16h-41.5v-21.7h41.5V577Zm124.8 0h-122.3v-21.7h122.3V577Zm124.8 0h-122.3v-21.7h122.3V577Zm125.1 0h-122.6v-21.7H2386V577Zm167.3 0h-164.8v-21.7h164.8V577Zm-822.5 4c-39.8 9.7-95.5 15.4-151.2 15.4-47.2 0-89.5-3.7-125.1-11-7.5-1.5-22-5-22.4-5.3 0 0 68-.2 151.4-.1h151.6l-4.3 1Z"/><path d="M1129.7 75.1c-1.5.5-2.7 1.7-2.7 3 0 2.7 3.6 4.2 7.2 3 3.5-1 3.6-4.7.2-5.8a10 10 0 0 0-4.7-.2ZM1227.2 75.4c-1.7.7-2.6 2.4-2 3.6 1.2 2.8 6.6 3.4 9 1 2-2.3-.3-5-4.3-5-1 0-2 .1-2.7.4ZM1430.2 75.1c-2.1.7-3.1 3-2 4.7 2 3 8.3 1.8 8.3-1.6 0-1.2-1-2.4-2.2-3-1-.3-3-.4-4.1 0ZM854 98.2c-3.4.9-4.8 5.2-2.2 7.3a5.4 5.4 0 0 0 8-1c.8-1.2.8-3.2-.2-4.6-1-1.4-3.6-2.2-5.5-1.7ZM977.5 98.2c-.6 0-1.7.6-2.3 1.2a4.4 4.4 0 0 0-.6 5.5c1.8 2.6 6.5 2.6 8.4-.1 2.3-3.4-1-7.5-5.5-6.6ZM1130.7 98.2c-.8 0-1.8.7-2.5 1.3-2.9 2.8-.5 7.4 3.8 7.4 1.6 0 3.5-1 4.3-2.3 2-3.5-1.3-7.3-5.6-6.4ZM1754.7 95c-13 .8-25.2 3.6-34 7.9-6 2.8-11.6 7.3-9.4 7.3a98.5 98.5 0 0 1 29.6-7.2c26.2-3 59 0 71.8 6.3 3.3 1.7 3.8.8.8-1.5-11.6-9.3-34.9-14.3-58.8-12.8ZM2319 98.3c-1 .5-1.5 1-2 2.1-.7 2 0 4.8 1.5 5.9 1 .7 1.9.7 3 .2.9-.6 1.3-1.2 1.7-2.7.8-3.4-1.6-6.7-4.1-5.5ZM264.6 123.6a4.6 4.6 0 0 0-3.5 4.7c0 4.6 5 6.6 8.3 3.5 3.8-3.4.1-9.7-4.8-8.2ZM592.8 123.6a6 6 0 0 0-2.3 1.6c-.9 1-1.1 1.7-1.1 3 0 3.9 3.3 6 6.9 4.7 5.7-2.3 2.5-11-3.5-9.3ZM1721 123.7a5 5 0 0 0-3 7c.8 1.8 2.2 2.6 4.4 2.6 3.2 0 5-1.8 5-5 0-1.3-.3-2-1.2-3a6.1 6.1 0 0 0-2.5-1.6c-1.5-.4-1.3-.4-2.8 0ZM2059.1 123.7c-2.9.9-4.4 4.8-2.8 7.3 1 1.6 2.4 2.3 4.5 2.3 3 0 4.8-1.9 4.8-5 0-1.3-.3-2-1.2-3a6.2 6.2 0 0 0-2.4-1.6c-1.6-.4-1.4-.4-2.9 0ZM2183.5 123.6c-3.3 1-4.5 5.2-2.2 8a5 5 0 0 0 8.6-1.9c1-3.7-2.7-7.2-6.4-6.1ZM2320.2 123.6c-4.2 1.3-4.7 7.2-.7 9.2 3.9 1.9 8.1-1.5 7-5.7-.3-1.2-2.5-3.5-3.4-3.5-.2 0-.7 0-1.1-.2-.4 0-1.2 0-1.8.2ZM2466.6 123.6c-3.3 1-4.4 5.2-2.2 8a5 5 0 0 0 8.6-1.9c1-3.7-2.7-7.2-6.4-6.1ZM104 485.7c-3.8 3-3.5 9.6.7 11.8 2.2 1.2 5-.1 6-2.8a10 10 0 0 0-.2-7c-.7-1.5-2.8-3-4.3-3-.4 0-1.4.5-2.1 1ZM263.8 488.4c-3.4 1-3.7 4.6-.5 5.9 1.2.4 3.9.5 5.2 0a6 6 0 0 0 1.7-1.1c1.2-1.2 1-3-.3-3.9a6.7 6.7 0 0 0-6.1-1ZM1101.4 488.2c-2.6 1-3.6 2.5-2.8 4.2.6 1.4 2.2 2.2 4.5 2.2 2.1 0 3.6-.5 4.5-1.5 1.3-1.4.6-3.7-1.4-4.6a8.9 8.9 0 0 0-4.8-.3ZM1227.8 488.4c-1.9.6-2.8 1.6-2.8 3 0 2 1.9 3.2 5 3.2 6.3 0 6.7-6 .4-6.6-.9 0-1.8 0-2.6.4ZM1430.1 488.4a3.3 3.3 0 0 0-2.4 3.1c0 1 .1 1.3 1.3 2.2 1.1.9 1.4 1 3 1 1.4 0 2-.2 2.7-.6 4.3-2.5.4-7.4-4.6-5.7ZM1720 488.4c-2.3.9-3.2 3-2 4.5 1 1.2 2.2 1.7 4.5 1.7 1.8 0 2.1 0 3.4-1 1.3-.8 1.5-1 1.5-2 0-1.6-1-2.6-2.7-3.2a6.8 6.8 0 0 0-4.7 0ZM2058.3 485.3c-2 .9-2.8 2.7-2.6 5 .1 1.6.4 2 1.5 3.1 1.2 1 1.6 1.2 3.4 1.2 2 0 2.2 0 3.5-1.4 1.3-1.3 1.5-1.6 1.5-3.2 0-4-3.8-6.4-7.3-4.7ZM2182.7 488.5c-4.4 1.8-2.8 6.1 2.4 6.1 2.2 0 3.8-.7 4.6-2 1.7-2.9-3-5.7-7-4.1ZM2308.6 488.4c-1.2.7-1.8 1.6-1.8 2.8 0 2.2 1.3 3.4 3.3 3.4 3.5 0 4.6-4.3 1.6-6.1-1-.6-2-.6-3 0ZM2433.9 488.4c-2 .6-2.8 1.7-2.6 3.3.1 1.1.4 1.4 1.5 2.1 1.2.7 1.6.8 3.4.8 1.4 0 2.2-.1 3-.5 4.9-2.5.3-7.5-5.3-5.7ZM104.8 511.4c-.9.3-2.3 1.6-3 2.7-1.6 3 1 7 4.4 7 2.9 0 5-2.1 5-5a5 5 0 0 0-6.4-4.7ZM234.8 508c-.8.5 1 1.8 6.3 4.5 24.3 12.4 73.5 15.6 109.9 7.2a112 112 0 0 0 18.4-6.2c3.6-1.7 8.5-4.7 8.5-5.2 0-.7-1-.6-3.5.4-16.4 6.5-56.5 9.9-90.8 7.7a168.7 168.7 0 0 1-46.7-8.1c-1-.4-1.8-.6-2-.3ZM591.6 511.9c-1.7 1-2.4 2.6-2.2 4.9.2 1.5.4 2 1.5 3s1.7 1.3 3 1.3c3.2 0 5.4-2 5.4-5a5 5 0 0 0-7.7-4.2ZM852.9 511.9a4.7 4.7 0 0 0-2.4 4c-.1 3 1.9 5.2 4.9 5.2 3.9 0 6.2-4 4.3-7.3-1.5-2.5-4.5-3.4-6.8-2ZM976.1 511.9c-1.7 1-2.4 2.6-2.2 4.9.1 1.5.4 2 1.5 3 1 1 1.6 1.3 3 1.3 3.1 0 5.4-2 5.4-5a5 5 0 0 0-7.7-4.2ZM1401.3 508.2c-.6 1 5.3 5.4 10.9 8.1a89.1 89.1 0 0 0 28.4 7.6c7.7.8 23.7.5 30.5-.6a71.9 71.9 0 0 0 30.8-11c5.2-3.8 5.4-5.2.4-3-11.1 5.1-27 7.6-48.7 7.6a285 285 0 0 1-15.4-.4c-14.7-1.2-27.5-4-34-7.5-2.6-1.4-2.5-1.4-2.9-.8ZM45.4 1.3c-1.4 2-5.6 6.1-8.4 8-3.5 2.5-6.8 4.1-10.6 5.3-3 1-3.5 1-14.6 1.2-6.2 0-11.4.3-11.6.4-.4.4-.2 586.1.2 586.5.2.3 4.5.5 11.6.6 12 .2 12.7.3 17.9 2.5a42 42 0 0 1 15.3 11.8c1 1.6 2.2 2 3 1 .4-.5.3-1-.3-2.8-5.3-14.7-16.7-23-33.4-24.2l-3.3-.3V27.7l1.9-.2 4.6-.4c5.2-.4 12.2-2.7 16.4-5.6 3-2 6-4.9 8.1-7.6 3.6-4.6 7-12.3 6-13.4-.7-.9-1.9-.6-2.8.8ZM458.9 147c-3.4 1.6-3.8 6.4-.8 8.7 1.3 1 4.2 1 5.5 0 5.3-3.4 1-11.3-4.7-8.7ZM592.2 147.2a4.5 4.5 0 0 0-2.8 4.4c0 2.2 1 3.7 3.1 4.4a5 5 0 0 0 5.7-1.2c1-1 1-1.4 1-3.3 0-1.7 0-2.2-.8-3-1-1-3-2-4-2-.4 0-1.4.3-2.2.7ZM854 146.7c-1.2.3-3 2-3.3 3.5-1.1 3.8 2.2 7 6.1 6 4.8-1.2 4.8-8 0-9.4-1.3-.4-1.4-.4-2.8-.1ZM976.7 147.2a4.5 4.5 0 0 0-2.9 4.4c0 2.2 1 3.7 3.2 4.4a5 5 0 0 0 5.6-1.2c1-1 1.2-1.4 1.2-3.3 0-1.7-.2-2.2-1-3-1-1-2.9-2-4-2-.4 0-1.3.3-2.1.7ZM2058.7 147c-3.9 1.7-4.1 7.1-.4 8.8 1.9.8 2.4.8 4.3.1 3-1.1 4-5 2-7.3a6.5 6.5 0 0 0-4.1-2 8 8 0 0 0-1.8.4ZM2183.5 146.8c-3.3 1-4.5 5.2-2.2 8a5 5 0 0 0 7.3.1c1.6-1.5 1.9-3.3 1-5.4-.7-1.3-1.1-1.8-2.4-2.3-1.7-.8-2.1-.9-3.7-.4ZM1297 153.3a26.4 26.4 0 0 0-15 9.3l-.7 1.1h-10v3.9h8.3v38.1c0 32.9 0 38.2.5 38.6 1 .8 1.7-.1 2.6-3.3a45.7 45.7 0 0 1 13-20.5c5.5-5.8 8.2-9.5 10.8-14.6 2.6-5.2 3.2-7.2 3.5-12.6.3-6.4-.9-13-3.4-19.2l-.6-1.6 1.6-1.7c1-1 1.9-2 2-2.5.5-.7.7-.7 5.3-.7h4.9v-3.9h-8.1v-2c0-3.6-2.5-6.6-6.3-7.9-1.9-.6-6.5-.9-8.4-.5Zm7.6 25.6c1.2 4.6 1.5 11.7.7 15.5a41 41 0 0 1-5.8 11.7 46 46 0 0 1-14.8 12.6l-2.6 1.3v-44l2 1c4.2 2 10.8 1.6 16.3-1 2-1 2.7-1.2 3-.9l1.2 3.8ZM1399.8 153.7c-3.6.9-6.8 2.4-9.5 4.4-2 1.6-5.2 4.7-5.2 5.3 0 .1-2.3.3-5.1.3h-5.2v3.7h8.5v57.3h1.2l1.2-.2v-24.4l.2-24.3 2.1 1a19 19 0 0 0 11 .8c5.4-1 11.5-4.8 14.4-8.7l1.1-1.5h10v-3.7h-8.5v-2c0-2.3-.8-4-2.5-5.7-2.8-2.6-8.5-3.6-13.7-2.3Zm11.4 4.7c1.5 1.3 1.7 2.7.8 4.1l-.8 1.2h-8.9c-10.2 0-10 0-4-2.8 4.2-2 8.5-3.4 10.4-3.4 1 0 1.7.3 2.5.9Zm-6.4 10a39.5 39.5 0 0 1-14.1 5.2c-3 0-4.8-3-3.2-5.3l.6-.9h18.1l-1.4 1ZM1691.3 153.3a26.3 26.3 0 0 0-15 9.2l-.6 1.1h-10v3.8h8.2v57.3h1.2l1.2-.2v-24.4l.2-24.4 2 1c4.2 2 10.8 1.6 16.5-1 3-1.5 7.3-5 8.7-7.1l.8-1.2h9.7v-3.8h-8.1v-2c-.1-3.6-2.5-6.5-6.3-7.8a23 23 0 0 0-8.5-.5ZM1813.6 153.7a25.7 25.7 0 0 0-13.2 8.2l-1.3 1.7h-10v1.8l.2 1.8 8.2.3v57l1.2.1 1.2.1v-49.4l1.1.8c6.1 4.4 19.8.9 25.4-6.6l1.6-2h9.5v-3.9h-7.9V162c0-5.1-4-8.4-10.4-8.8-2.3-.2-3.6 0-5.6.5ZM2500.7 153.7c-5 1.3-10 4.3-13 8l-1.6 2h-9.6v3.9h8v75.9c.3 1.2 1.4 1.4 2.1.5.4-.4.7-1 .7-1.4 0-1.1 1.8-6 3.5-9.1 2-4 4.6-7.2 9.7-12.7 7.5-8 10.7-12.9 13.2-19.7 1-2.6 1-3 1-9.7 0-6.4 0-7.2-1-10.7-.5-2-1.3-4.6-1.8-5.8l-1-2.2 1.5-1.6 2-2.5.6-1h10v-3.8h-8.3v-1.9c0-2-1.2-4.8-2.6-6-2.8-2.5-8.7-3.5-13.4-2.2Zm8.4 23.7c1.3 4.5 1.6 6.6 1.6 11 0 5.3-.5 7.6-3 12.4-3.9 7.7-10 13.8-17.8 17.8l-3 1.5v-44.5l1.2.8c3.7 2.7 11.4 2.5 17.4-.4a21 21 0 0 1 2.4-1.1c.3 0 .8 1.1 1.2 2.5ZM429.6 170c0 .7 4.8 4.9 7.8 6.7 16.8 10.7 45 14.5 70.5 9.5a79.8 79.8 0 0 0 24.5-9c3.1-1.9 7.3-5.2 8.1-6.4 1-1.4 0-1.4-2.1 0-9.3 6.2-27.6 10.2-49 10.8-23.2.6-45-3.4-56.5-10.5-2.7-1.6-3.3-1.8-3.3-1ZM1430.1 173.5c-3.8 1.9-2.8 7.9 1.5 8.2 1.7.2 2.6 0 3.7-1.1 1.2-1 1.2-1.2 1.2-3 0-1.7-.1-2.2-.8-2.9-1-1-2.6-1.7-3.7-1.7-.4 0-1.3.2-1.9.5ZM1720.4 173.4c-.6.2-1.5.8-2 1.3-.8.7-1 1.2-1 2.7 0 1.7.2 2 1.2 3 3.2 2.9 8.8 1 8.8-3 0-1.8-1.2-3.3-3-4-1.8-.6-2.5-.6-4 0Z"/><path d="M1401.5 182c-.6.5-.1.8 3.2 2.8 18.2 10.6 50 18.4 88 21.8 15.2 1.3 22.1 1.6 41.8 1.6 11.8 0 22.3-.2 26.7-.4 41.9-2.6 74-9.1 96.5-19.6 4-1.8 10.2-5.3 10.2-5.8 0-.8-.8-.6-3.6.7-24.8 11.3-74.3 18.3-129.8 18.3-55.4 0-105-7-129.7-18.3-3.4-1.6-3-1.5-3.3-1.1ZM1694.3 182.1c-.3.6 5.3 6.1 8.4 8.3 7.3 5 16 8.3 27.6 10.4 4 .7 6 .8 14.4.8a73.4 73.4 0 0 0 40.4-9.6c5.3-3.3 11.4-9 10.5-10-.3-.2-1 0-2.1 1-6.9 5-17.2 8.4-31.4 10.4-5.7.9-21.8 1.2-28 .6-16.5-1.5-29.7-5.4-37.2-11-2-1.4-2.2-1.5-2.6-.9ZM2395 203c.4 2 4.5 10.3 7 14a56.5 56.5 0 0 0 71.2 18.5c2-1 3.3-1.9 3.3-2.2 0-.7 0-.7-3.4.4a66.9 66.9 0 0 1-39.3-1.6c-2.9-1-7.3-2.9-10-4.2a63.3 63.3 0 0 1-27.6-25.3c-.9-1.4-1.4-1.3-1.2.3ZM533.5 204.3c-25 20.1-70.4 34.6-125.4 39.9-65.2 6.3-129.8-1.8-167.5-21a99 99 0 0 1-12.9-7.7c-2.6-2-3-2-3-1.1 0 1.3 11.2 9.2 19.3 13.6 43.2 23.6 117.1 31.6 186.3 20.3 46.1-7.6 83.7-23.2 105-43.5 2.2-2.2 2.8-3.2 1.9-3.2-.2 0-1.8 1.2-3.7 2.7ZM1590.4 338.3c-41 1.3-75.7 6-106.2 14.3-23.7 6.5-45 15.9-59.6 26.2-2 1.3-3.5 2.6-3.5 2.8 0 .8.9.5 4.2-1.5 45.3-28 137.5-40.6 234.5-32.3 70.2 6 129.3 22.8 160.5 45.9.9.7 1.4.8 1.7.6.5-.5-.2-1.1-4.5-4.5-36.1-28.2-104-47-184.8-51-7.5-.4-35.7-.7-42.3-.5ZM1084.6 407.9l-1.6-1.2a15.8 15.8 0 0 0-11.8-1.2c-4.2 1-8 3.3-11.2 6.6-5.3 5.4-6.6 10.9-3.6 15.5l.9 1.3h-10.8v4h48.5v-4h-18.4l2.2-1.5c3-2 5.7-5.2 7-8.1l1.2-2.4.2-62.2h-2.6V408ZM409 358.2c-37.4 2.3-71 9-98.7 19.7a131.6 131.6 0 0 0-45.7 27.2c-5.6 5.4-10.9 12.4-10 13.2.4.4.5.3 3.2-3.2 2.6-3.4 8.4-9 13.2-12.4 28-20.4 79.7-34.5 137.9-37.4 9-.5 29.6-.5 38.2 0 50 2.6 87.8 14.4 107.5 33.5a47.8 47.8 0 0 1 14.2 23.6c1 3.6 1.8 5 1.8 3 0-1.6-1.3-6.7-2.5-10.1-7.6-20.7-28-36.6-59.8-46.7-15.6-4.9-32.9-8-54.5-9.9-7.2-.6-37-1-44.8-.5Z"/><path d="M1637.5 361.7c-.3.3-.5 8-.5 35.2 0 21.4 0 34.7-.3 34.7-.2 0-.4-.2-.6-.4 0-.2-1-.7-1.9-1.1-1.4-.7-2.3-.8-5.9-.8-3.7 0-4.6.1-6.7 1-3.6 1.3-6.2 3-9 5.7-3.3 3.3-4.6 5.8-4.7 9.4-.2 2.4 0 2.9 1 4.7l1 2h-10.3v4h48.2v-4h-9.2l-9.1-.1 1.8-1.2a21 21 0 0 0 7-7.5l1-2.3.2-27.2c0-16.3.2-27.3.4-27.3l3.5 2a49.1 49.1 0 0 1 17 22c.3 1 .2 1-1.5 1.5-5.9 1.5-12 6.1-14.5 11-1.1 2.1-.4 2 2.2-.3 1-1 2.9-2.2 4-2.8 2-1 6.8-2.6 9.6-3l1.5-.2v2c0 4.8-1.6 13-3.6 18.8-.6 1.6-1 3.3-1 3.8 0 .9 0 1 1 .9.7-.1 1.1-.6 2.2-2.6a50 50 0 0 0 5-18.6l.4-4.3h2.2c6.3 0 13.7 2.7 17.5 6.4 2.5 2.4 3.1 1.6 1-1.5-4-5.8-10-9.3-18-10.4l-3.3-.4-.3-1.4c-1-5-4.2-12-7.5-16.5l-6.3-8.6a54.2 54.2 0 0 1-10.7-19.7c-.8-2.5-1.1-3.2-1.7-3.3-.3 0-.9.1-1.1.4ZM1208.4 419.6l-1.8-1c-5.5-3.3-13.7-1.6-20 4.1-1.2 1-2.6 2.6-3.1 3.6l-1 1.6h-9.3v4h7.7v2c-.1 3.7 1.8 6.7 5 8.3 2 1 8.6.9 11.4-.2 4.4-1.6 9-5.3 11-8.5l1-1.6h9.1v-4h-7.7v-60h-2.3v51.7ZM1413.4 419.6l-1-.7c-2-1.4-4.1-1.9-7.8-2-4.3 0-8.3 1.3-12.3 3.8-2.5 1.6-5.9 4.8-6.8 6.4-.4.7-.6.7-5.5.7h-5.2v4h8.5v1.8c0 5.7 3.5 9 10.3 9.2 3.9.2 7.2-.5 11.2-2.4a25 25 0 0 0 8.6-7l1.1-1.6h10v-4h-8.6v-1.1l.1-30V368h-2.6v51.7ZM1537.4 393.7c0 14.6-.2 25.9-.3 25.9-.2 0-.5-.3-.8-.6-.6-.7-3.9-1.8-6.5-2.1a24.4 24.4 0 0 0-19.4 9.3l-1 1.6h-10v4h8.4v2.4c0 3 1.2 5.3 3.6 6.9 6.7 4.2 19.7.5 25.3-7.2l1.6-2.1h9.5v-4h-8v-59.6l-1.2-.1-1.2-.2v25.8Z"/><path d="M1703.7 406.5c0 13.9 0 25.2-.3 25.1l-2.4-1.1a17.7 17.7 0 0 0-11-.7c-11.8 3-19.6 14.4-14.4 21.2l.9 1.2h-10.8v3.9h48.5v-4h-18.4l2.6-1.8c4.7-3.3 7.5-7.7 7.6-11.9v-29.6l-.1-27.6h-2.2v25.3ZM1827.1 432l-1.3-.8c-5.8-4-16.1-1.9-23 4.5-5.3 5-6.8 10.8-3.8 15.1l.9 1.4H1789v1.8l.2 1.9 24.1.1h24.1v-3.8h-18.3l2-1.4c3-2 5.8-5 7.1-7.7l1.2-2.4V411l.1-29.7h-2.5V432ZM1465.4 394.6c-17.4 1.2-34 7.4-42.4 15.8-1.5 1.6-2.1 2.4-1.8 2.6.2.3 1 0 2.4-1 13.7-9 41.8-13 68.4-9.5 12.3 1.6 23.4 5 29.9 9.3 1.7 1.2 2.4 1.5 2.7 1.2.6-.5-4.7-5.5-8.1-7.7-12.5-8-31.8-12-51-10.7Z"/><path d="M1757 407.7c-18.7 1-34.8 5.6-43.7 12.6-2.3 1.8-3 2.7-2 2.7l2.4-1.1a100 100 0 0 1 36.6-8.2c6.1-.5 19.6-.5 25.4 0 16.2 1.1 28.7 4 36.5 8 2.6 1.4 3.3 1.6 3.3 1 0-.5-4.2-3.7-6.8-5.2a71.4 71.4 0 0 0-18.4-7c-9.6-2.2-22.7-3.3-33.4-2.8ZM1101.8 413.4c-3.4 1-4.6 5.5-2.2 8 2.9 2.9 7.4 1.8 8.5-2 .6-2.4-.7-4.8-3.1-5.8-1.4-.6-1.7-.6-3.2-.2ZM1228 413.8c-2 .8-3 2.3-3 4.3 0 6.3 9.1 6.7 9.9.5.3-2-.8-3.7-2.8-4.7-2-1-2.3-1-4.2-.1ZM1430.8 413.4c-2 .6-3 2.3-3 4.6 0 2 .8 3.7 2.3 4.5 1.5.8 2.4.7 4-.1 4.8-2.6 1.8-10.8-3.3-9ZM314.9 426.7c-22.6 1.5-43 8-55.4 17.5-5.7 4.4-7 7.1-1.6 3.7 11.1-7.2 31.8-12.2 56-13.6 32.2-1.8 65.2 3.8 80.4 13.6 5.3 3.4 4.1.7-1.7-3.7-16.6-12.8-46.7-19.6-77.7-17.5ZM1720.4 436.7c-.6.3-1.5 1-2 1.5-.8.8-1 1.3-1 3 0 1.9.2 2.3 1.2 3.3a5 5 0 0 0 5.6 1.3 4.6 4.6 0 0 0 3.2-4.7c0-1.9-1.3-3.6-3.3-4.4-1.5-.6-2.2-.6-3.7 0ZM1046.5 456h48.5v-3.2h-48.5v3.3ZM1173.2 456h45.2v-3.2h-45.2v3.3ZM1374.8 456h49.6v-3.2h-49.6v3.3ZM1499.3 456h48.5v-3.2h-48.5v3.3ZM263.7 463.2a4.9 4.9 0 0 0-2.6 4.5c0 3.1 1.8 4.9 5 4.9 2 0 3.2-.7 4.2-2.4 2.5-4.1-2.3-9.2-6.6-7ZM592 463.2c-3.3 1.6-3.6 6.8-.4 8.7 2 1.1 4.4.9 6.1-.6 1.2-1 1.4-1.5 1.5-3.2.2-1.8 0-2.2-.8-3.3-1.8-2-4.1-2.7-6.4-1.6ZM853.3 463a5 5 0 0 0-2.8 4.5c0 3.1 2 5.2 5.2 5.1 6.1 0 6.3-9.2.2-9.9-.8 0-2 0-2.6.4ZM976.3 463.5c-1.6.8-2.5 2.3-2.5 4.3 0 2.5 1.8 4.6 4 4.7 2.3.2 3.1 0 4.4-1.2 1.1-1 1.4-1.5 1.5-3.2.2-1.8 0-2.1-.9-3.2a6.2 6.2 0 0 0-4.2-2.2 7 7 0 0 0-2.3.8ZM2058.4 463.3c-2 1-3 2.7-2.7 5 .5 4.3 5.7 5.8 8.7 2.6 1-1.1 1.2-1.6 1.2-3 0-2.3-1.1-4-3-4.7-1.9-.7-2.4-.7-4.2.1ZM2183 463.3c-4.7 2.4-3.3 9.2 1.8 9.3 2.4 0 4-1 4.8-2.9 1.1-2.6 0-5.5-2.5-6.5-1.6-.7-2.6-.7-4.1.1ZM2308.7 463c-1 .8-1.9 2.7-1.9 4.5 0 3.1 1.4 5.2 3.5 5.1 4 0 4.2-9.2.1-9.9-.5 0-1.3 0-1.7.4ZM2433.8 463.5c-1.6.8-2.5 2.3-2.5 4.3 0 2.5 1.7 4.6 4 4.7 2.2.2 3 0 4.4-1.2 1.1-1 1.3-1.5 1.5-3.2.1-1.8 0-2.1-1-3.2a6.2 6.2 0 0 0-4.2-2.2 7 7 0 0 0-2.2.8Z"/></svg>